<mxfile host="app.diagrams.net" modified="2021-10-12T13:21:38.898Z" agent="5.0 (X11)" etag="OZLxGmmaTB__Vk8nbP43" version="14.9.2" type="github">
  <diagram id="T1LvO5eWXn74dlzDgc8z" name="Page-1">
    <mxGraphModel dx="868" dy="476" grid="1" gridSize="10" guides="1" tooltips="1" connect="1" arrows="1" fold="1" page="1" pageScale="1" pageWidth="850" pageHeight="1100" math="0" shadow="0">
      <root>
        <mxCell id="0" />
        <mxCell id="1" parent="0" />
        <mxCell id="g83cpQadt5hWgY0dcIvO-66" value="" style="strokeWidth=1;html=1;shadow=0;dashed=0;shape=mxgraph.android.statusBar;align=center;fillColor=#000000;strokeColor=#ffffff;fontColor=#ffffff;fontSize=10;" vertex="1" parent="1">
          <mxGeometry x="327.43" y="84.18" width="186" height="15.83" as="geometry" />
        </mxCell>
        <mxCell id="g83cpQadt5hWgY0dcIvO-50" value="" style="shape=image;verticalLabelPosition=bottom;labelBackgroundColor=#ffffff;verticalAlign=top;aspect=fixed;imageAspect=0;image=data:image/png,iVBORw0KGgoAAAANSUhEUgAAALYAAAFMCAIAAADp7NGYAAABhGlDQ1BJQ0MgcHJvZmlsZQAAKJF9kT1Iw0AYht+mSrVUHOwg4pChOlkQleKoVShChVArtOpgcukfNDEkKS6OgmvBwZ/FqoOLs64OroIg+APi5uak6CIlfpcUWsR4x3EP733vy913gNCoMs3qGgc03TYzqaSYy6+IoVeEEaHZi4TMLGNWktLwHV/3CPD9Ls6z/Ov+HH1qwWJAQCSeYYZpE68TJzZtg/M+cZSVZZX4nHjMpAsSP3Jd8fiNc8llgWdGzWxmjjhKLJY6WOlgVjY14inimKrplC/kPFY5b3HWqjXWuid/YaSgLy9xndYwUljAIiSIUFBDBVXYiNOuk2IhQ+dJH/+Q65fIpZCrAkaOeWxAg+z6wf/gd2+t4uSElxRJAt0vjvMxAoR2gWbdcb6PHad5AgSfgSu97d9oANOfpNfbWuwI6N8GLq7bmrIHXO4Ag0+GbMquFKQlFIvA+xl9Ux4YuAXCq17fWuc4fQCy1Kv0DXBwCIyWKHvN5909nX37t6bVvx9e3XKfB/vutgAAAAlwSFlzAAAuIwAALiMBeKU/dgAAAAd0SU1FB+UKDAwKITWnhjgAAAAZdEVYdENvbW1lbnQAQ3JlYXRlZCB3aXRoIEdJTVBXgQ4XAAAgAElEQVR42jy893/b5bn/r733srYtS/K2vPeI7DhxhrMXSSAhAUILlFVyKO2nPaenaQucQqGEWeAEsgxZONNOvOIVz3hIlmwNy7Jla1l77+8P9/dx/oDkkeh939f1ul6v53VDa2tri4uLm5qaDh48+Msvv/zlL39hMpmHDx/esWPH5cuXQ6HQzz//TKfTy8rKZDLZM888g0QiIRAIBAKZn58fGhpaW1u7e/fu1atXXS7XvXv3mExmMpnMzc2dnZ2dmJjIz88nEol4PP7Jkyfr6+ttbW3T09MikejQoUNoNDoQCMRiMZvNdufOnfr6ejgcrtPp1Go1HA4Ph8N2u/3IkSNtbW0ajebx48fRaFSlUmGx2OPHj5tMpp9//rmxsfGdd96JxWKPHj3SarX19fVqtbq4uPj7778/e/asVCpNpVIOh+Nf//oXm83Oy8vz+/1Wq5XBYNjt9k2bNul0uo6Ojtra2mPHjnV0dAQCAYPB0NnZ+f7773M4nLW1tc7OTh6P9+TJEzKZXFFRkUwmQ6GQwWBAo9FFRUUajcZms5HJZJfLJZVK4XD4/Py8TqeDQqEHDhwwm83hcNhoND777LMymQyFQkGh0FgsRqFQ4vE4CoWCw+FQKNRut4+Pj1ut1lAoxOVyCwsLNRrN+Pj46urq2tpaY2OjQCAYGhrC4/E+n89qtSqVysLCwuzsbJ/P53a76+rqampqLBbLjz/+yOVyT548OTExgcVizWbz4OCg3++Xy+U6ne7UqVNlZWV2u/3NN9+k0+kYDIbP5//hD3+IRqOLi4sPHz6UyWQ2m21mZiYQCLz55pvhcHhgYGBubm5+fr6lpQXe1tY2NzdXVFSUlZX1t7/9rbW1VSQSffvtt0+ePNm+ffuhQ4fcbrdCobBYLLm5uVVVVeB8pFIpJpN548YNg8Fw9uzZoaGhn376KRgM4vF4LBY7Pz+/tLRUWlpKpVL37NkTCAQQCAQUClUoFCUlJQqFQqPRFBUVRSIRGAzGYDAIBMLAwEAymdTpdNu2bWtpaTGbzcFgEIPB9Pf3s9lsn88XDAa9Xu+5c+e6urqePn36m9/8pru7OxgMpqenY7HYmZmZ0dHRysrKqampI0eOXLp0ic/ns1is9vZ2Go1WW1ubnp7u8/ksFgsKhZLL5R9++OGjR4/KysoyMzMHBgYmJiYikQgEAlGr1d9++21paWlNTQ0cDr9w4cKRI0d0Ot2jR4/y8/M1Go1AIHA6nRgMZmFhgUwmT01NORyOQ4cO5ebmjo6OotHo7du3O51OCASi0WgOHTpkt9uDwWBWVpbf74/FYvF4nEAgeL1e8DOiUCgIBDIzM9Pa2iqVSnU63fj4+MrKyvLycnl5+fDwsEajKSgoqKurU6vVi4uLPB6vuro6Ho87HA6z2Tw1NQWHw2OxGBwON5vNS0tLeXl5yWRSoVDo9XqBQIDD4Ugk0vDwMIvF+utf/5qRkREMBgUCQUVFxfT0NBaLvXz5cmtrq9lsdjgcTCYTgUBMTk6ur68vLi46HA673W4wGOB79uw5c+aMWq3u6Ojg8/mZmZlarXbnzp1LS0tms9ntdq+vr0Oh0IaGhnv37mk0muLiYhQKBYPBPvjgA71e/+GHH5pMpp6enhMnTsRisampqXA47Pf7KRRKIpHYsWOHRCJxuVxut5tIJJrN5uXl5ZqaGpvN5vf7BQIBEol0u91paWkEAmF8fLyioqK4uPizzz5Tq9UsFkur1ZrN5sXFxZMnTx46dAgKhfr9frvdTiaT19bWJiYmtFrt+vq60WhcWFiAQCDggo6MjBw+fLirq2thYeH27dsnTpwQi8XDw8MqlaqpqQkCgYTDYbFYHIvFSkpK7Hb73Nwci8VaXFxsaWmJRqN+v//BgwcCgaCwsDAvL295eXloaCgQCOBwOLlcbrfb7XZ7Z2cnFou9f/8+j8eLx+Nut5tGo1kslsrKykAgIJPJrly5cvLkSZPJ1Nramkwmv/zyy4yMDBwOh8PhnE4nHA5PJBJwODyVSnV3dxOJxMbGxpmZGRQKtbCw4HQ609LSJicn29rasFgsFovdt2/f4OCgUCikUCjr6+toNNrv96+urqJQqLGxseLi4p07d6alpbW0tIRCobGxsenp6draWgwGc/DgQY/HU1RUdOXKlVQqFQ6HcThcQUEBi8VaXl6+cePGCy+8MDc3h8FgsrOziUQiAoFAoVBkMrm1tXV1dVWhUJw9exZ++PDhXbt2jY2Nzc7OPv/88319fcFgMBQKnT592uVyPXjwwGKxUCiU5uZmLpc7MTHR0dGRlZV19epVq9X68ssvs9nsH3/88d133/X5fD09PXa73eFwMBgMFotFJpP37t0bDofD4XAkEpmZmZmennY4HNFoVCwWz8/Pz8/Ps9nstLQ0n8+Hw+Gys7MnJyc/++wzoVBYVVWlUCiMRmNubq5YLJ6YmCgqKlIqldnZ2Xw+X6fTXbp0SSQSMRgMjUajVCrFYrFIJMLhcPfu3SsoKDAYDEtLSzabbevWrTqdjsVi9ff319bW0ul0iUTy9ddfJ5PJvXv3jo+PU6lUt9s9PT0NqjGZTHY4HKFQ6MqVK5s2bcJgMD/99FNlZSUcDo9EIhsbG3q93mKxlJSUYDAYuVxeV1eXTCZtNtvExER1dXUgEGhpably5YpcLi8tLcVise3t7c3NzUgkUqfTMZlMFAoVjUZjsVgymUQikTdv3iwuLqbT6QqFwul0jo+Pq9VqNpttMplqamoqKyslEsmTJ096enqoVCr4C3t7e5FI5MrKChaLNZlMr732Gp/Pn5ycfPbZZ/1+/+Li4tWrV7lcLoPBcLvdIpEoKyurvb09FosVFhZGIpFdu3ZZrVYkErmwsJCRkaHT6fLy8kBlUqlUFoslmUzS6XQkEtna2ur1eqlUKnxjY2NoaEilUsnlcpVKxeVyRSLR6upqIpHIzc2dmJgIBAI8Hk+v16elpZWUlBgMho8++iiVSr3//vuZmZnvvvuux+MpKCi4du2aUqnMy8uj0+kEAoFMJr/88stoNBqJRKZSqZ6envv370MgkGPHjikUiuXl5X379s3OzprNZqlUmkwmI5EIFArF4XDBYPDgwYPBYLC/v7+0tDSRSAQCgaKiou7u7t7e3rq6Oq/Xe/HiRSaTyeFwEomE2WwGLQCBQKDRaFAJksmkw+FYWlpCIBBZWVn37t3bt28fm82m0+kXL14cGRmRy+Xj4+NsNtvtdi8uLm7ZsqWxsXFgYGB2dvaZZ56BQCDgM3R3d2Ox2F27dpHJZI1GIxKJIBCIXq/ft29fZmbm9PS0UCg0mUyRSEQmky0sLJw9e/bq1av9/f3btm1LS0tDIpGZmZldXV2NjY0Gg+Hp06cUCoVEIiWTSTKZPDg4iMPhmpqawAFaXV1VKpXNzc2PHj2qqqratGkThUJxOBw4HG59fZ3BYOzbt+/evXsbGxtwOByFQlksluPHj7e1tbnd7sOHD8NgsKGhoYsXLxYWFmIwmG3btgmFwmg0+tNPP2m12m3bttHpdDqd7vP5JBLJzZs3X375ZaVSaTQaw+Ewn893uVw9PT0UCoXD4ZDJ5GAwmEgktm7deuvWLTiFQvF4PBgMxmw2W63WVCoFhUJpNJrJZDIajevr6w0NDZFIBHTN0dFRgUBQWVk5NzdntVq//PJLLBbL4XC+//57h8OBRqNpNBqXy/V4PK+//jqDwYhGowgEQqlUnj9/3uv1ZmRk2O322dlZFAql0+mam5sjkUg8HsdgMBAIBAaDgc9sMBh6enoaGxtbWlpycnLQaHQikbh3797Zs2dtNtsnn3yCRqPpdPra2ppGo2EwGGw2e2lpKRgMms3mqqqqeDw+ODhIpVJZLFYwGARSwGAwMJnMS5cu9fX1HThwAI1GO51Op9PZ09PT2toql8t7e3uHhobsdrtIJNqyZQsMBpudnc3Ozi4pKbl161ZTUxMGg5mYmAgGg0gk8unTp06ns7i4+PHjx1AotKqqyuFw/OlPf7p169bPP//83HPPFRQUQKHQaDQaj8fxePz//u//KpVKuVyu0WgWFxeLi4vv378/Ozu7ZcsWoAAyMjKAelAoFM3NzTt37qRQKBMTEyqVamZmJjc3d2FhYWFhYfv27V6v12q1xmIxIpF48OBBpVLZ0tKCRCKvX7/+ySefYLFYPp+/Y8cOn88Hqv7Q0FBDQ4NMJoNCoSgUKhwO9/T0NDU1xePxQ4cOra+vRyKRoaGh+fn5gwcP5uTk6PX6QCCQm5ubSCT6+/uXl5fhEokkMzMzGo2Cg+x0Onk8XjgcDgaDIyMjQPLA4fDt27cvLCzgcLiSkhKJRBIOh0ElT6VSubm5i4uLLBYrIyODTCYnk8mdO3fKZDIIBAKHw00m06uvvrq8vHz06FGLxbK8vLx582YEApGdna1UKgUCQTKZ3NjYwGAwKBTKYDA4HA61Wo1CoZ577jk+n89gMGw2G4FASCaTMpns66+/TqVS6enpNBptcXGRTCajUCifz4dCoRAIBBKJTCaT4XC4paXF6/UeOXJEo9FUVlZOTk7m5eV99913d+7ceeWVVxKJBBaLzcrKunPnTkNDwzPPPLO+vj4xMcFms8lkstFoJBKJn3/+OQQCOXXqVFVVFYFA6O3tpVKpZrPZZDKx2Wy73Y5AIMDpVCqVaDT6zJkzw8PDV69eFQqFKysrPB6PQqH4/f5QKITFYvPy8tbX11Eo1M6dO//1r3+Bz2w0GkOhEBQKzczMDIVCaWlp09PTNBrt6NGjRCJRr9f39vYuLS2lp6cDHQqBQB48eCAWi7dt22a3261W6/Dw8Msvv0wgEIaGhr766qucnBwSiQTOd0lJSUdHR09PT1paGhQKpVKpBAIBh8MtLS0999xz1dXVq6urNptt3759T5482djYkMvlfD4/FotJpdLFxUWLxUIkEi9evMhgMOBtbW0mkwmNRsNgMKPRCIfDQcs3Go14PL68vHxlZUUikdy6dau8vDwrK0uj0aysrKjV6tOnT+/du/enn36yWq0SiQT0FwqF4vP5nn/+eSgUCtTl7373u4WFhT179thsNqVSKZFIZDKZQCAgkUgGg8FgMAgEgvX1dRwOF4vFfD4fOHYlJSVra2swGGxyclKlUpWVlYVCoe+++87tdhcVFfl8vuHhYRwORyQSIRAIg8FoaGjg8/krKysoFOrw4cMcDmd+fh4KhaalpfX397tcLpvNVltbu7Gx0dvbW19fn0ql+vr6cDicwWCgUCjz8/NMJjMYDAYCgWg02t7efuDAgZMnT0ql0kgkIhKJfD6fQqFAIBCHDh2KRqNcLjcQCIRCIavVymQyCQQCFov95ptvZDJZdna22WyGw+F0Oj0ejwO96XQ6CwsLu7u7EQiExWKpqqp66623gsGgQqEYGhoKhUKFhYVms5nBYJBIpL6+PgaDcf369WAwSKVSuVxuPB43Go0sFguBQMTj8ZdffjmZTD548IBIJALZ+9FHH7HZbDwe/6tf/YrH46WlpV28eLG3t1ckEsHhcIfDEQwG8/LyVlZWSkpKamtrY7EYiUTS6/UYDGZ8fJzH4zU0NGCxWDwe7/V6KysrFQrFgwcPqqqq0tLS4O3t7YlEwu12W61WMP2DXuP1ekF/BYempaXlhRde4HK5oMWkpaXV19cXFhbW1tY+efLEYDDk5OSkUimbzQY+IZVKRSAQ//znP9vb21999dVUKtXZ2Xn8+PFEIkGlUikUytDQEAqFAheaSqUqlcqMjAybzaZSqVKplNForK2tHRsbo1KpZWVlt2/f9vl8TCYzlUolk8mnT58SCAQej4fFYvPz87OysiKRiNfrbWtrs9vtGo1mbW1t+/btQqHw1q1bBQUFYIpbXFxsbGxcXV2Fw+Grq6sUCuXNN9/EYDAjIyNMJtPr9ZrNZjKZDL6HXC5XKpUkEonFYgE3hcPhOJ1Om802PT3NZrO3bdvmdrvD4XBBQcHKysq5c+fodHpubi4KhQLayGq1gsEefEW/35+ZmTk/Py+Xy/fs2eN0OnNzc30+38LCQiQSMRgMQqHQ7XbH4/G1tTWLxWKxWMDkBQ56MBhcXFysrKz0+/0LCwvHjx9nsVhra2tLS0u9vb18Pp9AIBw9erSmpoZAIFy9evXnn38+efIklUrV6XQIBCKRSBgMhv3795eXl7vdbo/HQyQSs7KygDuCRCJBW4jH40wms7Ozs6urK5VKxeNxPp8PB25HLBbD4XDAmKqrq9NoNGQyGQqFgpMlFotNJhOVSl1cXLx7925FRQWdTp+dnaXRaHq9nkAgpFIpEonk9XqxWCwoS4ODgywWS6FQ7NixY2Fhobe3t7Kyks/nZ2VlJRKJzs5OLpdbUFCQnZ29sbGh1WoLCwvn5+ddLteHH34I5sBUKiWTyWpra5eWlvB4vEqlmp+fLy4u9ng8FRUVcrncarUCGaHRaHg8Xl5eHg6H43K54HJUVVU5nU4ikWi323U6HRaL/e///m+FQlFRUeF0Ojc2NkpLS/F4/NTUlFgs9ng8Pp+PxWJ1dnbm5OQUFBRwudz8/Pz5+XkymRyNRnE4XEZGhslkcjgchYWFHA7HZDJVV1cbjcahoaG5ubnMzMzs7Oy0tDShUAjuqEajYbPZXC7X7XYnEgmgw3755ZcXX3wRj8fb7fZoNDo5OZlMJsGQAofDaTRaNBp1OBxGoxECgWzevJlCoSSTSRgMRqfTcTgc+KHsdvu1a9e2bNmCQqGcTmcwGIxEIkeOHNm+fXs8Hn/48OHHH3+8f//+uro6LBbr8/lSqRSLxXrttdeKioq8Xq/H42EymUgk8uDBg7Ozs8XFxTKZTCQSgVp74cKFK1euBINBGo0mk8lisRhcpVLFYrGDBw8KhUKHw6FUKq1Wq0wm8/l8U1NTv/rVr7Zs2bK6ujo1NTU5OTk5Ofl/hmleXl5fX5/BYMjLy4tGo2q1WiaTnTx58v79+waDIRwOP3z48M0335yYmLhy5UppaalEIsHj8XA4fHx8nMFgZGVl+Xw+cC9jsZhWqz1z5gyPx7t///6JEyfm5+cbGhp4PJ7FYlEoFBsbG1QqNRKJ/O53v1tfXwdV6vTp0yKR6Pr16yUlJVwuF4FAxGIxt9sdjUavX7++tra2e/dut9s9MjISDocpFIper5dKpUCbr62tqdVqv99fXl5us9nW19dJJNLExITNZquqquJyuQqFora2FgaD3b9/v7KykkqlfvXVVwsLC83NzRAIJJlMgukUg8EMDQ1hsdja2trGxsaxsbFYLFZfX+/1ejkczpMnT5LJJI/HIxAIMzMzcDi8pqbmwoULHA4Hj8d3dXUJhcKcnBwwP8ZisXA4DEbuY8eOLS8vu93u/Px8oMNgMBibzZ6enp6dneXxeFAo9O7du0B1otHoubk5j8eTnZ3d19f31VdfyeXympoaHA5HJpPT09MJBMLOnTuLi4u9Xm80GiWRSIFA4Pe//73ZbK6oqGCxWOnp6QgEIjMzMxaL3b17F1Rlu92uVqvVajW8tLR0ampKq9WC/+fjx4+BEEOj0WKxuLOzk0wm0+l0GAxGpVIDgQAajc7Ly0tPTwf/skAgAATE+vq62+0uKyvzeDzxePzXv/41jUb7+9//PjExsXnzZo/Hk5OTI5FIBgYGHA4HsJsCgYDf719eXkYgEKAgvfjii06nc3JysqWlRSaTqVQqlUrldrs3Njamp6ffeuut3t7e5eXlnTt3dnZ2wmAwp9OZkZEBLMVIJAIcDhQKRSAQuru719fXQefi8/l4PJ5IJD59+jQcDjc3N+/evRuFQgF/NhQKsVgsr9c7MjJy+vRpBAIhEAikUqlWq83Pz0+lUk6ns6+vb2hoiM1mE4lEp9PZ0dGxe/dup9PZ2dmZlpbG4/HAMNzU1HT16lUmkymXy4Fb2N3dLRQKvV5vR0eHWq1+44037t69e+HCBTabXV1dXVhYODExgcfjE4nE/Pz82tqax+P5+9//np6eXlZWtri4iEajmUwmmUym0WiJREIgEFAolI2NjZqamrm5ub6+vqKiInCR1tbWvv/+e4PBkJ2dDUYHn88XjUYfP35cVVVVU1MTDofj8TiRSMRgMG+88YbRaFxdXd28eTMej/d4PGazWafTmUymhoaG/Px8Go1WVVWVlZWVkZEB//Of/1xXV3f79u3p6WkMBpORkcHn80dHR4PBYE1NTWZmpkqlSiaTFRUVZDIZj8fH4/G5uTkymdzV1eXxeOrq6nQ6XTKZzM/Pj8fjS0tLDofj8OHDUCj03XffjcVi5eXlDoejsbFxbW3NZDItLCy88847Wq0W/BEKhYJEIk0m09zcHBaLBTeJy+XW19ePjIysr69Ho9FIJKJSqUpLS+12+/z8/G9/+1s8Ho9EIn/55Zfc3Ny2tjYYDBaPx+12+8TEBIfDKS0t9fv9WVlZt2/fHhgYqK6ufuutt8LhMBKJ9Pl8gUCASqWCmWh9fT07O5tOp09NTY2Oju7fvx8CgWCx2PLycuD6azQamUz2yy+/3LhxQyqVslgsOp1usVhSqZRQKDQYDJs2bUKhUH6/H9isKysrzc3NMzMzfD5fKBSazeaMjIyRkRGPxwOBQEwm0zfffBMMBisqKubn50tLS0E393q9TCYzEong8XiNRqPVaiUSCYfDkUgkFovF7Xanp6dDIBAMBsNkMsFZ93q9KysroVDIZDJlZmZWVFS43e5gMOh2u5999tlwODw5OUmlUu/duyeXy3fu3JlKpUKhEAqFSiaT586d83g8GRkZ4+Pjv/nNbxwOx7Zt28rKyphMpkgkKi8vD4fDZDKZSqUCaQL/8MMPg8GgXq9PJpNisbiwsDAcDuPx+I2NDaVSSaPRGAyGw+GYmJigUCiBQCASiRQWFo6Pj8disczMTI/HA2ZFt9vNYDAoFMrOnTvZbPZnn31mMpnefPNN4I2Ci7W0tOTz+TAYDPDdIRCIXC4HNkMsFsvJyWGxWFwud/fu3Wq1WqFQWK3WjY0Nm83GYrGysrIGBwf/8Y9/SKVSpVKZSCRKS0u/++67p0+fgvmiu7ubRCLJ5fJgMFhVVTU6Ojo2NvbCCy+0tLRcvXo1mUwuLS1FIpHdu3c/ffo0GAyur6/HYrH9+/ffvHkTxBxZWVmZmZl1dXVkMhkCgaSlpQUCgfb2doVC4ff79+3bJ5fLnz59Ojs7+/bbbweDQY1G09raWlJS4nQ6p6amEonE9PQ0lUotKir67LPPKBRKY2PjxsZGVlZWdXU1kOGgG7733ntSqfThw4dAHc/Ozi4vL+PxeJFIJBQKp6en29vbi4uLBQJBWlrao0ePgFvN4/HMZjOTyRwbG+vo6AAyUyKRjI+PAysP6BtwCa1W6927d5ubm0+cOJFMJiEQCDAvXnvttdu3bz/77LMajQaNRp86dUqj0QDxgEajwWArkUiAi52ens5gMOCtra23b9+uqKhIpVK7d+/u7OzMzMzEYrFpaWkej2dqagqFQgEbe2RkRCwW+3y+cDgMghU0Gk0gEHJzczdv3pxMJn0+X3Z2dllZ2d27d8+fP9/U1CQSicDo8eDBAwaD0dTUBHIfOBxuMBh4PJ7L5RIIBDQaTSgUIhCIY8eOicXixcXFmZmZjY0NEPckk8m2traOjo6//vWvUql0ZmYG6KeHDx8CR2FycnJjYwOBQFit1tzc3MLCwgsXLnz//fdbt249d+7czZs3I5EIg8EYHx+n0WjhcBikVj6f789//vOnn37qdDp3794Ng8EUCsWrr75Ko9EQCAQCgQABSm9vbygU2rt3786dO7lcLofDASFtUVERGPeArKPRaA6HIxaLeTye3t7e6urqp0+fWq1WLpe7bds2m81mtVo1Gg246xMTEy0tLRwO5/Lly2tra2azGQztwP3E4XBer3dsbCwrK4tKpRYXFy8sLIRCIVCorly58vjxYxgMhkajZTIZHo8HgqmhoYFGo8XjcavVevnyZZlMVlZW9tJLL0GhUHA0vV7vH/7wh/HxcQ6Hs3PnzsnJyXA4vG/fPjD2o1AoFAoFVDOIGIEtTqPR4CgUKi8vT6lURqNRt9vN5XLBbAmmUxaLZTQag8Egh8PJyMjQarUg3hMIBNFoNBQKwWCwhYWF0tJS8BPs379fp9Ndv369tbW1srIyHA67XC4qlYrH4+/evcvj8ZLJpFar9Xg8JBLJ5XIhEAiHw1FbW7u6urp3714ul7u6ujo+Pu50Ol0ul9Pp9Pl8u3fv/uijj956663GxkaQFUgkkuvXr4tEIolEwmKxfD6fTqdra2sD6r27u/vSpUulpaXvvPPOzZs36+vrLRbL9PR0Tk5Obm5uZWWlRqMBBs/Dhw8fPXp08ODBgoICEOFOTk5mZ2djMJhEIvFf//VfarW6ra1Nq9Xu3bsXmBZ4PH5paenhw4cTExMlJSUymUyv15eWloZCoSdPntTW1kYiEavVmkgkUCjU3NxcXl4ehULp6upaWVmBQCAg9Ha73Q8ePJBKpVVVVQaD4d133wXnErgGWCw2PT3daDReunQJKPGCgoKOjo5IJKJWq8+fP49Go9lstlAofO6559xut8PhCIfDIyMj1dXVBAJheXkZDofX1dWdOnUKnA8oFAqBQL755pvLly/X1NTk5OQQCITh4WEQgdntdiwW63K5IBAI8I59Pl88HgfCJRQKwVtbW7lcbl9fn9vt3rRpk1wuB7oGCoXC4XACgSCRSDo7O5eXlzMyMmg0mt1uD4fDQLhRqVSZTJaRkTEwMLCysvLb3/42Fot98cUXZrO5traWSCQC88disczPzwsEAo1GMzw8jEajcTjcgQMHSktLV1dXgYF24MABJpMZi8VGR0cDgYDL5UokEna7XSAQ3Llzp6Wl5fnnn29vb19aWhKLxZ9++imDwcBisWg0mkqlSqXSiYkJr9ebn58PQAexWNzU1JRMJkUi0f3790Fj8nq9CoWiqqqqra3t3gRFnIwAACAASURBVL174I9kZ2dXVVXxeDwUCpWZmQmi8MrKypdeegmDwRw9etTlck1OTtpstvLyciaTee3aNSCil5eXd+zY0dDQEAgEent7r1271tnZGQ6HeTye3+8vKipaXFyk0+mTk5NGo5FMJoM4yev1crlc0FNA0nb06FGpVIrH43E4nNlsjsViCASCQqEQCIR4PD46Osrj8cBvvr6+/pe//CUrK4tOp0ulUrvdbrPZMjMzgYeUSqUeP368vLwskUi2bNly8uRJCAQChUJhMBgEAvn222+vXLkilUppNBrgVEDeyeFw4vF4MpkcHBwElQaHw/n9/vX1dQqFEg6H9Xo9fPfu3Tqdzu/379ix4/nnnwfWOwqFisViEAiEy+W2t7fzeDwSiTQ+Pg6SFD6fD4VCKRSKSCQSi8VoNPrq1au7du3Kz8+/devW48ePT58+vbKy8n9pUyQSefLkyYsvvpiTk/PLL780NzdXV1eLxeLHjx/39fWx2ewzZ86kp6e7XK6xsTGTyQRIEavVymKx4HA4k8n84IMP7t27p1KpKioqPv/8cw6Hw+VyKRQKHo+HQCBUKhXMYnfv3oVAIGg0GgS2sVjMZDJdu3atoaGBy+UCI/z69etFRUW7du0C9jGVShWLxQUFBTAYLBQKFRUVTUxMXLhwYXp6+p133lldXW1vb9++fTudTu/p6dFqtT09PSqVKhgMvv/++7OzswqFAovFdnV1Wa1WkUhEJBK1Wm00GsVisUKhUKfT1dbWKhSKUCgERBUWi+XxeJs3b966devS0hIGg2ltbQUaORqN+nw+IpFIJBKXl5fj8XhhYaFWq52engbD9o4dO1wuV35+vkQiweFweXl5s7OzarX61KlTe/fuBeGlWq0uLCw8duwYgUCAwWCxWAwKhX7zzTcXL17Mzs5ms9lisXhychKYdWfPnp2eno5GoysrK+FwOBqNrq6uPn78OJFIAKMZgC9wIKAkEslvfvObWCwGErtYLIZEIolE4t27d4HgQCAQwLIlk8nApKqsrExLS8NisRMTE/39/UVFRVAo9Pz58xUVFWVlZXg8HgxRwWAQuIGFhYVIJLK6utrn89XV1S0sLHz88cdYLPbEiROgUFsslsXFxVAoFA6HTSYTBAIRi8Xj4+OfffbZ5OTkwMBAOBweHR1ls9kANOHxeGKxmEgkMpnM5eVlrVYrk8kCgUBhYWFRUVF2dvbDhw97e3vFYnE0Gs3Ozsbj8WlpaQKB4Pbt28FgsLS01OFwbNmyZXp6GoTvYKRaWFjo6enB4XBqtbq3t7ehoaGgoECj0eBwOI1G43Q63W73+fPn+Xx+dnb2+vr6tWvXgDmxdetWOp1OIpEmJydXV1eRSGRTU5NarS4oKNDpdE6n8+jRo0gkMh6Pe71ei8Wi0WigUKjP5wOqDolEUigUHA63vLwcDoeJROLExITP5wMidGZmRiQSbd68eXZ2FnyyUChUVlamUqlWVlZKS0vFYrFer9+yZUs0GpXL5alUKpVKQSCQ999/v7u7u7q6GoVCcblcqVQ6Pj6u1WqdTmdDQ0MwGIzFYvn5+WKxGMAiOBxuZWVFpVJ5vV6dTre8vAxns9nl5eW//vWvgYCHw+EwGAyJRFKp1NnZ2dHR0czMTJAFAEoKzGagvPN4vBs3bgwMDPz2t799+PDh999/L5fLa2trPR4PGo0Gw47RaLRarXg8vqysLBAIkEgkNBo9ODh49epVEolUXV0NnAY0Gj0zMwP0DRgWJBJJd3f3hx9+qNPpvvnmmzNnzhgMhuXl5WeffTaZTPL5fBBbU6nUmZmZ3t5egUDAYDBoNFokEmlpabFYLF1dXeBfLhAICARCbW1tIpEADuzIyMimTZuOHz/+6aefqlQqs9m8sbFRWVn56aefzs3Nvfrqq16vt7u7u7W1ddu2bU6nMysrq6urC/w++/fvb2trQyKRCoWio6MjlUqJRKLCwsIHDx6AFiAWi9fW1ux2eyQSYbPZwLUMBAJCobChoSE3N9fr9QYCgY2NDYfDAVwoDodjt9vj8TgEAgHaoqury2w2i0QiJpNZX18vk8kuXbq0uLhIIpHW19eTySSFQtFqtdnZ2Q6HQ6fTgRK1ZcuWubm5hoaGVCoFh8PPnTvX3t5Op9Ozs7NramqqqqpA43M4HHw+v6amBvi2gO4zmUxSqZREIlEoFBaLxWKxAM0DP3DgwCuvvMJisYDNDE4fAoHQarX37t2rr68HrgMSiQTVks1mNzU1AX/G6XSqVKrW1tbZ2dnr16+LxeLnnnsOZPdarRbUroyMjOLi4ps3b1qt1s2bN7vd7qWlJb/fr1KpiouLWSxWbm4uBoNZXFy02+1g1tdqtSCLf/vtt/F4/C+//OL3+/V6/dmzZ+PxuFqtFovF6enpAoEAAoH09fXNzs5yOBzwW+Px+IWFhc7OzpmZGRB4BgKB9fV1p9Pp8XhA+wf+7OLiIofD0el00Wi0ra1tY2Pj7t27kUjkD3/4w4MHD65cuXLgwIETJ06ArOrDDz+kUqkvvvgig8GYmZnBYDB4PP7rr79uaGjIysqi0WiPHz9GIpHRaDQajZaXlxcUFOBwOBaLBWyCQCBAp9OtVisEAvF6vXw+/4033sjJyZmZmVlcXKRQKE6ns6CgYHJyUqlUYrHYgYGBYDCYnZ0NgUBaWloOHDjAZrNBHglgjtzc3EAgwGAwVCpVW1vbwsKCXq9/++237927ZzQaW1paoFDo119/3d3dnZmZubGxEQwGPR5POBwGTqBarebxeCAERSAQubm5WCyWRCIhkciNjQ00Gg3sZqBK4e+++y5I7yKRCBaLhUKhBALB4XC89957PB6Pz+dXVFR4PB6Px+NyuUBeU19fLxAIVlZWbt68uX///tzcXCgU6nK5QJHAYrELCwsIBAKDwUxOTv7617/GYDAikUiv14dCIZ/PB0oinU7n8/kAPEgmkwDsAI6QRqPx+XxHjx6VyWRjY2PHjh1ramr64Ycf7ty588Ybb1gsFqvVumnTpmg0evfu3d7e3uLiYjgcDv7xRUVFQqFQo9EAEiUnJ6e+vl6n062srJDJZID92e12AJ8Cq00ulxuNxtOnT/f09GRnZ8/MzHzzzTevvfba7t27w+GwTCZ79dVXORzOuXPnJBIJgA3sdvvNmzelUqlEIkGj0R9//DGgwmZmZtBotEgkysjIMBqNwBiNRCJwOFyv14N5Uq/XLy8vFxYWZmVllZaWqtVqh8MxMzMDqp1SqRwYGFAqlSKRCIFAFBQUHDlyBHjQt27dysjIiEQiubm5Bw8eBHF3LBYDpGNbW1tubu709PT/+3//LzMzc2Vl5d///ndFRQUejweD+tTUFEBqQMmRSqUCgaC0tDQQCBiNRmCQ0mi048ePi8ViYEphMJipqSn4m2++yePxEokEwKxBl/nxxx+B9s7NzU1PT19dXR0bG4tEInw+f/fu3VKpNBqN/vzzz0ePHmUwGOvr6xwOh0QiLS0tqdVq8DHgcLjP53vhhRd4PB6ZTJZIJNu2bZubm1tbWxscHBwbGxMKhVQqdXV1FQqFxuNxvV6/uLgIg8FAvlNfX3/8+HGAh0EgkKWlpcrKSpvNNjw8fOrUqbW1tcnJSbVaPTQ0BEYwoVBIIpEKCgqEQuHExAQILXNyctxud3Z2NrCAV1dXwclmsVgrKytSqfTUqVMKhaKwsLCgoKC9vV0kEqlUKqVSWVlZWVNTA4FAZDLZK6+8otPpmpqaWlpaEAgEh8Oh0WgKhYLL5QLX8vr163Nzc7FYLBqN4vF40ATv3LlTVVXF5/OTyaRQKLRYLAaDISsrC/xfDAbD1NRUVVVVRkZGTU3N1NTU3Nzc9evX8/LyoFDo0tISlUodGRl54403jhw5AjLeTz/9NC0tDQaDeTwet9vN5/PLy8vn5uaWlpaKi4ubm5txOJxAIBgfHwfpdGdnZ1lZmdvtRiKRoORAoVAOhwPkJgKBAE6BUqmcn59PJpMLCwsEAkEgEDQ0NJDJ5LKyMrPZvHXr1r1798JdLldxcXFaWprf7wczyCeffNLZ2fn88883NzcDL2R4eDiRSBQUFFRUVFRVVcFgsJs3bwJ8BHjkOp3u888/3759e2Fh4eXLl9lsNgwGO3DgACD5AHsWi8VkMtn8/DxAiFOplNfrDYVCq6urXq8Xg8FEIpGRkRGg6g8fPjwyMtLS0gIwaRKJVFZWlp+f397efu3atf/8z/9UqVR37txpbm4mk8k4HI5AIMjlcrFYfOPGjcuXL1dWVoZCIYA79ff3E4lE4JhpNJpNmzbNz89nZ2cfPHiQRqMFAoGbN29u3749JydHpVKB2J3L5UKh0Ly8vLfffjs/Pz83N/fChQvBYBCwBJ988gmXy21qaoLD4Z9//vnKykpFRQWDwaioqNDpdMDx43K5s7Ozu3fv9vv9SCRy8+bNZrNZoVAAMHvTpk12u31kZKSqqopGo6HRaGDODg0NaTSa3Nzcc+fOBYNBYD+63e7vv/+eSCRmZGTk5uYCwatSqeh0Oo1GQyKRZ86cGR0dzc3NTaVSAwMDPB7v6dOnPB5PIpHE4/G0tLTq6mqQBAFmdnl5ORqNbt26FQ6HC4XCjIyM/1PNtbW1oH0D6Tk6OlpdXQ0XCoWffvppMBjcvHkzEons6uq6ePHioUOH2trawHALQHM+n+/1euvr6wkEglqtDgQC4KAlEgk0Gn3p0qVoNEogEMRisUQi6enpWVpaevbZZwkEAjgfyWQSg8G0t7erVKoXX3wRcFzRaNRqtYJ6E4lEgOCgUCj19fWrq6vBYHB2djYWixUXF9NoNDCzzMzMKJXKrq6us2fPghCETCanpaVVVVXR6XTgDuXm5ubl5XE4nGg0Ojs7i0Qix8bGGAxGPB73+/0g1jp9+jQWi11fXwfxyo8//lhZWbmysrK4uLhr165Hjx7FYrGff/65tLT0hRde6OjoALbExMSEQqFgMpmvv/46FAr94x//uLq6um/fPqB4QBduamoC7FwymZycnKysrGQymS6Xi0Ag+Hw+AoGQnp4OkO/FxUWtVotCoXp6evbs2dPS0jIzM7O6upqfn89ms3ft2mU2m7/44ou5uTkQD0GhUKPRCPYeioqKFArF6OjoH//4RyCclUplMpl8+PBhV1cX8HvS09PNZjOwYdRqNZPJBNrWbDaz2Ww+n2+xWKqrqwEEEo1GoVBoXV0di8UCAgWHw4XD4bGxMfiuXbu4XO7Tp09tNlsikfjiiy9KS0t37dpFIpHW1tZ++OGH4eFhcKVqamrIZLLP5/vwww9ZLJZQKASLM++///7NmzcZDAYwbg0GAwaDAUtTmzdvxmAw0WgUjUZfuHAhHA7v37//4sWLAHN69OgRGo12u92hUAgofDCANTc3BwKB/v7+ZDLZ3d2NwWAqKytHR0cvXLig1+uvXbt26NChM2fOHD16lEKhzM3NNTY2crncH3/88dGjRzAYDETt5eXlIBCYnZ0FZ12v14NsUy6Xg4zKYrGQSCSgh65cuSIUCmUy2eDgIMArFxYWjh07ZjKZdDodoK+BWXn8+PHV1dXPPvsM8EEAXV5bWyspKcnPzxcIBKDYmEwmlUql0+mysrLsdvvjx4+9Xq/RaATaH4PBUKlUQOpzudwTJ06AjgwSuJGRkWQy2draOjU1tXv37vT09IWFBbDK4Pf7jx8/7vP5TCbTW2+9BYaGu3fv/vDDDxAIpK6uDjiHJSUl6+vrWVlZQqFwdXX18uXLWCyWQqHodLqnT5/S6XQmkwkqDZVKBUwZSBLodDoowAgEgk6nIxAIeFVVFYPBADHKL7/8IhQKCwoKZDLZwMAAcOtAwLhz585kMrm+vn79+nW1Wn3v3j1AsLW3t//73/8uLi4uKCgA4cvk5CSBQMjMzJybm5uZmWlra0MgEOfPn8/OzgZ+0e3btzMyMrq6ujgcjtfrBRduY2PD5XKx2eyioiKz2UwgEKhUajKZBCx7PB5PJBIDAwOnTp3atWsXkUjMz8//y1/+8swzz4C5SaVStbe3l5SUFBcXazQah8MBg8GgUKjb7QYFiUAgAAbljTfeGBsbczqd4CcjEomA78rPz1coFGw2m8Vizc7O7tixY8uWLR999FEwGAQXi8Ph1NXV7d279+nTpx9//LHb7X7llVcKCgoGBwc3Njbq6uqUSqXNZhMIBO3t7ePj436/n0AggPwciH2Px9Pc3CyVSh0Oh0AgsFqtBAIB+Irz8/NYLBYCgQBq1W63j42NDQ0NnTlzpqysDAwyRCIR/A1TU1M6ne6ll16iUql+v99isQwNDaVSqZqamkgk0tPT86c//Wnbtm2BQIBAIIBebzQaYTCYWq0GY4FAIAAUI5vNRqFQNpsNiURGIhG5XI7FYsPhMEDNgQ8J53A4RqMRgUAABm5qaorBYLS0tExOToI6r9PpSkpKsFisXq+fm5tTKBTp6enNzc19fX3t7e2PHz+m0WgVFRUg3LJYLO+99x6XywVg6cTEhNPpNJlMoVBIJpORSKR//OMf1dXVLS0tYDMMsEher5fH48FgsGeeeSaRSKhUKgQC0dLS4nQ6Ab+flpYGQuAXXngBoH5isZjNZr/zzjs7duwA2z2gHwUCgczMTBqNptVqgSiTSqVgQaGqquqPf/wjg8FIS0uDw+F3796VyWRg94lMJqdSKaVSOTw8DPh4o9EIhguhUPjiiy/6/X4ajXbo0KFAIPDFF1/MzMycPn26rq4OgC+ALgNYv16vn5yc3L59e11dHQCYyWTyysrK+vr6kSNHdu3aFQ6HZ2ZmCASC3+9vamoChLPL5TIYDHw+f3BwsKKiQq1Wk0gkwJT4fD6VSlVZWbm4uAiFQhOJxLfffvvPf/6TSCRGIhGTyaTVavv7+0Uikd1uz8zMlEgkzc3NTCbTZrNVV1dTqdT+/v5EIlFdXZ1KpYAvt3//fp/Pt3//fjCBplIpq9X69OnTtrY2KBQKhEEikQBIJby4uNhms8HhcBANAKp0dnY2Ho+bzeZIJAJSwXg87nQ6b926xWazCwoKGhoa5HI5SGqQSKRUKsXhcGCp4plnnikrK4tEIvX19QAAgEAgYKf0ypUrDAbj5MmTwBp3u91kMhmNRlssFqPRCGLe0dHRl156SafTPXnyBKjOxcVFm82WnZ0NNpr4fD6YJFksVl1d3eXLlw0GQ3V1NYh+9Hr9gQMHwDYhsB0BVLFjxw63252ZmclmszMyMsDSpUKhAIUkkUi0t7eHQiEikTg4OHj06FEqlTo6OlpSUoLD4YDaB97Jf/zHf1gsFiaTOT09DYKYWCwGlqzgcHggEDCZTC0tLSBMz8jIWF5eNplMFAplx44dzc3NAFGQy+WPHj0SCoUgKAaTFwiwysrKAE2dnp5uMpkUCsXKysrJkyevXLkCyn5HRweZTD506BCwaEG9AWcULDt6PB6n06nVan0+X2ZmJgaDuXbtmsvlqqioqK6uvn79eiwWA3p569atQJlisVg6nZ5KpfLz88E2bjgcBih1KpWCy+VyOBwOzGygh6urq/v7+0dGRjAYDCCnwa6sSqWiUqnZ2dkymYxIJCaTyfLycgaD8cMPP8RiMYfDsXXrVolE8sEHH6Snp9fX1zOZzJs3b8JgsNbWVqATp6enX3nlFSaT6XA4hoeHDQbD2NhYMpmMx+M7d+6sr6+/evXqiy++CIfD7927Nzs7q9PpwP2emZkBqS+IIYRCIY1GA7jU1atXMzMzeTxeKpXSarUvvfQSYNDLyspMJtPs7Gx+fj7wnktKSjo7O/Pz8w0Gw40bN/r7+9VqNQaDkUqlfX19LpcrIyMjKysLWI27d++m0WgjIyP//Oc/wfoCk8n805/+5HK5ALSmUqmuXbsmkUjA6Avy2zt37mzZsqW6uhrYZQMDA3w+HwKB7Nq16+jRo3q9/h//+Ed+fn5xcXFmZubPP//MZrO3bt0KGCWXy7Vp06Y//elPIE73+/2g96WlpcXjcfAJnzx5QiKRKisr2Ww22A5EIBCrq6vFxcUOhwPA3hgMhkwme71em83W0dHR2dl5584dvV6/sbERCoVcLldlZSVwpcvLy6PRaCKRQCAQarWaz+cLBALgQcRiMTQaHY1Gg8EgPC8vD9yD/v7+4uLiRCLhcrmAAn/zzTdff/31v/3tb3Q6/dlnnx0fHycSiXK5nMPhuN3uZDK5uLg4ODgIIga/39/Y2HjixAm1Wv3BBx9s3bq1s7NzY2PjhRdeiEajw8PDAwMDx44dQ6PRy8vLAKM3GAxgpuByucePHwdbLRKJ5KuvvhoeHj558mR2drZWq9Xr9bt27WpqapqZmREKhYWFhYDpHRkZ+fvf/w46NyizZrO5ubkZlEckEllaWrqwsPDTTz8dP368sbERYCJarXZkZEStVns8ni+//DIrKwsgAVKpNDMzE2BTVCr1/v37TU1NmZmZnZ2dfD4fSKjV1VXgniGRyG3btikUirm5OaFQKJVKV1dXp6enxWIx6BcAgoxEInl5eeBQwuHw4eHheDw+Pj6elpYmFotLS0uB7VtcXByLxWg0mtlsVqvVTU1NoDFhMBgejzc+Pm4wGMCK6+9///ubN28CNCSVSgEkT6PRBIPB4eFh0GHJZDKHw0lPT2ez2SUlJaCr7tixY3l5+cGDB3q9nsPhhEKh/Pz8nJwc0FbgcHh7ezuRSBSJRMAjBuIPHBd4QUHBli1bwBybn58PHhSIx+OnTp06efIkhUI5fPjwF198MT4+3tzcDJInsEMVCoX6+/u1Wi2Px1tcXCwvLwebLzt27Jifn//xxx8RCMTmzZtB+7xy5crBgweJRKLJZLLZbE+fPl1eXl5YWABmCQaDuXTpUmNj4+bNm8+dO6fX659//vn19fXZ2dnh4eE9e/YcOHDAYrGAwgN2h548edLf319RUSGRSJaXl0E/0uv1fr+/qqoKiUTCYLBEIpGfn59IJGZmZnJycsCkY7FYnjx5gkKh3n333dra2n//+99KpZLFYgEDEDxoIBKJWCyWSqUikUgkEunKlSstLS1ZWVnhcHj79u0QCOTJkycUCuXIkSMgxoJCoUNDQ6WlpcD4b2xstNvt9+/fr6qqwuPxSqWSTqf/8MMP0WgUiIC+vj4CgQAUXl9fn9ls3rJli9/vTyQSfX19y8vLMBiMy+WCAU0gEICN6LKysnA4rNFoAAAFKrFWqyWTySaTCax1PXr0SK1WA8QC5ORkMhlsk8RisUQiQaPRpFIp2BAANCQcDne5XMvLy2w2GyjCYDAIZrdUKhWLxeDbt2+nUCiPHz8GkhscHC6X+/LLLwNUGovFlpaWms3mH3/8saioqKGhYWJiwmKxgBiQy+Wq1WqARrtcLq1WC1aCJRLJ0tISkUgkEAiXL18uKipqbGxEoVCgv9rt9tXV1UAgIJFITp48abPZOBzOa6+99v7776+srLS2tq6srNhstpGRkUOHDp0+fdrr9X7wwQerq6vbtm1bW1tzu90zMzO1tbUAsxAKhTwej0ajsdnskZERhUIB9nJBfgaIip6eHo/HQ6fTvV4vMDH37dv37bff3rlzRyqVvv766xAIBGz6NDY2kslkg8GgUqnGxsaOHj3a19cXi8V4PF40Gp2eni4vLxeJRCBGP3r0KKiLYNkHBE86nQ6cfuBJgI297du3z8/Pr6ys7N+/32q1jo2N0el0sCA5Pj4eiURA1pNIJLq7u3fs2AG2dbhcrtPpFIlEe/fu/fbbbyORiMvl2rNnD3iXRalUjo2NjY6Orq2t7dmzp6ysjMVigf67sbHR398/ODioUqkMBkMgEFhYWCASiVKpNC0tzWKxHDt2DIVCBQIBoLitVmtVVRXA7cDQC05CMpmEHzlyZHJyEtjhwFSZmJiQyWS7d+8GBcdsNoOvAlafi4qKQAg3Pz9fWFgI4hvAW5BIpPLy8ocPHxKJxNnZWQqFgsVih4eHYTDYkSNHYDAYAMm0Wq3VavV6vSUlJWfPnvV4POCRgRs3bgwODsrlciKRuLa21t3dnZ+f/9577xEIhG+//ValUu3bt2/nzp1SqbSzszMSiaDRaGAtYzAYDoeTTCaNRmM0GoVAIOvr66WlpdFo1OVyAe6ko6PD4XAgkciMjAw4HF5eXv6vf/2rq6srFAo9//zz6enpJSUlcDi8q6sLKNwrV64kk8n09HSlUrm4uIjBYFZWVoDUdzqd5eXlEAjk8ePHi4uLEAgkLy/v4cOHGo0mLy8PkLkCgcDlcqlUqqysLOCcstnsmpoakBvs2rULTNojIyNarRbAWSaTCUCf+fn54HGKvXv3xuPx9fX13//+9wQC4eHDhwUFBaBMAqIgPT0dbNrl5ORgsViJRBIMBuPxeHV1NYhEtmzZAmAgsLANPB7wQs62bdtAdI9EImOxWEdHR1VVFRQKRSKR4GkgAM4lk0k4FAqVSqUoFAqQhUqlsrq62mazPX78WCaTMRiM0dFRvV4fi8Xm5+fB00LXr1//n//5H6lU2tvbu7GxUV1dzeVyNzY2mpqanjx5AogHsDwN3nXJzMwEmtRsNt+5cwfkMtFo9MyZMyUlJX/9619PnDgxNTV16dIlsMHMYrGAHXL+/Pm8vLwLFy5MTExs2rRp27ZtqVTqyy+/zM3NBS8sbGxscLncoqIitVptMBg2NjaqqqqamppGRkZmZ2czMjKADPr+++/xeDwKhTKbzRgMpra2tqury+l04nA4CoXy6NEjKpVKIpHAQxI3btyYnJwEthK4ZyUlJWw2e/v27T/99BNYjbx06RKYscH25fT0NJjMCwsL9Xq9zWYD7iSHw9FqtTgcTiwWRyIRoPmUSqXH46mpqbFarcBwy8vLM5vNY2NjIFX2+XylpaVer5dIJHZ1dZFIpFOnTl24cAHwe1Qqtb6+HgqFgr0No9EoEolSqVRjYyNgV0FbWVtb4/F4OBwOLFkCbhkCgTQ2NgqFQrvdLpfLATWWdKDqlAAAIABJREFUSqXAawMAHIvH4z6fD4vFwmCw/3+Hd+fOnQwGA4fDzczMgEIERMPIyAjg5EKh0NraGuCDzp8/f/DgwZKSkk8//RQYc1AolM/nR6PR0tLSvr4+oOT9fn9bW1ssFsNgMDKZDLxbZLVa5+fnwV3hcDibN29ubGz8/PPPwRbF119/fejQIYvFAhwklUp15MiRrVu3fvDBB3fu3AEbA2Qy+bPPPgPPrTAYDLB8xWazGQzG3NyczWbbu3cvi8WKRCLgtQsQaX733XcFBQU7duwAW2GBQEClUoGFAI/Hw+VyY7HYTz/9xGAw4HA4WMt78uRJTU0NCoUikUh1dXWPHj1yOBzAG4XD4Xw+f2FhwWKxOBwOuVw+MTGxa9euV155BTyFBaIro9GYkZGBxWJXV1cBJIXD4XQ6HRiaJiYmFhYW0Gg04CgsFksikQB8xsrKCg6Hk8lks7OzJpPp+eefr6qqyszMBCEReEZrY2PDaDRyOJxUKjU2Nnbw4EEEAgEWOOBwOAaDIRKJUCg0IyMDjUYDOgw8HGI0GpPJpMlkksvlEonk/8jnnp4eJBIpFov/P57ePKrtOt//hySEkAXIToCwhCVhJ2xlh66Ulu6tdrNWW62jnc6o7Tj3zJy5cz2dmeu4XPU4aqvW2lqt3Qtlp6VsYd/XsIZACAlZCElIQgj5/fH8fds/PD2eI5Lkk/f7tTyfjydKYKfTCXvlrVu3vvrqK2JsbGxgYCAE1maz+YMPPsDVHhgYODs7W1VVtbCw4OfnNzw8/Oabb0IuFB4eLpFIvvzySwaD8fbbb5eVlTEYDAwxvb29W1tb4+LiqFTq+vo6QDQQIsjlcui7HA5HcXHxW2+99cUXXzidTj6fPzo6WlBQsLKywufzyWQyPH/nz5//6KOPGhsbY2JimEym2+2WyWQGgyEkJAS+EhqNBmIT9h35+flpaWkAFcGPI5fLZTJZbGzs3r17bTYbtj96vd5kMv3lL3/x9vZmMBhOpxNTThzRc3Nzdrs9Nja2rKwMDpT6+vq+vj4ajSaTyXbu3AngVlRUFMaUIDplZWU1NDR0dnaKxeKwsLCVlZWRkRH88OTk5J6eHoyPDx48WFlZ6ePjY7PZ9Hp9cXFxcHBwa2vr2toal8vFYFen062trU1PT9vtdg6Hk5KS4unpqdVqv//+e7FYTCAQoqKizp8/T6VSKyoquru7xWLxsWPHAItLTEyk0+l8Pn95eZlKpXK5XLPZHBYWRqPRNBqNUql0OBw2m83LywvOexwta2trdXV1mEySyWR0vD4+Pp999ll5efnrr79OPHfuXGFhoUwme/jw4dmzZ4uKishk8tzcXEhISGBg4MLCgl6vBzHm5MmTwDSsrq7y+fySkpLJyclPPvkkOTk5MjKypqYmMjISXkKtVotnDpJ3Fou1sbHR39+v1WppNFpkZOS7777b1NQ0NTW1adOmxsbGvLw8nB92u31xcXFlZeXPf/7zjRs3ysvLt2zZglZ8aGgoJycnOTm5trbWaDSGhITIZLJDhw6trKx0d3cLBIIzZ87g1wMOCuiilZUVaKjUanV8fPytW7f0ej3kavCyUiiU+fn5+Ph4Lpc7MTEBw+bo6Cg8ebOzs/fv3xeJRH19fWKxeHx8fHp6WqfTxcbGVlVV5eTkkEikgoICLCvg6dXr9ePj4/7+/lBt+vn5USgUT09PyFEzMzO/++47qEAgltPpdD4+PsnJydDuY62NIfWpU6fkcvnMzAxsp0QicWVl5euvv6ZQKAEBAYmJiQ0NDVQqNSsrq7q6Gsw3Go3m6+vL5XL9/f2hoaHT6VarFRvQjIwMBoPBYrEGBgZ++eWX5ubmsbGxvr4+KpUaGRmJSSuJRJqdnb1y5QqBQHj77bfDw8OJPB6vr69veHjY7XYzGIzZ2VmxWCwQCKCPggWBTqf/5S9/gaMLollUOsA4PXr0KDU1VSKR1NfX2+12SPUrKyutVquHhwecUTKZbGBgYGZmxul07tq1S6lUPnnyJC4uDiyeyclJKpWK+qOvry83N7e1tbW8vDw2NjY+Pn5paWliYiI9PR1zVRqNplaroSKbmprasWNHSEhIU1MThOD4CjY3N1Op1Ndee02tVvf29spksgsXLjQ3N3d0dPB4vD/+8Y/z8/PDw8MAQAQFBWk0msHBQZPJVFJSApHbK6+84na7y8vLRSLR4OBgWlra4uIixGag8WCUubq6eu/ePTDApFLp8PBwU1NTSkoKnJUYn79wOnV3d5vN5oKCAixouru7JRKJVCrlcrlWq7WzszM0NNRkMgkEglOnTmVnZ3t4eHz11VcQeHd3d+NRO3DgADrekZGRrq4uTD5NJpNCoSgtLW1ublYoFAqForu7m8ViKZVKjUbT19cHzQYABXAObNq0CWczhm+7du2C1buuru5vf/vb9PR0VlaWWCx2Op3EzMxMEolkMpneeOMNm80G1yGfz8cvhIGdy+W6d+8eTgWbzUYkEr29vSkUis1my8rKys/P//HHHycmJs6fP6/RaAYGBgD5UyqVPT09ZrN5YWGhqqpqfn7ebrdfuHBhy5YtP/30E+7U9vZ2Go2GyZvNZhseHj506FBDQwOUPnv37jWbzZWVlRQKpaCgAMw0lH5eXl6HDh0aGhoaGhras2ePWCzu7u6GyK+ysnJ1dXXz5s3Q+kLhNzo6CmplU1MT5L61tbVyubyzs5NMJk9MTCiVypycnMrKSmhT1tfXBwcHcaDGx8er1WofH5/CwsJXXnllY2Ojra0N3C8oRsViMYboIyMjAQEB6KoCAgIgBPbw8JDL5SkpKevr60Kh8OWXX15aWrpy5Qq63KmpKbFYjPuLQqH4+vq+9dZb0NERCISqqiqbzdbb22swGLy8vAoKCvLy8vAxP3jw4MmTJ3ifIfkDhmpgYMDtdlOp1KampufPn7e0tKhUKp1Oh+N/aWkJfIO2tjaI2aRSKbZ9PB7vu+++++CDDwQCwb59+zIzM7HMI164cEEmk73zzjtmsxnCLR8fnytXrggEArFYLBQKMSYJCAiora2lUqmwOOORpFKpa2trTCbz4MGDMzMzV69eBSq0o6NjbGwMgIaOjg6VSmU2m729vfPz8//0pz/9/PPPDofjzTffxJaht7cXBKyqqqqDBw/SaLSampqEhISUlBRfX9/r16/7+/vHx8cD10kmk1taWvr6+o4dO0ahULD7vnr1qkQiOXLkiEwmq6yshML+7bffXl5eptPpwC7gFzhw4ACDwXj+/HlXVxcUaBEREdPT0+hjm5qa1tfXxWIxlUqtr6/HMm/Tpk1YOMfGxgYHB5PJ5M8++ywmJubChQsqlWp1dTUsLMzX13dsbGx4eLi9vV0kEoWGhiYlJaF7BKiTzWbL5fL5+XloNwGrBMAjMTGxqqqKQqH4+/uvrKwcO3YMvB3A1ux2+8mTJ+vr6202G6y/OTk5YPXAdg83EPqRsbExk8nU0tISEhKi0+lCQkKgjiYQCBhE4Yzf2Njg8/lRUVGLi4smkwljZTab/Z///AcGhqNHj2ZlZQGg6Ha7iWfOnGEymUwmU6vVAj720UcfPXv2DIUPAEioX5qamn755RcY4ZlMJrbtaI02NjZyc3PlcnlOTs727duDgoKeP3++bds2nM+Dg4NQdKamplZUVPT29n7wwQfYoaDe1mq1o6OjqampRCLx2bNn8fHxwAh8++230FZlZGSAtIEmdn5+fm1tjcPhQCkXHBxcX1+/tLQUExMDbND777+/sbGBw+m3337r7+8/e/as2+1ubm4+c+aMl5cXdrDp6emzs7MwhrW1teFQhP4+ICBgYmIiNTU1Kirq3LlzarXabDZDUx4ZGXns2DG03PHx8WNjY9nZ2ePj48A3OJ3OTZs2wcfm7+8PLQ+AmYmJiWtra48ePVKr1bj709LSIKtIS0tjs9kJCQne3t5jY2PT09OgnAmFwrCwsC+++GLTpk0hISGFhYUYgMpksi+++GLv3r2HDh2Cv8vhcEgkku7u7sTERIPBAJNKRUUFHhez2Qx/V25uLlgy+ARB+bXb7Z999llbW9urr7566tSpmJgYPz8/PB8MBoMYHBx89OjRO3fubNu2jUql/vrrr+Xl5WKxOCYmpqmpSSaTpaWlMZnMkZGRH3/80d/fH4YXwELg1MAk7vvvv8dG1+l00ul0wBcaGxtHR0fn5+djYmL++te/YvaQnJxss9mA+FleXgaw1maz7dmzx2g0+vv7h4WF7dy5s6qqanV1lcPh4HFBBdDf3+/h4QH95sTExOLiYlxcXGBgoIeHR3Nzs4eHByTsUPt5e3vDWQla6/79+8fHx4eHh9fX18E0czgc+F+AupyVlbW+vj4zM4PzPzAwkMlkRkdHp6enp6enLywsfP7551lZWUePHsUcOT8/n8PhQNV25syZAwcOlJaWMhiMmJgYNFyQVQNYjZ5Ar9dDVObh4SGVSu/cuYMBHRyNeAqhEWaxWKOjowqFgslk3rlzJy0tDS2C2+3GGkWhUEBts7CwkJub6+PjYzKZysvLfXx8WCwWVrBOpxMyAyaTaTAY3n77baATQWmD70upVD5+/Hjz5s0XL17cs2cP3FkYmqHiJNbV1bW0tGRnZ/P5/GvXrn333Xd79uxJS0trbm7u6uricrmDg4MeHh4fffQRUElSqdTX17eqqgqQRjwlgBdmZWXJZDJvb+/p6enu7m6j0Tg4OAiDuEgkEolEEJG4XC6FQtHV1YXZgMViUalUeXl5v/32G4/HCw4O3rp16yeffLK0tBQXFycQCLCqpVAoTU1NL6gkbDbbYrHAMQYGEDBr27dvz87O9vb2djgcX331FZlMfvfdd9Vq9Z07d9bW1g4fPjwwMLC4uHj48GGdTjc9PZ2WlhYUFDQ7O1tcXMxkMp8+fYqB5rZt28xmc3FxMXA0YrEYeOqEhAQikTg6Orp9+3ZQK+vq6uByQN/L4XBGR0epVOrIyAh4mMPDw7t37/bx8dHr9UqlEgU4DlSNRoMjc25uDrDJyclJGP/x5qempnp6etbU1MTFxU1MTIAk6HA4ICAHZAtlO4vFam1tBQE1JCSEQCDweLysrCysWlQqFcR7gINAtgi5a19f3549e4KCgvCE/fjjjwACLi8vUygUAoFA3Llz57Vr1zIzM8fGxr788kuRSHTz5s2MjAxvb2+VSoWVb2dnp8lkOnTokEQiodFo4EA+evRoaWkJM/ivvvpqx44dPB6PSqVWVlaur6+DyQnRIZfLtdvtKysrbDYbNEg2mw2HFUDpXl5eMzMz2dnZAwMDu3fvnpqa6u3tBU+YwWAQiUQikVhWVqZQKHg8Xm9vL2wZ6+vrcI1Dr2s0GqlUalFREYvF0ul0//Vf/wW+MahUHA7nxx9/1Ol027dvhxYkIyMDNQdspy6X6+7duy6XC23q9PS0SCTS6/WbNm1yu91XrlwxGo0ffvjhr7/+urKysnXrVlht29vbsfe+desWmOvnzp2Ty+UdHR3R0dEymWxpaSkiIqK2trazsxPqoebm5tDQUK1WazQafX194+LiMFLCdASSF4wcsYd78OABpFKRkZGYPsOWffPmzdu3b3t5eQUEBACED8MEgUDAq8YwcGNjA6PFjY2N999/326322w2nBBWqxXH5+9+97uYmBjIPNLT081mc3t7O4wdnZ2dxMTExPj4+J6enrKyMuxN0tLSeDxeYmJidHR0fX29SqXasWPHpUuXRkdHPTw8goKCSCSSxWKpra1FTfDw4cMnT55s27ZtfX0dGN3R0VFMQSB6YLFYH3/8Meyfbrc7KipqfHwcko719fWenh4PD4+8vLylpSUGg1FZWenn50cgECwWS2hoqEgkghZOq9VC1iUUCjHPRZHk4eGhVCrpdDqevB9++GHTpk0PHz7s7e3FalSr1UqlUmi0hoeHZ2dn8ak4HI6CgoL19XXst+BkAfNTqVSq1WqpVJqXl/evf/1LLpcrlcrc3Nxt27aNj48rFAoMXkdHR6Ojo69fvz4yMpKUlPTHP/4R8pTDhw8PDw93dnayWCysfpxO5/T0dHR0tL+/f1ZWFq5IDDTT0tJYLFZXV1dbW5tCoejr69vY2LBarbt27aqpqamoqBgZGYHr55VXXomOjrbZbDQabWpqCh+HUCg8ffr0sWPHMjMzc3Jy2Gy2j4/PxsbGwMCAxWKZmJjAPa5QKDCnWVtbc7vdDocDoiFoVjIyMlBW0ul0gUCQmpqam5ublZU1MjISEhJCBA0gLS0NX1aTyXTr1i2JRBIaGhoYGJiWlkYikaqrqycmJrKzsyF5FwqFjx8/NhgMxcXFPT09oF5dvXoVi36tVosi32w26/V6Go32+9//PjExkclkJiQk9Pf39/X1geSnVCrb29vPnj0LBENgYKDFYoEvi8lkgqojkUiAmMrNzcW57ePjI5VKwQSApiE6OhonP+7pjo6OoaEh1HfYVjQ3N6elpQEsg3MLLffMzMyWLVvm5uYePnyII+3kyZO4KwsKCk6dOjU7O1tSUlJXV6fT6cLCwkZGRh4/fhwfH+/r6wsra1tbG95xNputVCoXFxcXFha2bt2akpLS1tYWGRn50ksv1dfXT0xMSKVSEM87OzvlcnlISIhYLJ6cnDx9+vTg4GBHR8eJEycuXLgQFhYmlUrhszKZTLggaDQahUKx2+1gpMKaj4LPZrPt2rULBls2m52UlFRQUHD48GE8MTqdbnx8vKKiwtvbOyQk5OLFi0+fPm1oaIDdC97d/Px8iGBgZNFoNDil3G438NRElK8RERHJycngqYWHh1+/fh2rJhaL1dTUxGKxPDw8Hjx4cPr06fb29sbGxvHx8dTUVH9/f1BZ8I7Pz8+r1WowXzs6OtbW1qCbf/nllwEp8fHx0Wg0arWaRqM5HI6qqqrt27dzOJzBwUEajQZn5fbt2+GiTklJWVxc7OnpGR4ehu7Q39+fQqHMzMxsbGxkZmaCFJiUlGQymaDzLikpWVlZwU0UERHx8ssvu1wu2PLUanViYiLc1ZBd/v3vfxcIBD09PcDuent7x8XFabVaJpOJOABMX0wmU1FR0fj4eFhYWGlpqVQqNRqNERERy8vLFRUVVqs1PDz87bfffqHPTUxMbG1tTUlJ2bp1a21tbW1t7dzcnFQq3djYOHv27OPHj1GvsNlsl8uVlJQkFAorKyt1Op3b7c7Ly0tJScHYFxBzEonk4+MjkUgQVALHssFgkMvlQqEQ3MqdO3fizkWGCSYxOE5yc3OlUin2HufPn09NTa2urk5KStq2bVtERER/fz9uNIjNPDw8sLjAEQ5JpUgkIr766qsdHR16vT4xMfHJkyd5eXnLy8tBQUHj4+PV1dVUKrW5ufnDDz+EOEWtVmMCCC0I1FNOpxO7GJvNRqfTgRxFRZmRkfH+++/bbDY4jh4+fCiTyb7++uva2lqYzzIzM8fHx8lkMo/Hq6+vB1IROSF+fn7R0dFzc3N4PjBmYLPZAFrOzs5yOBz457BK5PP5paWly8vLKysrEokEcSWY/z579kyv18vlcqCJ2Wz2sWPHRCKR2+3+8MMPCQRCWlpacnKyRqMJDQ2lUCiwUysUCjabPTo6ihOrq6vLbDYHBwfj7gDJdOfOnUeOHImMjJyfn4f4r7m5eXBwcH5+3sfH58iRI1ALWCyWkJCQ+/fvgzaYnJzs7e1dWVk5MzPT19cH3gSXy52fn1coFDU1NZ6enkNDQzabTSAQBAUFiUQiqVQ6NDS0urrq5+cnkUgaGhp++OGHwMDAvLw8yBuwkwMSBjZsbLbv3r3b3NwcGBhYUFAQHR396NEjNpsdFxdns9kMBsPa2hqOZ09PT5vNhomX1WqFuXdpaYnP5xO/++47mG9lMplIJDp8+HB0dDSYXf7+/jdu3NizZ090dPRPP/2UmJi4vLxcVFREoVAeP34cGBiI6nV5eRk+H8h9l5aWgEV3u91vvvkm1hZkMrmtra27u3ttba2srCwxMTEnJ8dsNs/NzYEB39/fn5eXZ7PZZDJZZGQkFHJ37txhsViwrjscDrfbbbFYPDw8wsPDbTbbyMgIxC+YAzocDiqVOjAwAE18enr6+Pg4QNgdHR1isdhms0EU+Oqrr4aHh8/Ozl6+fHlpaen48eOhoaEdHR0vv/yyQCAAWKCzs5NCobDZbMSMqNVqt9uNZhsuG7VajZHuzp07+/v7eTxeW1sbPGmQ7n7zzTdpaWlFRUWwZ+JipVKpIIRFRkZCzIyInPj4eGyIoHq0Wq0ul6unpwdiHQaDcerUqc7OzuPHj2NAAMzT2toaeOtWqxXgTVBSwKNCu1tbW0uhUCgUyrlz57DajIuLA7/O5XKNjY2lpaVh7mU2m202m8vlIhAIRCJRo9HAVkhEkg2BQMDOIiEhgcvlAshEpVJjYmIePHjQ3t4ulUqBqR8fH//yyy8///zz48ePDwwMIHJgfn4eLE2n09na2hoaGsrlct977z3Yv0C//Pjjj8fHx4uLi9fW1uD9NBqNZrN5YmLCarVGRUWZzeampiYikbi4uGgwGFZWVpaXlwHUhn0NABw8DUKhkMFgaDSaP/zhDwqFwuFwmEwmIpGYmJhoNBoFAkF9fT0oqzU1NdADSySSxcVFoVC4ZcsWk8n05ptvWq3Wixcvstnsqamp48ePW61WhUKxY8eOuro6IDeFQiE0xjDZnj171mq1jo6OLiwsnDx5Ehi+n3/+GbDQxsbGbdu2xcTEQOb47NkzEAenp6dfJPLA65CQkADSH5PJ1Ol0JpNp//79L8ayZWVlIB1iTQNgx8OHDzUaDeRwHA5HLpdD0L9582YGg4GEIKhwUFIgdqyurg5LY4VCATb85OQkvpwQvZLJ5ISEBLyrFosF43LQbNBnBQQEEC9evGi321ksFpVK1Wq1lZWVCQkJHA4nMjJyaGgIJk0ikdjb27uxsUEmk3/66acPP/wwNTX1/v37bDZ7YWFhYmKCTqeTyeTOzs6BgYHMzMyCggIOh7N///6VlRVgC+7evQv3HvSCSDyRy+VjY2MajYbNZuOwWVpaAjFxdnZ2fn7+7NmzPj4++FbB+QNHK7J/+vv7X375ZTiyjEaj2+2m0WiA4g0NDREIBFiiAQw6cuQIgI6Dg4NNTU3Xr1/38PA4cOAAnU7/6aefVlZWaDSa0WjcvXv33bt3SSRSeHh4YGBgVVXVtm3b4JA7ffo0Bq+BgYFQpaSkpACn8OTJE2xYNBrNW2+9NT8/f//+/dDQUJfLNT09TSQSIyIigElCfRMXFwcuHgwiYWFhGxsbU1NTa2trQUFBIyMjPB4PG1MQKyHoiY2NXV9f7+7u5vP5ExMTIpGIRCJhm4j9tqenJ7aMeFy4XG5HR8fk5KRcLi8pKQEvqba2NjMzE2dMY2MjWGpra2sEAmFlZcXX1xfIJC8vLzC0fH19if/85z+hWMTKfnJy8u7duyAexcbG2my27u7umJiYsLCwnJyc3377rbi4uLi4eGpqqrKyMj09ffv27YCRMBiM1tZWCoVy6NChoKCggICA0NBQq9WKnJR79+7Z7XZ8QXk8Hp1ON5lMAwMDO3bsQEM0OTk5MDDA5/NDQ0Ozs7MVCsW+fftgHyeRSFAfovYkEolMJrO0tLS+vn779u3Y7ENDCRAjPFQQFvX09MTGxuLui4qKQq/U2dmpUqn+9Kc/GY3G0tJSKHHGxsa2bdt29+5dJpOJ2QMEeD/++GNMTExmZia80RsbG2+99Ra+Ibgco6KikI+A7Knu7m6c3jD7aLVadJUWi+Xp06eQKOTm5paXl/v7+4P9zefz8XOwFQdCyGg0NjQ04AahUqkYHIOXD8cTLL46nU6pVNbW1j59+lQul0NQjHnm2tpaSEhIV1cXi8XKz8/39fXVaDRQnJDJ5MHBQblcHhsbCx4M4D9ra2sUCgU6spmZGT8/P39/fyIwLziCGhoaxsfHGQwGxPvBwcHQ0d+8eVMqlTY0NDCZzDfeeMNgMPz888+7du2KiorSaDQ3btzAjgBbIovFIpFIIMmHv2Z4eFgqlXp6emJa3NbWBn4+iURKS0vr7e1dXFxUKpUQO62urprNZqFQmJWVhYfDYrHgZWBchnJyYmICeiI0CwaDwd/ff3x8vK6uLiUlhUAgqFQqKpXK4XBgwO/p6eHz+Vqt9tNPP6XRaDk5OQEBAb/++mtsbGx4eLivry+VSm1vb1epVA6Hg0KhLCwsoLVmsVgIY7lx4wadTt+2bVt4eDjMS/DOcLlcuVwODxFIhAEBAVwu18PD4wX9vb+/n8FgpKamWiwWT09PpVLZ2dkJwtbGxkZGRgZkXCsrK319fSqVisfjlZSUMJlMjUazsLAwNjbW1tYml8tdLpfFYtHr9Vu3bnU4HE1NTXCTx8fHBwQELCwsQPve3t7+7NkzkImRdgLzBPwfWOyNjY0hdwZn88rKCioPaOTsdjtir2w2G/Hy5csul2txcbGmpqanpycyMvKtt97C4WG1WgMDAz/55BOA0lwu13//93+7XK7S0lIEjfH5/O+++w6VXUxMjEAgALheJpNhCTQ3N6dQKMRiMUT6QUFBYrEYiEGTybR3797GxsbJyUloglwuF4AlLBZry5YtkLtCo4UpLbIHp6enAbJFFdnZ2Qn1U0dHR3V1tUQiAR8BdC+EYA4MDAiFwt7e3sbGRgaDUVBQYDQar1+/Dt28SCSi0+nLy8sZGRkxMTFgYSQkJOAY2L59O1CLuIlMJlNfXx+bze7t7T106BB6t927d9Pp9JmZma+++opGowEQNTo6WlxcbLPZzp4929/fHx4eHhsbW1tbC1QOImCIROLq6mpJSUlUVBSTyVxYWEAiYm5u7pkzZ/Ly8vbt27djxw7YMGNiYkZGRsbGxiIiIjC4gxhxaGgoOTkZ96avry8OibW1ta1bt1oslsHBQRTRyCCw2+04xRsbG1dWVhISEgDSxBNPp9NR0IyMjEBpNTKVser4AAAgAElEQVQyQnz11VeB9Adq7B//+AeMKlFRURaL5YcffuByucHBwQqFAtbFubk5EomUkJBAo9Fu3LhRWlqqUqlEIhGS0cRiscvlAhX+5MmTSUlJVqsVThCLxbJ//37MGwoKCnB4EIlEDMcMBsOXX365Z8+e3t7e1dVVpKGhAsXRotVqwcLu6+vbvXv38PAwbhMs3CcmJgBfRGJQcXHx6uoqQNUo/rGPZLPZW7ZscTqdDx48ADA/Pj4ebhEYGoxG4/j4eElJCZvNdjgc4MN4eXm9/PLLKysrRqNRpVLRaLSZmZn4+HgEZsTGxkokEpVK9cMPP4jF4rW1tfb2dn9//zNnzjx9+hR9clVVVUJCQlhY2MzMjEAg4PF4SKttbGwMDQ39/e9/D6T/4ODgs2fPwsLCxGIx5ASgc0VHR2dnZ2dnZ+/atSstLS0yMjIyMhK4L6w10CjMzs4ajcampiaz2Uwikfz8/JCUtb6+HhYWBlX53NycRqOBQJXBYAQFBeHwtlgsy8vLEokEU/mZmRko7NfW1ogeHh69vb2QbTqdTmyz/Pz8EP2HgAHsZXp7e9Vq9dra2ubNmwUCQW9vL5L6MLLcsWMHAENEIrGxsREWeB8fn+bmZmR97Ny5Mzw8vKqq6pVXXsGROzY2JhAI5HJ5T0/P3r170YPxeLzl5eXHjx/j8F9ZWcFvD+tUW1sborGSkpKAONuyZcvi4mJZWdnmzZtjY2MbGxv37NkDMj8GSiMjI1BuRkZGYupz7949BL+x2eyenp6oqCiJRIKvztDQEDAsTqczKSnp119/FQqFi4uLWHrBR5OXl4eV0/Pnz5eWlnQ6HZvNrq6uDggIgMm5u7u7oKBAIBBotdrm5uaamhpUVC0tLZmZmWFhYSqVysvLa2lpyWQyIewFyJfOzk6NRiMWi8fGxoKDg8GYsNvt8E6iKOnq6gIzsr29HXAARMVZLBaATBHn8kKKZrVauVzu//7v/xYVFYnF4ry8vNu3bw8PD2OTNT09vbCwgK4H/QueD/CY/P39NRoN8Z///CdeSX5+/qVLly5fvgy4zw8//NDe3o4EEwqFQqfT4+LiVldXe3t7sT354YcfEIKE1zk7O7tlyxaw+rOysvAXl8ulUqlIJFJRUVFsbOx//vMfpEKPjo4iu0Imk3V1dZ04ceLy5cuxsbEIn4OJyGAwtLa2BgUFeXt7owRBik14eLjBYBgcHCQQCMgOGBgYSEhICA0Nxd4RX3Q+n481G0KolUolfmZ7eztyGmEPA3tocnKys7NTqVT+4Q9/CA4OxpJBoVAAu2I0Gnt7exH8sLCwAELQo0ePDAZDVlbW5s2b4d2dmpqanp728/M7f/786OjorVu3VldXDQYDj8eDzRGehrq6OovFsr6+LpPJ4uLidDodNti1tbUrKyvp6ek6na6vr0+tVn///feDg4NIvwC7hU6nDw4OItcWwGo83yCCYlICtAl4MsiQTE1NhdMfbvuvv/4aAQ3nzp1DJjMGkqBM9/T0WK1WvV4P3fHQ0BDx9ddfX1xchH4iODi4r6/P09OztLS0p6eHxWIxGAwejwe+BRQVsBtVVlYiAQJoipycHIFA0NfXh6iNtLS06elpm83W398PJmdJSUlzc3NPT8/Zs2eVSmVHR0dUVFR/f39TU1Nubu7nn38Orga8PL29vVFRUYiggxgnKipKJpOB5OR0OlUqFZAnSqVSpVJxOJzc3FwgxfCcLS8vk0ikjo6Obdu28Xg8FotVVFREp9NhU/D395fJZCBzvPzyy2NjY+CiHjx4MC4ujkQiBQUFISejqKgIcURQOI+MjAB1MT8/Dy9nSUnJvXv3EEsIocKhQ4ciIyM3b94cFBSEuRE08RQKJTo6evfu3TARgjaALSNy8uDzSEhIIJPJmzdv9vHxmZ2dhR/28ePHzc3NEC/q9fqMjAzcqnFxcZ6enkAR+/v7Ly4uAgFUUFAA2j2iTqhUKqTtvb29s7Oz8EgDrNLf37+0tHT69OmdO3eazWaAJLHb6u7u7ujo2NjYIIrFYhKJVFxcHBkZ+eOPP4Loff/+fSKRmJKSotVqzWYzbiy4L9PS0gYHB2dmZjw9PdGVYLjE5XLBO5+dnYUEBJQRLpfLYrGIROJ333135MgROp3e39+/sbHR29tbXV1NJpM/+ugjpAs2NDSo1eqpqSnk3UxMTEAw0dvbOz09zWaz9+/f73Q6nz9/7na7jxw5AoxRa2vr3r17YSoBqC4yMhI5rx988AEiUGCq6+zs9PDwQG48CP9UKhVpHhaL5eLFi01NTQi4ASET+i6pVCqXy7FIamlpEQgEz549IxKJZ86cIRKJT58+TUhI6Ovri4uLczqdwcHBvr6+BAIBUBC5XJ6enh4eHt7R0QHT4eTkJIVCMZvNs7OzSJ2amZnBRnpycnJ1dRWQz9HRUbPZPDw8jEKnqakpPz+fQqEAko7ILNjyNjY20OjR6XREzBiNxrNnz0ZHR2NR19fXl5yczOVyMZM0Go1g+jY1NWVmZspksosXL6pUqsbGRuAXENSHMdXY2Nju3buJ+/bty8/Px0gOYaKXL1/eu3dvUVFRdXU1LhckVqHqbmpqAijd09OTx+MdOHBgbW0tOjoaoObdu3ebTCZkTsjlcggHgU7fv39/QkICrLCLi4vXrl3z9PREjFVsbCxMoMBjXLx4kcVigUGItKG2traPPvqIw+HcvHkTIEaZTKbVavv7+w8cOBAVFfX/hw4TiQKBoKGhgUKh/PWvf8XqnMvl3r59++HDh0iBRWHkdDoXFxc9PT0xSr948aLb7Y6IiJiYmMCEF9sGTM3j4uKuXbuGBBmlUol89LGxsf7+/oCAAGjYoOt5//331Wo1XFLIbzx37tyWLVv27du3a9cuKpXKZrPn5ubu3LkDLDOGZohc8vb2Bp4qLS0NshsASyYmJoDI9fHxEQqFP/30Ezb7ubm5sMRC3AkZeW9vL4/HKywsJJPJZWVl+CZTqVQwc+12u0aj0ev1DAYD5oyenh6pVEqj0cLCwlJTU7Enx/ekvr4+ODhYLpcTYZqFuBAmF6xaIiMjo6OjgRqLi4ubn59ns9lY+otEorS0NLVavbCwsHPnzsDAQCAeMDTs7u4OCgrKz88fGBhAcC6m/XFxcVarValUbt++/dtvv1UqlYgr5/F4P//8M/bAOp3uX//6F1JaeDwecNs6nY5AIGRlZdXV1Y2Ojp49e7aqqgoMU5x/mA5brVaY1I1GI5fLRfNsMplu375dX19PIBCKi4uxwoWsX6vVQosEXgFoOTBJozomEAi9vb3BwcFqtbqwsFCn00F8ZDKZ+Hw+iDHg88OSn5eXd/jw4ZiYGExdcVOfPHmSQCCg9ImLi9u0adOmTZtee+21Q4cOTU5OIpUmPz8/ODiYy+UGBga+8847np6eEomkoqIiLS3tvffeQ3orjgS5XI7yc2lpCZl8er2+vLwcgdfd3d0g0orFYpPJBJFRbGwstmyTk5OYPfL5fESCgp6FxY3Val1eXsZaUafT8Xi8ubm57OxsIpFI/OCDD6BEIpPJeLV8Pp/P59fU1AQHB588eRIpGXl5eQqF4scff0QrBX3X8vJyeXl5eHg4mmEoxTMyMuB4M5vN77//fkFBARS2GRkZN27cCA0N7evr++677/bt2wcNulAo5HK5kPafPHkSYXXIgCKRSAaDISUl5fjx4//4xz9WVlbee++95uZmb29vGo1WW1v71ltvbWxs+Pr6wmfG4XB6e3uTk5MbGxsR1N3c3FxeXq7X61977bVjx44hoVipVCYkJISHhy8sLGAL73a7cQOWlZXB0vf06VMKhYI4CgDNQLElk8nd3d3V1dVRUVFJSUlHjhwxGAxqtdpqtSLKGKRhxCgnJSWFh4dDioF/otdwuVwmkwnaiYGBgcLCwvb29oGBgTNnzuB6AoN7cXExMTERRku3242UWfyQsbGxgIAAKpWK+JuhoSGgXb28vBDIodFourq6CASCVquF4jgoKAiMPJC6nzx5AgYrJpPYc7W0tOzYsQPJxjAdUqlUIhJS4dzCLAHhhLGxsVNTU+Pj46dPn1ar1fDJjY2N4c3t6elxu90HDhzYsWNHeXk5k8lEXgck/BQKpa+vb9u2bQkJCYh3pFAov/zyy7vvvqtSqZRKJZKdnz17htcJAxXgVenp6cCt6HS6sbExGo325ptvdnR0uFyu1157rayszGq1xsbG3r59+8yZM8hNw7Yd22YajXb//v2BgQF/f39Abf39/d955x3IepeWloA9stlseP2Tk5Noj0EqjomJEYlEgYGBfD6/ubkZ0VK3bt3y9fXFoBmRWenp6RjFdnd3u93uqamp0NBQ+BjwGZtMJqQ4Xr16tbOzc2ZmBtOz5eVl7EH0er1Op5ucnMRoFSGheXl5MzMzECQkJSXhE5menjaZTJmZmZhuYU2Pjf/AwIDD4UAEIoVCwaKqpaXlzp07MpkMnxd2XuADDA0Nzc/PQ+cQGRm5tLQ0OzurUqn0ej18r1arlcViLS8vLy4uIpZkfX2d+M477yDpDItguHRgFgoODrbb7fX19a+//vrz58/lcrmXlxcG8wAA9ff3z87OIucWc/GkpCQulwvlc3d3N5fLRegik8kMCwv797//7e/vf+jQIQi+hUJhSEgI7mCbzRYWFqbT6aqrq7VabWBgoEaj6e3tDQ0NbWhoGB0dvXTp0qNHj3Q63dGjRz/66KPt27fD8vOClIJOpKKior6+PjU1lcFgIJLA19e3oKDA5XJBLEMmk2FlaGtrCwsLwzUPQV10dDTKIyTuInRrbm6uvLz8b3/7m6enJ4A5Lpfr008/pdPpHA5nYmICBWBcXFx1dXVubm52djYUtWw2+89//nNRUdH+/ftZLNb9+/crKio++eSTrq6u7u5uyKbGxsakUilYhIGBgTdv3hwZGQFkgMPhxMXF8Xi8u3fvikSikpKSsrKypKQkpBlFR0cTCAQYqEJDQwsKCmJiYn766afw8PC9e/fCjYbZF4vFgl0hOzsbZhSJREIikY4ePZqenh4YGIgjLSwsDDIDVKnIHIN8h/j6669jWQomPEx46+vreEoiIiIUCsXPP/9MIBBoNFpQUJBCobBYLEKhEHm84+PjCFcHh6m0tDQmJgaYJS6XOzQ0FBgYCBw9WHsDAwOpqanT09NPnjzJyMiQSCQMBgNsEhw/LperpqZmbm6ORqPt2bMHK55XX30VAZQHDhy4cuUKg8E4ceIE1pXIFG9ra2Oz2Q8fPhwdHRWLxZhY+/r6ikQilUo1MjKCWCDQTp1Op5+fHzz7OTk5oOCFh4c/ePBgbm6OyWSC4MPn8ysrK3/77TepVAo4J7T4//jHPzgczpEjRzo6OjDzXV1dbW9vR4YEk8mMj48HkjUmJgbxI8HBwampqW1tbYh4e/ToUWhoaEtLi8lkSk5Onpqays/Pz8/PDwsLg3wa+1QEmA4PDxcVFUVHR7e0tBQVFZFIJJlMptPpHA4HkOIQA0A4ferUqUOHDiHwJCoq6qWXXpqamnrw4IFKpYKoD0sVDofj5+cHyA9M14WFhTQaraCgQKfTxcXFRUVFgX4wPT1NvHTpEgbbiFuDnQkSJnD1nz9/brfbcb3FxMTgs4RNFAg2kUiE6wn9PZBt8fHxkJJj/BUQEKDT6VA31NTU2Gy23NxcMAv5fH5+fj689lilAqR59OhRs9n88OHD/fv3Q4N59OhRpFHR6fTg4GAKhYL1+uDgYHx8/I0bN4aGhtAlBgUFJSQk4OELDg7G7ikyMpJAINjtdgqFYrFYENLV3Nx87do15DjZ7XaXy4VEeg6Hc+XKlb6+vsjISBKJND8/Hxsb+9tvv9XX14MPlpiY2NfX5+XlBVIjes75+fnu7u67d+9iE4aEQ5CJXS7X//3f/7HZ7JSUlMLCwrCwMAisiouLQVzy9/f/6aefmpqakAqNQwKxwyDedHV1RUZGwh5QWFhIpVKhFsC5WFNT09/ff/jwYS6XK5PJ6uvr8cHv27cPpkMAdiIjI/l8vtls7u/vh8Ddz8+PTqcfPXoU0YvIoXvjjTeKiorS09Ptdjvxj3/8IxjyUC9iEgyzjYeHR11dndFojI+PB0pEJBLB/OlyudD0I40FHS+LxULSLBzYwOtiIZKQkAAsp8vlArzEy8vr7NmzQqGwoaEBCn2hUIi1lk6nu3Dhgt1u/+abbwoLCzkcztOnT7Ozs318fO7fvw+RQF1dHRrFpqYmiUQC8+oHH3yQmJjo4eERGRkJOySeeOQmR0VFBQYGInADaeJms7m2tnZ1dRXCdJjN5ubmPDw8hoaG0tLS6uvrV1ZWhEIhohcqKirwzcHeanJykkgkisXi06dP5+TkFBcXz8/Pw1a5f/9+yK86OjquXLliMBiw/T9+/DguOwgSOBxORkYGVJgbGxsNDQ3e3t5Go3FhYQHVjNlshgBKLpdrNBoEVNBoND8/PzDDlpaWEKs9PDyMTNyJiQlAwuDNGR0dff78eXR0NI1G2717t8PhKCkpsdvtKIwUCkVBQYHValWpVB4eHiEhIVwuNyYmJjg4GIXHpk2biB9//DE21OD3kv7fH19f3xs3boyOjjocDgRZIqoCYSgGg8HpdJ47d47BYIyMjCCID9UAjUYDqU0kEq2vrz9+/LiwsLChoQFSICydEZTZ1dW1d+/eLVu2XL58GYpffLcSEhKMRiNU7KC4pKSkCASCjz/+uLi4mMPhLC4uRkRE4GFisVi//fabQqH4+9//npSUFBYWhsQFXJTwluF0fPz4cVpamq+vL2r4ubm5sbExoVC4srKSnJy8Z88erCGBKC4pKUFIZWtrq8FgSExMnJyctNvtCQkJMzMz+fn52BF6enoKhcLw8HCpVLq2ttbY2Lh58+aFhQXcGomJiRqN5sGDB6GhoSUlJUKh8OrVqyA9ga8EOhKo7TqdDgAOLHXRk3M4HJ1Ohx7Hbrfj4wAJXaVSyeVyiUSCyPCuri74jCwWi9PpZDKZ9fX1YFyhuHQ6nXNzc+Hh4dj6IjVAJBIdOnQoJCQkJCQEucSoC9va2hYWFry9vT08PEg3btw4fvy4TqdDUQm9OI1Ge/z4MapcDB7UajWJRALG+tGjR263GwkeLS0tGK2+EB4rlcrU1NS6urrPPvtMIpGgJhIIBHV1dTQajcPhvEjMIBKJV69exbAE8DQSidTW1paQkLC0tLR582bcqW63m0Ag3L59OyAgAPkTQFpwOJyamprp6emcnJwTJ05gOWw0GiG9pNPpkJjgjBSLxV5eXl9++eXbb7/N5/Ox30KrDHsBYknGx8cbGxtPnDgB9EFubi7ur+vXr4eHhzc2NuK2unv3LplM3rRp09DQUFxc3MrKytLS0tLS0sbGhsViodFoYrEYw/LGxkYPDw+MQ2prayFpgMcfSMyhoaGwsDDoPzQaDTSk6+vrRqMxPz9fKpViizQwMLC8vIxtGnRlkKX5+/v7+vriMYqJicGpOTs7C9ALrPxGo/HSpUt8Pv9vf/sbdnu4JYxGY0pKio+PT0REBIFAiI2N/fzzz4lEYl1d3fDwMO5Eu91OHB0dhesJAjUikQiCcVNTE5IGRCJRd3c3k8kE+BEfQGhoKELUlEqlr6/v7t27oYBva2vDnINCoQwMDCwtLSG2DWm0U1NTiP2C/LioqEgul7e2tr777rtHjx7FGBfzbDjOVSpVaGgo0o21Wu3Ro0ch7Maf5ORkmUxmt9svXbokkUjw9KBwg2sISOoX9wuUEGVlZYhedDqd7e3tHh4e0KRBAvjLL788e/ZsbGzsl19+CQwMDAwMxN9jY2OhFW1oaIArDJmsSFodGhoqLS1dXFxEUB8o/T4+PgqF4tGjR+CF0Gi069evYyNz+PDh7du3w6SuVqtnZmaMRiNi2rhcLqbPMADQaLSmpqbKysqAgACBQADL4+bNm4ODgy0WC4lEQh06PDzc1taGCgF11eTkJIvF8vHxQc81MDAwOjoK5DeHw8FbhPR4PC4UCgVhbVartaenJy4ujkgkvv322z4+PsScnJzOzs6ampqoqCg406empm7evIn/Pi4urq+vb319PTs7G4HFmNkFBgYCPQAV09DQkEAgaGxsdLvdAM2Gh4e/COKDYhZcPKVSOTY2Fh8fLxaLW1pa0JFibAwCtVqtTkhIQHRaWFiY2+329/evqal54403EB3ncrmmpqays7MvX76cnp4eEhIyPz+fnp6+urqKVaePjw+SrX18fGD6QuYhgP9EIvHRo0cMBgPKar1eT6VSk5KSDAaDQqGQSCRDQ0Pj4+MwyV25cuXGjRteXl7IwUTWIqI/IiIiFhYWCAQC2GIdHR3T09PIihwfH5+amsKAZHl5OSEhARCXq1evstlsg8HgcDi6urrACR4ZGaHT6efPn29paZFKpcHBwVqtFiLfxMTEpaUlMpkcFBREJBKVSmV1dfXIyAhqahqN9tJLL4WGhv76668KhQLFgFKpRPhOZ2cnJnioCEHip1Kpx44dw6Oj0+kYDAZ0Pyio9Xr92tpaYGDg06dPEYlx+vTp1NRU4quvvgpbcGlpKZFITEhIuHnzZlNTk7+//+HDh+VyucPhQOifxWJ58uQJzNZarTYkJAQmn4mJieHhYXC3cEmjy4WVYWZmZnBwUCQSxcfHz83NTU1Nud1upPtAJtjX19fT0zM/P48eBH4FiLImJiaio6Pv3bt37tw57OgR1lxYWPjzzz8rlUqpVJqRkQFfHU5LsIhRomKjBkUxwE445J1Op0wmA/YJpUNbWxuHw0lMTKyvrwdmf3V1NSkpaWNjA8utZ8+eaTQauVy+sbERExPDYDCGh4eRowJfKuJ5odUF66e1tZXBYGi1Wqh4WltboRV1Op3Ly8tLS0s9PT3IlmQwGJA0ZGZmoq3QarVbt24NCwv7+uuvfX19+Xw+Mu3QQD18+FAul2dkZBQXF+v1+o6ODolE8u233+7fvx+6MPQEGNhgfEwkEvl8PkQFXC7XZrONjY2Fh4cjt5pMJjMYjMbGxt7eXnSm6D0LCwsJBAIRoTDw6qhUKpfL1dLSYrVajx07ptPpcPKLRCKr1To9PS2TyaD6NBgMfD5fpVKRyWRgCAYGBqhUakpKCnaPONVFIhHeuPHxcYwU09PT9+zZA8zSBx988Lvf/a6yslIqlQL5ihL96dOnANxGRUU9ePAgPz8fdgG32w0xyieffNLY2HjkyBHQR+Li4rq6ukgkUmho6Pr6OozzJBIJ/lUvLy8ymQyWBA7SxMRErVY7MjJSUFBgMBhiYmLMZnNubi7sNgQCoaWlxWKxQOqg0WhSU1NfIH4CAgKQJImgNyierFarQCDAKsrX1/e9997buXMnsPSgube2tqrV6vT0dB8fn+fPn+fm5opEotjYWDKZDAwJhq1Wq1Umk83MzPj4+FgsFpBhUlNT6XR6e3v706dP8UWKiIgAoObRo0cKhQIyW0BNXuyobTabVColk8mQvXG53LKysgMHDmRmZlIoFNAPIOV3Op3YvbS2to6MjEA96OXllZWVJZVKnU4nMTExcf/+/TBGY06gUCiKiopASRQIBMhBnpyc/P7772NjY6Hzy87OxjFw4sSJ5ORk5OrBrxwVFbW+vo6CH19TbOMwpT516hSJRGpqakLQ3eTkZFZWVlFRkY+PT01NDZKv8HXZvXs3MiV///vfOxwOuVw+PDyclJT06aefajQa4DExL3c6ndHR0YgoAXPxRVCG2+3GIwtoNSQ2AwMD27ZtCw0NraqqQs5fcnLykydPpFIpgtjCwsJaW1snJyeRCgL3PUxfNptt8+bNa2trgAHHx8d7/b8/qKA5HE5ERIREIsnMzMRKTywWo4QPDAxMTExEW8FgMNAB6HS6I0eOwNZ19uxZ5CTzeLzm5uaFhYXg4GAMSHALMxiMnJycbdu2OZ3O999/f9++fcj+On36dHNz88jISGtr6zvvvFNcXNzd3U2lUvV6fUhICIPB+Pe//20wGPbt2xceHu5yufBEgrKBY5VEIlVUVDgcjoWFBRaLJRQKDx8+7OvrSyKRiMj1gXfmxo0bU1NTUVFRJSUltbW1dDodSWckEunu3buYNHh5eWGigNnX7du3vb2929vbYdj/7bffHA4HRuNEIlEkEvF4PAQVgIXqcDieP3+OiZbdbsfkLSAgoLCw0GQyffrppydPnmSz2UBFkMnkuLg4jUYTGBiItwwnoUAgSElJ8fLyamhoCAsLg9ycRqM9e/YMc0PU1A6HA395EXqk1WqfP38ulUoJBMILTR1wWZs2bUK5h8EiLEzQf8DYGBMTQ6VS8eog6cPRFRsbKxKJYEpA4mlFRYVOp/vmm2/0ej1O+8XFRafTKZFIwPh74403IF/94YcfVldX5+fng4KCZDIZ2oW9e/cyGIwdO3acPXu2pqZGoVDo9fpHjx5RqVRvb2+NRoPvGJlM9vf3//XXX0HdwVM7MjKCbhTKI2AdAb8D5yI8PBwn39DQUFZWFs57KMkbGxtdLhfg0g8fPuzq6sISivjs2TOHw1FfX4/+EwSYysrK8vJyRBGw2ewbN25giU+n02FSXV1d3djYAKJpeXnZaDQGBwd3dHQkJSW1tLQAi4CcoevXrxuNRpFI1NraGhIS0t/fD+4qTnug/qOiojD0DAgI0Ov1kHaqVKqkpCSVSnXt2jVYWkpLSwkEwpkzZ5AUGR0d7eXlVVVVheoSKOaKigo+nw/jCZlM1ul0FovlRVvY1dVFpVJBO4WnRq1WI0SBRqMhs+x//ud/DAZDS0vLwsICn8+PiYlB9OTS0pJerz9//jwI9Gw2e3BwEOEFTqcTJUhSUtKLNpLFYiERAOwCoESsVuuBAwdQ45eWlo6Ojr766qswInE4HBKJZLfbGxsb5+bmgJWGWYTFYun1+tOnT/v6+qIDamhoePDgQVtbG+pZ5A+DVw6dFJ5ss9kMOwGfz7969SqOSWvPc8wAACAASURBVAQUcTgcHFGoVUHXVCgUsNT39PQgjc9isRD//Oc/I2+2sbFRp9NJJBKdTocsH2Smms3mp0+f4nALCAiIjo4GTQr9NxBTACtERESw2eyioqJHjx5FREQkJSVVVVVZLBasKqCmAWKFQCAoFIp79+7t2bMHWgez2Yw5RHl5OVLGvL29V1dXnz9/bjAYLly4gKLs8uXLTCYzJCTE7XYrlUpkN/f394+MjAQGBgKLdfPmTXwGkHBioD44OHjr1i1ooVGYv/HGG1NTU0j8xH0qlUo///zzmZkZQBylUmlPT8/6+vrS0hJaRLgsnU6n0+msqqqi0+lhYWG4qkZHRzUajUKhgGQJh1NBQYG3tzdag4mJicDAwCtXrsAh19HRgYSTqKio2NhY6BfBivL29o6Oji4vL9dqtSsrK9D5pqSkcLncnTt3IipveHj42rVrYWFhaMgrKirq6urkcvnc3BzEwgaDYXFxkc1mBwUF4eofHx9Hu+RyuYD3RCIbGsCampodO3b09PQwmUzYBJOTk9PT0wMCAoj/+te/SCTSt99+S6VSESyHkCycuqmpqcPDw+gLoNENCQkpLi6GYgWANolEArjPzMwMUpIjIiJu3769uLgITx50uSjNEJCAV56Xl3fs2DGhUNjS0uLt7Z2RkXH37t2kpCR8oqGhobW1tRwOB/KId99912AwdHV14RaDKx2epYMHD1qt1tbWVujEII4Ew1mpVHp6evb19TU2Nh48eBDnX19fn0gkKi0txU2BUaNarYbGBRE+ILRQqVSs4NE0slgsPp8/PT3t7e0tk8mio6MhA0YGTVZWllqtXlpacrlcXV1dOp3u9u3b2Hx1dHRkZGQgCkcoFPb09MDPLJVK33jjDaVSCe472jGMdhYXF7ds2QLS0Pr6uk6nGx4efvDgQVVVVVtbm9lshpPjzp07ly5dOn/+fEpKCib6xcXFUMIiRmF1dXXXrl2lpaWYtLLZbPi3oV5oaWnRaDSQDEPqnJOTA7YRxLkikYj497///enTpxUVFVlZWf7+/hwOBwJGoVCILC2lUgnWZ2dnZ0JCQmRkZGhoKN61goICLJMEAgHONMxDIS6/f/9+eno6YmABXUVkAnzrer0eqxkvL6+MjIz+/v6hoSEMY5KSkoaHhxcWFths9qlTp+D+bWtr27p16/T09O3bt1NSUqCbKi8v/93vfhcWFkYmkyFt3NjYGB8fB/9DKBRivlJTU3PhwgVfX9+mpqbS0tLk5OTh4WHYEtEH5efn+/v7SyQSuVw+Pj4OFerk5CR4G/AzmkwmVPRIlgUvG8Tj1dXVvLy8nJwcxPp4enomJycDyDw4ONja2trR0dHW1qZWq3HkoElGbklSUhKcheCSIaf9+fPnUVFRAoGAz+dHR0dD5IWNen9/P1oB5J8uLS2hCEVUAbLJATQ3Go343504cQJACqFQCKPX3NxcXl5eXFxcVlYWjUbDjhB7ShqNFhoa6nA4IK1Vq9XEkpKSL7/88uDBg0wmE+iHsbExLpcLVBd4MgMDA8XFxVwut76+HiFid+/ePXToEJ5xVK9QgYeEhGi12vn5eVj/GhoasOrDRY6sDx6Pp9frgacaHx/H4Fyn062vr/v6+sbGxn755Zd4euAZlkgk0P1qtdq0tDQ6nV5dXf1ib75lyxZIihwOx9zcHPQcIC9CZT40NLR3797ExMQ7d+48e/YM8CoKhYJoOqCbwGceHBxcWVlB+GhQUBDslna7HWOJ1dXVd999l0gkIpQ5Ly8P7zVon76+vghdZ7PZa2trUVFRJBLp1KlTycnJ/v7+RqORTCbn5uYeOXIEXLypqSkmk2kymcrKyux2O51OLysru3nz5tzcHDzrQN0DO0Oj0UQiEXrR4eFhBM4LBIK2trbg4OA//OEPQHDxeDwU+BwOp7u7G0oDu92enZ199+7d1NRULpcLRZJarc7MzEThgkUMtmaQakApgQTZmZkZosPhwPU2OTlpNBrn5+eRX4m8Jvh8EItcUlIiEAjm5uZwmMfExKDBMZvNKysrZrOZy+Vi72y327GA3djYePjwYUJCgt1ux3ACERxWqxWZ8PCeANAD18bAwEBeXt7u3btTUlIwd1er1Vu3bmUwGAjYQ2zjF198IRKJcnJygGa0WCy//PLL/v37gSEBGxOyZIFAcO7cuaqqqhs3bhQWFoaEhExOTubl5YHVhCcM7T3QBFwuNzMzMzo6Ojk5GUYHq9W6uLgYGBh49uzZmJiYkJAQtJSY7e7atQvxxQMDAy8IbKmpqaDnInm5traWy+ViWKBWq8FDyMzMPHXq1L59+1Bu19TUeHt7j46O1tXVgUUwMzMD6AiPx/Px8eFyubOzs4ODg+Hh4aCojY6Obmxs7Nmzx+12z8zMIIduaGjoxaXpcDh27dq1sbFx584dTER8fX1B70F8AGRWSES5d+/e+vo6MkzRogOfT/z973+PTYTRaIQZDhVra2urVCqNiYlJSEjYt2/fxMRERUXFm2++CTsri8VC/+JwOHB/YypnMBjgSoV3HM4whIJ5enr6+flB+0kmk4VC4cTEBIyHAQEBLpdraWlpz549dXV1IpEoKSlpbW0tKSmpqanJ09OzsLAwOTmZQCA0NTXp9fqkpKSgoCCsfF0uF9Jn9u7dizUsUonFYvHw8LCXl5dCoVCpVGNjY++9955Op6uvrz906BD+5bZt20BxBcQYZD2seTEgdjgcqDxcLhdC4L29vVdWVv7zn/+ggRocHNzY2HC73QKBQCQSVVdXY+MdFRV169atu3fvQuCyvr6enp4OISrcgagTXS6XwWDQaDSY4mAp4+HhAZizwWBAZEp1dTXmWiMjI+C+SKVSl8v1zTffFBQUZGdnLywsKJVKHCFYnJFIJHArMjIysCLOzMzEiFmv1/v5+cE4CH38w4cPdTpdV1dXWFhYbGwsLlDY391uN/HSpUuzs7NgywuFwoyMDIfDUVlZmZiYODg4mJKS4u3tjQJqbm6upaUFExF8VH5+fmw2G1lVDodjYmICHhnUHHV1dQjOWV9fb21tBTgbyM29e/fyeLzh4eHx8XFw37Ra7c6dO58+fYqB8cjICPhVTCbz2rVrsbGxXC4Xei309AkJCfAS43Qlk8mHDx/WaDSI5XY4HI2NjRD/RUdHV1dXi8ViqVSq1Wp1Oh1CmE6cOIEA2+Hh4dOnTwMwD7k1JDzIg8NiaGxsLDQ0dOfOnfDjV1dXi0QiTM+wXMWegUKheHh4gDSE0HQ6nT41NYUXsnnz5qSkpPb29qGhISSttra2Njc3w9dOoVBIJJKnp2d8fDywUoCrAjQHWsSzZ8+wTIaXrK2t7ejRo5s2bVpYWNjY2FheXkZWVXp6emtrK/jMQ0NDZWVlZDIZjj0KhTI+Ps5kMsGXhjr/yZMn3t7ejY2Nb775JpVKhVHU5XIB9UbctWvX5OSkSqWCVCw4OLizsxMQEg8Pj8nJSRjnpVJpVFTU6Ogo5Kvx8fG7d++enZ2FMg8jl/n5eR6P5+/v73a77927l5aWFhAQ0NfXh537ysoKh8Mhk8kvvfSSy+XClw98e0jwgSsCRgHJ4vHx8UANI3jq4cOHCF2Ym5uDWphGo6Wnpw8NDaHsXV1dJRAICwsLgMsODQ1FRkZCpDM+Po4gdKfTyWaz8/LympubIb4KDQ1FIITb7fbx8YGzHoCu+vp64Bu8vb3feecduEc///xziNbw3aBSqUhW3L17d2Fh4ZMnT+AOGRkZWV1djY+PB6AxLi4Owun29nZMyVJSUvLz87Va7cGDB8HbfPToUXp6OqLTQFKBFnp9ff3ChQupqakikUgikUDrj2QSpI1BIm80GoHoEQgE5eXlGRkZcXFxYNpCX9HV1TU3N7e8vHz8+HF4yjF9ACMfSyI/Pz8/Pz+Xy4WjgUQiESFWRRsN8DIM5hjMj42NyWQyFFyJiYkWiwWmvxMnTiCucHBwkEqlyuVyyHzGxsaQ6QzBLR4L0AoNBoNer0dthVkIlnYzMzOIlkVRVlBQgAUykrP/P57OO6rt+17/AiEQmggJLQRCAgkEYu9lY2zA24Z4xAmxY2c3aZKbpL1tk197e7tOm9z0tmmSm7ppdhzPeGJsNmYvA2IJhEAMIbSQhAYgIf3+eM7hn57mHBsLSd/P5z2e5/UgfiotLe3zzz9fXV2NjY2l0WhWq1UoFK6trcEPgW9wf3+/1+s1mUwLCwtYMAHz3dnZWVZWhpkscLNnz56dnZ2FgwEfycjIiMfjWV1draqqunv3LhgN+NIDJ8lkMl9++WW4v+bm5gwGQ1JS0tzcXElJCYlEwq4YEpDOzk6bzbZ3716QFyUSSVFREXiyWq22t7d3fn4+Pz//yJEjNTU1lZWVs7OzeGqROpebm/vEE0/A4ouPik6nUyiUw4cPI53CYrEolcoXXnihoaGBQCDAaAijZW9v7927d0NDQ5HhqlAoKisrKRTK8vJySUmJSCTicDg0Gs1oNEokEizmoNFE8N7GxsaJEyfCwsKQDAwcZkdHBzE+Pp5Go509exY8f5fLhUgUv98vkUhSUlI2NzdRfnd1ddlstqWlJVwEXC43OjoaE7aFhQWBQIBf5vvvv6+pqTl69Ci+PRCljoyMiEQis9k8MzNz5MgRdEBYrYE6NDg4CIbM8ePH4+Pjd+KuEeSOOnx6eho4IWjk1tfXr1y5cvz4cWwmAe+yWq3nzp3r7OwEWuLTTz+FWofH4wH6gJUE4q6LiopEIhGRSPzxxx/pdDqHw8GusaioCLOvxMREBoMBaQh0TGaz+f3337fb7TExMaB/abVa2N1gT+rq6iIQCPhbEFcolcqCgoL+/v69e/fiNs/IyOjt7QV4x2q1ymSy7u5ukBlqa2upVOr4+PjMzAw09yEhIbm5uTAsgkORkZGBgEowHfHVRyoXnU6fnJxsbm6OiYk5deoUoIGTk5OIFYyKinI4HPiVHQ4HZoBqtZpGo4EeNTQ0hBsT1oWwsLCWlhZiYmLiqVOnIiIikpOTOzo6ysvLoUOGEfzgwYOJiYlOp7O1tTUqKspsNgsEgieffHJ+fr6urq6goCAhIYHL5aLklEgkjY2N8fHxs7OzdDod1J6FhQU47ebm5hQKBSQUR48eBeFvYWEBO2SsVFgs1v379ysrK+VyOULBu7q6oLn95z//KZFIsNkHxKCtrQ2ktejo6LGxsa2trdnZ2erq6q6urtTUVKPRiM7c4/EAsi6Xy8vKyqxWa39/P05mJMa3tbUtLCxgkYYK4MCBAxgv5uTkpKamMhiMoKCgv/71r2azGQcMiKggazgcjtnZ2dDQ0MnJyYWFBWSzYFgiFArb29ux8R8fH1coFBqN5tChQwcPHkRvhQgpt9vNYrGmp6fZbPa5c+fsdntTUxP21UhPA9zA6/USicTh4eHU1FS8b2A9VFdXIwBjZWUlLy/v+PHjxcXFGxsbubm5O18FMEGgIt3a2kpNTQVt3O/319fXz87ONjQ0vPbaa7W1tQA6Pn78GMiZ4eFh4m9/+1udTsflcm/evJmUlGQymRCHAIWB1+uNj4/H+UGn0xcWFsDDVCqVoKKB0sxms48ePXr79u3nn38ep0VnZyebzQaPCzxWZLLk5eWBglpaWjo5OQmDZEREBIvFcjgcIJTcvHkTuWYGg+HgwYNWq3VkZARf2bNnz+KkQVnncrmIRKJGo/H5fMPDw2NjYx0dHQKBIC4u7s9//jPClgoLC10uF41GKy8vX1lZ2b17NyTyOJD++c9/TkxMeL1ev9+fmJgI12RKSgo2DFiaQ6D09ddf5+fnw4EHnJ9QKBSJRAkJCWVlZQwGg0wmoxCWSqWLi4v4AxQKBZpku92O6LBTp07hmkfBCB2dz+ebmJg4f/48vJbNzc04Zc1ms0gkQlsbEhIyPT09Ojr69NNP37x5E62iUqmEXs5qtYIfjL3p8vJyYWEhCLvQAe4cG+BEMBgMeBBNJtOVK1ew/UDdWVBQoFarjx07RiaT+/r6iIil+uabb4AkvHz5MpFIVCgUmZmZy8vLW1tb/f3909PTe/bsycjIWFxcRIfi9/tPnz7d2dn54MEDaD+vXLly+PBhsVhMpVKhshkaGoIYAtoRpEN2dHSUlpY+fvwYbXZra+sTTzwBVJBIJLJYLCEhIYC4cTic8vJyDLhg40DQ2C9/+cumpqbg4OBAIBAXFwenAjxREolEKpWCqZKVlWW328+cOdPf3x8IBM6fP//xxx8PDAxoNBo8EltbW4C9AE22k+Bhs9lgVwbVaWVlhUgkzszMQNHZ0NCAsb1IJKLRaEtLS2NjY+Pj4+gnTSYTgUCA+j8QCIBTOjw8HBUVBYmCTCbLzs4GOyo4OHhxcVGr1Y6Nje3wQuLj46EIjouLW19fB2bo5MmTsMAB91BSUoLsX2goR0ZGcIOHhoaKRKL4+HjU9cnJyTin2Ww2l8tFukZXVxedThcIBGazGUMzMpk8NjZGIpHefvtt+JKWl5eXl5fB6TAajUQ86CwWi8/nf/755wgCkEgkGRkZGHVoNBpwNdlsdkJCwujoaFVVVUdHB5fLPX36dH9/P4BmJSUllZWVkIxQKBQgEmBdFAqFJpMJoOCNjQ2VSgVD2IMHD86dO4fVhlAolMlkWDxOTU0hgjotLU0gEGAerNFoGAwGutYDBw588cUXWFRCgjoxMVFYWPiXv/xlYWFBLBa/+eabBQUFGPEBkwriDdCl2BpqtdqpqSm9Xh8XF8dms0UiEerr/Pz8np4eFAeNjY0gQej1+nPnzpWVla2trQ0PD0M7eO3atfX1dafTOTc3B6A2LmWbzcblcvPy8qKiolZXV/fv319eXo5ahEajXblyZWBgANakhoYGGOLNZjOJRPrpT3+KgAc8TohBevrppxMTEzF3AMyNzWY/fPiQxWLFx8eXl5czGIyhoSGEgsfGxiYnJw8NDYGGBZsLFhTYR/p8PrT0JBIpKCgIUq+HDx9iiwmHBx57sViMNSfx9OnTi4uLDAbj6tWrRCIxIiIiIyOjuLiYTqfDoZqfn4+Ow263OxyOQCBw+/btPXv2IAdeLpdPT08bDIYnn3wSjnW73Y5x+A7oMhAIWCwWhMNhmBYVFQX4X0lJCX5nmUwGCxOZTFar1aA7wiWAXIrs7Gy9Xk8kEqHGeOWVV1paWtbX1y9dumQwGI4dO/Y///M/V65cGRoaQpoWk8nMzs7++uuvYTtDGM/o6Cj8zQCfADYRFhY2MjKCgyoxMREKATabLRaL+Xw+Uv1cLhdOoMLCwuzs7IMHDwoEAiz/xsbGwsPDDxw4IBAIADYeHh4OCQnRaDQNDQ2YYMJYipRuNpt96NChuro6nU4HdRybzb53715oaGhFRQV4ipOTk/BEAuHN5/Phz/7hhx/2798PHBlc4EFBQTQaLTc3F4q43Nxcm83W2tp64cKF7e1tvDwAZKFkQ+gnBABEInFiYsJqtV69evXYsWPoWCGui42NDQoKYjAYg4ODRFhYseaJi4uDVwzhjPX19dnZ2UgXAUJUr9cj2WRqauqpp54aGhrq6enBZ9DQ0JCWlhYUFKRWq0E8A/0zKCiITCZnZGQgoRJJeGQyOTc398yZM9988w2RSISbCBX7zMzMvXv30tLSHA7H9vZ2b28vhULZs2dPR0cHiFkRERFDQ0N6vf7EiRN///vf7Xb7r3/96/Pnz3/++eeAc8AigIJ8Y2PDbDbDIjA7O+vz+QAlh4p2aWkJ1GIY+5AhByC6TqebmJjALlAqleK+Q9ZTX1/fzMwM2MsSiYTD4WxsbLDZ7KWlJQgfjUbjE088gU8Fj8rAwMDY2JjL5WptbQXzaGxsDGAEMIzu37+/d+/etLS0kJCQ27dve71e+H2MRiNE6phR9fX17dmzBywMBGmAddDT0wMwpsfjYbPZ3d3dWGgwmUy9Xj8/P49QR7PZDBE4hUKBHtFut2P/hUhroBaxxEZ9YzQaiWVlZd3d3TB4yeXygoICKpWKFQ6Hw1lYWJBIJJg32Gy20dFRjFb0ev3Dhw9PnDiBWN3nn38ekbb79u2DkM7tdgcCAYPBYDabd+3aBUYPnLc0Gu3QoUMII9br9bOzs0wmE9B+nU73hz/8gclkQjALUAIk3ZGRkdXV1WNjYxCdwPZ39uxZ3Ca9vb2YvrBYLCqV+tVXX+FxuXTp0pNPPgkpQkNDg0gkAqBXJBLx+XwGg+HxeBDhTqPRoqKiysvLsbxcXl6GPBvdGUKSqFRqXl4etJ/9/f345Ox2u9ls7uvrA7hRo9GQSKSSkpK2trbk5GTkZwNo7vP5ZmdnEXyJwqWjo0MulzudzvHx8Zdeegn+sfb2dolEAqpKIBBITU0dHx+fnZ0dHBy0WCx79uy5f//+6dOnL126BJmSWCxGt4Kz6vHjxzjVsD3Al+bQoUNwwUFmMD8/DwBweHh4b2/vm2++mZubu7S0pNfrp6en0fxvbGzcunUrJiaGiNgAJpMpFosLCwuR+PTw4cOSkhLwqzQazfr6OqAPiPo1mUxhYWE2m21kZOSpp55C7uK+ffva29vv3r17+PBh8ExmZ2edTufBgwcxQh0fHzeZTDKZrLa2lkKh3Lp1S6/Xu93ujIyMa9euFRYWjo2Nvf3224mJibW1tYi2R7CXTCb78ccfDx48KJFIHj586Pf7wcxYXl72+Xw///nPr1+/DtnboUOH8Jnl5uZqtdpbt26dO3dupzfp7OxEehUwyCKRCLAMRDMjvBF4T7vdTiAQysvLFQqFXq/HIAvuBLzpVqs1EAjk5OQgshlNKYVCgYZ3dnYWCnskG21vbxcVFaFsQmKE1+uFtobNZufn5wOp+NJLL4WEhKytrbW0tBQVFc3NzQ0MDBw6dOjUqVPQOfv9/uLiYvSDe/bs6e3tJZFINptNp9NFRkYqlcrk5OScnJzLly/Hxsbm5uYGBQVhS8Xj8VAqwTWCoI7Y2Fir1ToxMQHpE4FASE5OJpFIsbGxVCq1vr4eiK/+/n4ijUZTKBRUKlUmk2EvA/4wHBn4OiMRGM8lbgSU9ElJSY2NjcePH29ubmaz2YcPHx4eHr5z586BAwfGx8cnJyehsocu0mq1stns999/f3Nz8/bt2+js5XL5wMBATk7ORx99dP/+ffwQMNaQb42NRiAQ0Ov14Club29jSRsVFYVx8tNPP22322k0msfjycvL83q9YWFhd+7cwa5LqVSCxqxWq5VKJcTrDocjPDx8YGDAZrMFBQW9/vrrZDJZo9EIBAJUcG63+/Tp00NDQ8eOHTty5AhsV3C6j4+PQ1Yuk8lcLhdWYltbW/iSabVaHNeTk5N45W63Gxff4uKiTqfj8/nQtYeFhaHFjYiIwIzxxx9/vHXrFkjwKpVqcHAQDwbkO2lpabGxsZcvXw4JCUlKSvrhhx8gooO3qqura2VlBS8PxTKAn2KxGNlwsHXhzQEgD+8qFgg+n8/pdK6vr5NIJJFI1NDQ8NRTTx0/fnx2dpZ4/Pjx5eXlxMTEoqIioC/EYjGPxwNlC27P4ODglZUVMpmM5GLYubBcJhAId+7cwXxQoVBAdVFfX4/dL75SHR0dSJn52c9+JhaLf/jhh7m5OQaDERcXB2NVIBBIT083m83l5eXV1dUWi+Xx48egCoSGhiIjLCoqCkmRc3NzHo8nIyMDXRnKfsSTM5lMREKr1Wp0VcB28/n8ubm5S5cuQXQikUjwfA8MDEBV6vP5LBYLj8cDphzZSAUFBc3NzfgUWSwWh8OJjY3dwSDjCQkNDcWAC1hYoDTW19fj4+PNZnNJSQkEyTqdrr29XavVghYJoRdMG+ADmEwmLJ/B2kM1ymAwamtrrVYr7DkEAkGr1d67d6+6unpkZCQyMnLfvn0QjpBIJIVCAZrZ9PQ0FgLDw8Po4AYGBmDeRP+Fqa7D4YCrAzZmGJSwgg4NDe3t7YUrZ3Jykgg9nNfrRcieVColkUigVkRERMzPz0dGRmLQhDE8gUBAVhBQ0TweLyYm5uHDhwqFor6+vqysDJUHiGfYZRMIBLlc/tprr0VHR3/22WcTExPIvTYajSdPnpycnJRKpefOndPpdAgtnJychMgN7y+RSDSbzXDGPnr0CBftiRMnaDRaXV0dnU7v6enx+/1SqRTdkEqlOnr06NGjR0GYiYiIGB8fRw4kKsr79+9rNJrV1VWfz1dbW7t7924Wi9XR0QGi8srKysrKSmFhIQamYrEYG/OtrS3MuxBIlZWVBQMRgH2ArINNFR4eXlxcXFdXh8IFuZwikQhzeghK4LTDuAK/oN/vB0QJXHZYMuHjRYQ7fpGBgYFz5861trYGBQWlpqZGRkaKRKLY2Fg2m43pokqlys3NRaCswWAwmUxjY2MwRkDfYzKZSCQSMqUWFxeR6oQgF41Gk5WVBSNBenp6Y2Pj4uIisbi4OCQkRKlUIssNDk9kFTCZzI2NDa1WCysDmUzW6XRQZCF2gkajAfCI8k0qlfb19aWkpIC7OjY25nQ6A4FASkrK888/z+Vy//Wvf0HwQqPRfD5fTU1Na2vr6dOnDx069N133yE1q7W11WazwdiIPt7pdBYVFb366qsdHR04kEEE/M1vfoMxtt1uJ5PJL774IuzpWOj09fUNDQ05nU5Atrq7uxsaGpAvOz8/L5PJUFt8//33i4uLfD5/enp6Y2MDpmWAy/R6PYPBWF5eho4Oalags2w2G5RmTCYTHx5qoO7ubtBp3W53W1sbbhPEFCUnJ29vb4N+AGApCkOI8Wg0mlKpDAkJ4XK5Wq0WxThchnfv3kVVNz4+3traimCd5uZmBoPR2dnZ19fncDjGxsaAZQBHFc4rnU6H4IqamhoErZBIpLGxMaPRCCmu2WxGygXq3OXl5e+++y46OnplZUWhUPD5/KamJoPBQKyuruZwODBzwqEF3R4GglDuDwwMREdHg/CBhQJc1xaLZXJy8vHjx1KpNDo6emlpqaqqamRkhM1mHzt2TGpx1AAAIABJREFUDDlGcXFx77zzDsjAjY2NRCIRS9r19fWHDx++8cYbKSkpFy9eTEhIAG8T/wSUXdhup6en19TUNDY24oJHMMPt27dfeOGF9PT0jY0NkUg0NjaGcL6ysjK4reBZwjvb3d2tUqlMJhMSmf1+f0JCwqFDh6RSqclkkkqlExMTfD5/JzV2c3MTsxDwekCjwIM4NzeHNKOgoKCBgQEALJAjC+Mqh8M5cuRIfX293W4nkUiPHz+GQxOcY+AOkP/i9/vj4uJgzEGsAKBfIpFIJBJh0QPSBLSMEOLAitfX13fixIn4+PiCggIsVqHfQ5wjNmvffffd4ODg4uKiyWQiEolxcXG7d+/Oy8srKCjg8/ng6yPJGv1LcHAwaOZjY2Ner1ev12PgSSSRSDExMWQyWSqVrq2tWSwWPp8PdAxm5xERESKRCEWQ1Wq9c+dOVFSUWCxGDL1arUagLk7LwcHBnJwcaC+gXwLCpampqampCdBOdKeoguVyuVqtRqNEIpHOnTuHNwWz9pWVlfT09NLSUiT0bG5ugpeKYcP+/fsRCaXT6QoLC+/duwfWD6alkOliDQFe0tTUVEFBwfz8fFRUlFKpBM0YCdRRUVGo/202W3x8PMrhiYkJ2LIxLIGXDGyVuro6rEyRKIq3EjVNcHDwsWPHbt++nZSUhHfc5XKJxWLAWJ1O5+DgIAIF7XZ7fX09n88nEomFhYXj4+MHDx7Mzc0NDg6WSqXt7e1UKpXL5SYkJHA4HCwOsYGDtw3R2GFhYcgm5PF4sbGxKpVKKBRWVFSEhoY+evQIXD+NRmMwGEZHR+vq6np7e7GqPHnyZFdXV1tbG4LhEHPLZDLT0tLS09MB4QTlhSiRSMRiMYLji4uLkSMsFAqhOEJOFI/Hi46O/uqrr/COwG1hMpmQPRsWFhYUFNTX1ycSicC+LS0tHRkZIZFIL774Ilb2mEDIZDJQnR8/fpyUlATxrVKpROrse++9B/oI5raAIj399NNarbampmbPnj1Op3NtbQ1QGo/HMz09DVDY3NxcXFzcoUOH0I7BvAMTIZ/Pxxjj+vXrkJ1qtdrY2FgGg2EwGDQaTXR09O7du2FPz8jIEAgEVqs1OTl5fX0djQwATMBszs7OtrW1GQwGyERgq0F2D4KxbTZbXFxcWVlZe3v77Ows5GRxcXHwCALLCScAdGgQ6CBk2Gq1tre3t7S0wMdw/Pjxubk5t9uNYcHm5iadTu/v73e5XD6fj8fj8fl8OHKBX3e73Xq9vru7GyIEHo/X1NSE5aLBYED+SWZmZnR0NLxRbDb78uXLMplMLpdD+dDV1WW323t6etra2jBXTUxM1Ov1RIQse71eMKlramoArOXz+dBpYnLV19dHpVJXV1chjh8dHY2MjJTL5SjmMSbC44tbWSQS9fb2slgsIOSHh4ehwTGbzXCK2my2hISE4uLi6enpe/fueb1emUw2Pj7+5z//Ge69zc3NzMxMs9l8/Phx1MsgzOCmm52d1el0IyMjUVFRBw4c2L9/P7bzwNS4XC6TydTX14f/o1ar4+LilEolYoQgc0EsBIlEUiqV+CQOHz7M5/MzMjIgi8/KykJSMc5wRO2EhobyeLzdu3fv3bsXe2YejycUCtlsdkREhNlszs7O1mg0LS0tmZmZq6urVCoVdkgmkykUCpFFB4Egg8EoLS1VKpVxcXEbGxunTp3au3cvMkC7urokEsnCwgKPx8PFfe7cOa1W6/V6lUolblsWiwUgMcRpsOOCBpiTk4MhHtIgDQYDkDjQWgPT3dfXt7y8DL4jMqu2trZeeuklrVa7urqK35fBYNDpdOJ//Md/sNlsxEeurq7CXTg+Po6UNQaDQaPRgEBhMpkxMTHwDkVFRUENGxQUpFKp4uLioHeH3j8sLGxwcLCsrGxubq6jo+PIkSN8Pr+hoQH7iMOHD2NVoVQqtVqtWq3OzMzUarVzc3OI/eJwOJiXw6UCETJs/gjpDQ0NraqqQsMGQjKwsIjQS01NTUpKkkgkpaWlCCMXiUSYUwGsAPluIBDA6QqONo/H29rawrjabrfn5eWBjoQRy8TEBM6wX/3qVykpKSMjI729vdDt4tuGdAccvQ0NDQsLC2+99ZZSqYTvjUgkYu2FXFUo3aOjo5OSkuLi4jBXhJdHKpXm5eXt2rVra2vr0aNHCFauqKg4ceJEZ2en3++HCaGkpARUftgvYFDFdL+mpqarqwvEF/zw4ODg+Ph4l8sVHR0tEAgQBKXRaGZmZsRiMWaswLHEx8eLxWIAMkJDQ9vb26VSKfH06dPh4eGoVSFN9fv9hYWFEKJGRUXdunUrNTUV8dsOh4NEIqHAplAoc3NzCIDC/Q0+XUhIyOzsrMVi8Xq9586d02g0dDo9JydHKBTOz8/HxsYeOnQIRhgoTHHexsbGxsTEJCcnDw8PO51Oh8MhkUgQ47W0tITzCVqH9fX1lJSU/fv3R0VF8fn8U6dOQcaAGoXFYoFTiCcAgchKpVIsFpvNZhDb4OlaXFxE/4LkpOLi4rS0NBqNRqFQmpubAaMODw83GAzfffcdUh/kcvmTTz65w1Pn8Xhnz55FCAIS0AD3amhoeP755w8fPtzf3z8wMAA/Ym1tLcBJMLXHxMRgy9PZ2bm1tWWz2cxmM4KY8WeGh4cxHDIYDAcOHJBKpe+//75UKo2Pj29paQG3DuNa2BzZbHZra2tTUxOy5dlsdkZGBpfLBeqewWCYTCYAZ3DyzczMYOsCPDCa4Tt37iD9wufzsVgsCGaJFRUVaPSVSiXMPFjF5eTkTExMtLe3s9nsnJwcUGxcLhe0jaDxSaXSoaEhpVIpkUggNWAwGOjC09LS6HT6gwcPjh49ihiN0tLSmzdv9vb2mkym48ePI6tFJpMh62lgYODw4cPb29uhoaEAC2NDASHI4uKiUqmEWWEnSv27774DZ5jFYgGrHRwcDAM3tNPb29tXr15FnjBmsjhUEYYNEmZwcDCHw0GcBngbXC5Xp9Pp9fre3l6LxQKoCUZHFRUVqampTqcTiHOZTIa/aLPZWCwWVql4o/CvI3edQqFUVFQUFhYCvg6haH9//9bWFtwPiCGrr69vbGxE/mFwcDBoIrg0jxw5olKpHj9+XFVVBeExop6mpqZMJhOQf263u6mpCbk/VCpVq9VC0A+9CEhBYLVzudxAIPCPf/wDDR2VShWJRIODg0ql8uzZs3K5HOUEtrZqtZpYWloaERERFRWFxyIkJKS7uxsCT61WSyKRDhw4gMxR0JVAeI6OjoadWiaTtbW1CYVCIDHxHUxNTYWNbHx8fGRkZNeuXd3d3WNjY9iHtbW1+f3+2trayMhIrVZLpVLhvVCr1aWlpZBrrK+vr62tFRYWYpM5PT2NcwUKewSL5ubmdnV1abXaixcv1tfXg3WP5B6BQMBgMObm5jo7O3ft2gWbLlbHCIVNTU2VyWR4kWQyeXZ2lkAgDA0NgRy0vb197NixxMREpVJ56dIlo9FIJpNtNtupU6d4PB7EUGaz+dChQ1BLdXV18fn8goICzGCmpqYAYJ2enkZicmpqKkQh8CzevXs3OjoaKDlE90H/YDQap6amsEnGYA3912uvvTYwMIB1FWKQMzIyMAT3+/1ut9tisQD7/NJLL7nd7qNHjw4MDPh8vqCgIKRHIMyJz+ePjY2BwQHVlV6vB7XRYDDk5eWFhYVhLATRLg4C4m9/+1vYQcHf+fHHHzkczu7duzs7O7lcLjL9wE/CPQJeDw5hzMLxrqEmn5mZwdQ5MjLS5/MtLy/rdDoKhXLo0KGxsTGRSIRvT09PT1VVVUZGBjIPIeHv7e0NDQ3t7OxE7qJKpYIyo62tDbptAoGQnZ3d3Nzc29sL4ixG17ACLC8v9/T0NDc3I7kd7LKQkJCysjLsAdbX13Fx4A6Cx5rNZs/NzWGYjeNnY2NjcXHRbrevra3thG0HAgEej3f06FECgTA8PAwswNTUFM5Ch8ORk5MTFBREJBJ1Ot3U1FRKSgomTBERESEhITg2HA4H6gkAseh0+m9+85uEhAS1Ws1isd59912kd2CZQiAQ4PHH7u3evXscDic/P1+r1ZaVlSEogclkYowJK4LJZBKJRHa7PSwsDNAGgEyXlpag5cByCqgOi8UiFArHx8fxJdvY2Ni7dy9mCjabLTQ0FGrfnJwc4rvvvos8KBqNdvXqVTC+6urqTpw4QaFQAoEAdspwPHM4HL/fjyuQRCKhXMI1hiRHELogR7p69erW1tb58+ftdvvU1NQ777yzsLCwvb2dm5u7urr62WefwcWZn5//9ddfx8TEFBQUgP8XHx+fk5Oj1+sBNGaxWH/605+io6Nv3LiBdM5XXnnF5XKNjo5Cx3r27NmysjKw4dRqNZVKjYiIuH37dmdnJ+5ETC0R/gXIBYPBwI0L5UNqaqpQKPT7/ag9QRqiUqkGgwFbLiKRmJCQgEzFhYUFNNt9fX0qlWpkZIRCocAiSyAQVlZWIJDDSBtsLSqVmpqa+swzz6BDUalUBAIBtSpyPzc2Nl544YWMjIyysrLq6uqKioqKiorMzMyZmRmFQgGsL2LkXS5XTk5OaGgoLDMQLBKJxPv374tEovz8fMRSI70a+Xzl5eVkMjkpKYlGo2EJhegLj8cDFTciudPT0xGzAT0DmUyG5zkESRRJSUkffvjh8PDwf/3Xf0F7TCKRYIqHxHB+fh7St/DwcD6fTyAQdDqd1+tVKBQDAwNwQGEmzeFw1tbWELFw+PBhAGivXLnyww8/7Nu374svvvD7/VVVVYFA4MMPP/z000+bm5vT0tKqq6u/+uorvV5/4cKF7Oxsl8u1srJSV1dXUVHx1ltvYbhEIBDu3r37//7f/0MJggLZ6XRGREQgrnbv3r0PHz6USqXIHMKm6vHjx21tbVQqNTMzE8gNTIcxykR1BbMqdi46nQ7XOdz3kZGREokEHGaPxwOsKmifeXl5lZWVd+/eBQQc3v/FxUXMKxFQBF7+0tLS3r17ATLZ2NgoLS3VarVA0WG0j8UN3m0KhZKWlubz+RBBvGvXrunp6W+++YZEIn3wwQeACiObDPOPqKgoLDqio6O1Wi3KDtjVYG8GFB8bIofDsbm5iZkY/hMtNI1G+/TTT5OTkxcWFtAew8fFYDCIqampGRkZn332mdFoLCoqwl7x+eefR7uF8go0XMyssOkGDZjBYMDnKBKJHA7H/v37YQiYmpqamJg4ceIE8sKRNdzQ0PDvf//72LFjY2NjPB7PZrOVl5d/9NFHZDK5tra2rq6Ow+FABlZTU9Pf3//xxx+//fbbr776KiYi7e3tX3zxhVKpFAqFTCYTqz74TFUqFYgPJBIJeYlgfBUUFAQCARaLhTyT3bt3A3cJpScSxEEyunHjBgZHarUa0zbcyqOjo0iGnJ2d9fv9oI1HREQ8fvzYYrEsLi663W6HwyEQCEJCQlQq1dLS0sTEREJCglAoVCgUHA4Haz+Hw/HUU0+hjOvp6YF1DRmGjx8/Bu6xqqoKyl8MTCF7WF5eTkpKQixfeXn5k08+mZ2dfePGDbVa3djYePPmzf7+frPZvLa21tPTk5aWhgQ+lUqVl5dHJBKNRiPyUvEIwVuFFiw2NlYqlUIXTCaTd+3ahX4QfHO3242SfHl5mUggEBoaGlwuF2xwmPkjogoqGIwOUa4iMhF0F9C6tVoth8NBti1eYnNzc0REhNPpBLsTpYzVao2Pj8fBU11d3dnZKRQKX3/9ddDWsRm5e/eux+NJTk7WaDTXrl176623qquroXGsq6tDwLbf7/+///u/9vZ2DocDGFpubq7X652fn9fpdC0tLfD2wVCekpKSlZWVmpoKaIdEIkGqKBpdh8OxsrIC0EhMTIxCoVhcXARou6urC1suEokkk8mGhoZANl9aWoK8DzAVsVj873//G3Ap4OEZDIbf74dgB0NVoVC4vLzc0tICo6/JZFpZWRkaGpJIJFVVVcHBwa2trXiL7HY7VHaw2sK3rdPpeDzed999B+4Ght16vf65554Dt47JZDY2NgI5VFBQYLFYkpKSoLF1Op3T09M48iG+BD8SPwGMO8Qtdnd3Dw4O4vBgsViQjzQ1NWF2GpKamgoNc2ho6BNPPOFyuQoLCyHsKy8vX19fhwkWMbArKyuRkZFOpzMhIQFLRbyC5557LjQ0tKenx+fzuVwukCqhj8rLy8O4F6rmL7/8kk6nHzx4sKOjY2Bg4MKFCwQC4fvvv09PT0d4dExMzNTUVGRkZHZ29ubmJmI33G73vn37bt++rdPpQkJC4GJVKBTl5eUWiwV8e71eD/03NtVTU1OIwQ4NDQXVGew1ULbheBMIBCkpKfPz82iJqVRqfHw8wMVBQUGfffZZQkKCRqNBnwxkl1qtRmdHo9Gmp6fxo4BInJiYwDoGem9wNBITEz0ez4EDB0JDQ1tbW1ksFkr7e/fuwdyKkXFUVBTsnCQSCdjFuLg4g8EgEAhmZmZoNNrMzAyuJIRoicXi6OhoAoFAp9Nra2tv3Lhht9uDgoIwCsd8BU0+vNmQAaytrYHBgXwSr9cLJH9ZWRnOgo6ODpA4sG39+c9/HhoaSnz33XcjIiK6u7v7+/vPnj3LZrMvXrwI+jvaHAgebTYbclLgXsdGCrDR5557LiEhYXl5GZ0ePHN+v5/NZre1tXk8HpzVAwMDmAQTicSRkRGHw3Hz5k0ul3v48OHe3t65ublf/epXmG8iV3Z8fDw7O3tgYOCDDz5ISEioq6tzu92JiYkXLlzAIhoS3NbW1sHBwcrKSoFAcOPGDUyi2Gw2kUjk8/kul0utVuv1enBjHA5HX1/fs88+i65VKpUeO3aMTqejK15cXFxYWBgZGRkdHcUpiDg65A8BkSuXy8PDw+H13d7ehmnI4XBgPqtUKsFZ5HA4aH3r6urg6CwrK9u9e7fBYJienl5bW9vxGFgsFrfbnZeXFxMTg5k6HNhqtXp+fp5Go2m12qWlpfz8fJlMBhGxw+GorKxsaWkBSCczM/PevXu5ublJSUmYj5PJZIVCMTo6Gh4ejjSS8PBwMCPDw8PtdnsgEKBSqTQazel0rq6uYnsQGhqKqdr29jaNRkNCI4VCIb799tvb29sIV4M2AvZawAHQO1mtVqRBI3YaEimEEx47dgwZtjdv3pyZmQGtEPoDIA+WlpbIZDKYERUVFWazubS0FF5TvV5vMBhWV1eRrHD16tX4+Hhg/CcnJ81mMwB+wLPAUYcxXUZGBlAzQUFBKGJefvllh8Nhs9lyc3OBZu/r67t79y7i6MPCwtLS0rhcLniSSO4tLy/Hlo5IJMpkstjYWIFAgKwq+C43NzcBvEDRYDQa6+vr3W43KhuQyrhcbkFBAf4wgu5GRkbgKRQIBGtra5jQDw4Out1ufP+ys7NHR0d37959+PBhYMe8Xm9kZKTb7ZZIJMDaQtC089GCuhkaGooEKT6f7/F4QMovLCz0eDw3btxQKBRYFyAwD9QgFIvYXiERCrckgl88Ho9erw8EAiBP4fgByw/3WllZWVBQEFEoFKpUqvj4+Pz8/E8//VStVv/kJz/BdjchIQE7C+jlsczEPwCh7yuvvIJBRVNTE9R7WIjn5ubiUUAApclkCgkJSU9PFwgEYFEePXrU4XAYDIZXX321ubnZ6XTqdDrQUfbt2zc9PT0yMgIabE1NDdLa+vr6AoEAdIQgRKADRId2+PBho9GYn58P7er4+Pjq6ir4Y6urq3fv3oWMdHt7+8yZM3Q6HXMdm82WmZmpUql0Op3ZbN7a2sJBVVtbC2RZdHQ0hUIRi8V6vX57e5vP51dWVvb19cGBEhUVBdwBcKCQ4URGRmLeOjc3Z7VaobNHS4mVPdJCDh8+HBsbi8CTQCBw5swZ/FI78jAEv0ilUpVKJRAIEPeJ7YFEIgE4mUajgRfU2dlZUlKCxNm2trZr167Nz8+jVYE8FCcEnnMcmWhYJicnORwO5LQOhwNjDpPJhLjnuLg4r9dLlEqlERERVCq1rq4uPj4eNhvsaJKSkpBHD6mizWbD9YYaMyUlBbtsRKgmJCTgfUdwkclkqqqqslgsaMSVSmV8fDz036CBFxYWLi8vh4WFnThxAhyf119/nUQi/fnPf2YwGCUlJVwu94knnoA5dn5+3mg0UigUbCbh8IZPfWho6JVXXkE3Dk78yMiIVqudmZk5efLkvn37YFeEbX9mZgY/CmH1EokEUWiIHwTuUaFQVFdXR0ZGrq2tpaamyuVyID2gmMG7FhERASsNLhRMMN1uN5PJJBAIQqEQ4wpUoGgVURUhUxbVycjICLbrUHUIBAK5XA5XFeAiOp3OYDCEh4cjkCMmJgbaRyRDzs7OCoXChIQEp9PZ2dlZUFCADh/DkoWFhY2Njfr6+lu3bs3MzExOTqrVauiYgJ3B2P7u3buFhYUJCQnYpVMoFNgE5+fns7KysLgIiY2NjYyM/Nvf/pacnJyWlnbs2LEPPvhgYmLi4MGDDx48gLu6r69PLBZzuVyj0Wiz2Xp6euh0ulQq3d7efvDgwd69e+Pj46FhLisra2hoUKlUn3zyCXxsdDrdYrFIJJJAIIBzCLOBy5cvYyfZ29v7zjvvvP/++1Qq1W63M5lMpKr98pe/BEI/IiJiYmIC1Tg6UpjV0NTB4Q4fPXRA2NfA24d1fE5ODp7Cra2tL774gkQi7d27t6qqanJyEttjvV4P+AUuJnSbaWlp+ELDzgn8JpD5y8vLoIwymcykpCQYEXw+39TU1Pr6OoYi2MTm5OT09/cLhcLMzMyJiYm+vj74pa9evTo6OkoikTB0t1gs0MhBBpWfny8SiZhM5sTEBMRggCdgJw+KWGRkJIzEHR0dBALhxo0bR44cwTLhzTffXFtbo1Ao09PTbrd7bm5ucHAQNl273R4dHQ0BAxQn8fHxUVFRCA7EMY8s9rS0NLfbPTExQTx+/Pjf//73rKysnJyc2NhYtVqN5QIs5/hcd/yVOMN3794N3RQSy2HVxI3rcDggZl5cXMRdCPtoIBCAThitP3xNAwMDlZWVly9fXllZSUlJ+eSTTyCuAW+5p6fn8ePHPT09sbGxiI7HHgB0NWxuUfoBkIctTEdHh0ajsdvtUVFRJ0+eRPAKWnS1Wj0zM4Ns5fz8fAgbsFnFF0smkyHcfnp6enBwEOVwSEgIbK5msxnjzrGxMavVipU6OJlhYWGYl0C9BpQlUt83NzcRZKBWq1dWVqCZamtra2lp2draQjWgUCjy8vKQ0hEWFubz+UZHR+vr61GFTE5OymQy/HzQf3ft2jUwMEAikZCe2d3djS2u2WwOCQkBBwB6dThhS0tLJRKJ0Wjcs2cPEGqTk5OQX+l0OpPJBG4ztHksFishIWFubg7k0tXVVSK0vnK5HBumzz//nMPhsFisO3fuxMbGSiQSTGp5PB5yJGtqajIyMlCXoQyEABPaTCqVWlpaajabl5eXIZrCVBHei50BMAY4YWFh9+7dy8jI+P7770GFT0xMlEgkNTU1UNyguMFdS6fT4f71eDyQUi8tLbW2tgqFQgTOYUiKGT/atoqKCiDtMIwCyxVfrISEBBxm29vbNptNrVYfPHgQX2hYXrlcbm9vb0dHx48//ojNcGxs7Pb2tkql+tOf/nTy5EnAn3CtIOkGhBI8kRaLBQUjlUqlUCg1NTXp6eltbW2vvfZafn4+QOHY0yoUCovFAu4v9m2IJ4R7HnulnZe0uroKxSc4PIFAwGg09vX10en0vLw8JP6sr68jwINIJDqdTiAIUKcjZjQpKYnJZCJJt6CggEKhTE1NWa3WL7/8cm5ubmJiAuTc7OxsAoEwOjpKrK2tzc/PZzKZDofj4cOH2dnZu3btAtQKuThQsDqdzvb29vPnz6ekpPzwww+rq6uFhYWbm5tWqxVZTHh6YBCdn58HwhV6eqlUymAwWltbmUwmhtP4OoaHh3O53MbGRqy7BAKBQCCAocbj8SBEhsPhzM7OGgwGLBQEAgGfz4fSbmJiYnh4WCAQHDx40O1244ydnJwEg1AkEuXm5gKaFRoaajQake6OKLQHDx7cuXMHZqTw8HCj0ZiWlsbhcLArptFofD4/MTFRq9WC/WI0GgH/xGg4KirKZrNRKBSbzZaSkmKz2fC+I9ktPDycx+ONjY2JxWIEvoIqtr6+rlAoAoFAc3MzGIccDqe2tvbChQsZGRmQT0Dq6/F48PsCr4XERUz8EM+F0RGFQjEajePj40BFwFEhlUox8uJwOLid6XQ6yD+Y7FGpVFyddDodn3tKSsr58+cFAsHU1FRHR0dfXx/wk36/v6enJwS1AqZPCQkJ0Pnx+fyOjg6VSnX58uXq6moejzc+Pv76668nJyd/+umnCwsLGP6XlpbSaLT5+Xl0MT6fz2g0qtXqyclJpHagmhOJRDAGj4yM4P1dWVmBUOPixYt2u72yshLSL7FYjFYC0NKdlBw+nw9br8vlAq0PblsmkwlpNFp0dNpQnMvlcrfbbbPZECOHcZPb7ZbL5enp6VjTz87OLi4uQkh869atsLCwXbt2YUqNUAeAWVJSUi5durSxsdHU1CQQCBoaGlCtY/PQ398fHR2NpReZTKZSqdiBeTwesVjMZrP/9re/tbW1xcfHV1ZWMpnMrq4ur9eLsJtjx44hqgV+LXT1XC4Xwu8bN26sra3Bm4nN8+bmpkKhAJvaarVCNgvc6NjYGJvNnp2dhUwVsjpU1nDNIbWZyWTCQIRw5tDQUJPJFBcXBwc5XgmaprW1ta2trcXFReKJEyf27t2Lui8rKwuF+o4B1eVyTU5Orq2t/eQnP8nKyvrwww9VKhWbzY6JiVlcXASjQSqVzs7OstnsmzdvQtZ7+vRplJYajSYqKkqj0dBoNCTI1NXVicViiURCIBD++te/ut3usrKymJgYr9drsVgwsMJND1Y/j8cDboVGo3G5XEhlkTo7MzMzNTV14cIFwN08Ho/RaMThAGvnAAAgAElEQVTXBbwTLpcLzURQUBDkhogaRWkChToSfcE+tNvtfX19cJDj3TEYDE8//TQcPQaDYXFxsaCgYHh4uLS0FNdicnJydHR0cHAw5D+ZmZlhYWEgL2IhjEndmTNnfvzxx7y8PKlU+vDhQ4hUhoaGqqurkZ0FXyMSXQwGA8xslZWVpaWlwcHBP/74o0qlQlggEhcRuIbIFMRPbW1t+f3++fl5MpmMBR5sEGQyeSctGWMPiIWxqNoZJmEvi0aBz+eXl5fDn7ywsBACkvzx48fv378/MzOTm5vb0tJCIpFefvnl69evIzhhcXGRTqf/61//mpubS09PT0tLg2L+yy+//PnPf85isaqrq3/zm9+A71NTU1NRUREXFzc6Ooq6obi4WK1WAxzr8/mam5uFQuHf/vY3v9//7LPPRkdHNzQ0vPjii2FhYV9++SXqf7FYjG3F2toaTgJMQdhsttFozMzMxHwwIiJCIpEQiURM+UZHRzGlFggESqUSrQ1mz5CqA0UEwU5sbCwiK1D0+Xw+UKaRPTg8PAzp3l/+8hd85Ha7HYsqwHnMZnN6enpiYiL0Eh6P5+bNmx988IHL5dq1axd8exEREWVlZUePHg0ODj569CiGkMD1azQafL3AsoIs3ufzORwO8NOvXbsml8uFQuHY2FhoaOjVq1dhPoWtHBGqFouloqICBQTWb9PT0xUVFQaDAccwXjmJREKfshPghHzLlZUVZIfI5XKtVovrDAlrAA7q9XoqlRqC4tRut09OTqJ6AFn70aNHzz77bFBQ0P3798lk8vnz5/fv319VVVVVVTU6OqrVarFurqure+ONN27cuGG1WoODg0tLS/GIwFmDHbROp5NKpV1dXU888URRUdHo6Oinn37qcrneeOMNkObPnTuH9qe6uvqPf/xjSUlJTk6OzWbj8Xj9/f14QJOTk2NjY7GK5PP5o6OjHR0dMNaur69jFoSiFaQaHLZQQgFlkJaWxuPxyGSyy+VaXV0Frt/lcqF3QEvP4XBKSkp4PF5dXV1OTg5S9NbX19EiQXKMmAOIS+DPw+WCuM+goKBdu3bhu9jc3Ly8vIxISTqdjg0+zMxzc3O7d+9OSUlBYjKiUslkckVFRWRkZE5ODiIGEMNIp9Nxj8vlcjKZ/O2333Z1dfl8PsRl7t+/f2NjQ61Wt7S07N69e2RkhMViEYlEDJGh/ELQttFoxO+Orw6Kp8jISDA+tra2KBRKSEgIJGeYcgUHB4dERERsb2///ve/j4uLq6mpmZqaQqLIw4cPIfjAte3z+a5du3br1i0+n4/pDUh+09PT//mf/ymVSt96663W1takpKShoSEgN6uqqhYWFjCVByb77t27tbW1AwMDTqfzF7/4BdjcVVVVa2trKL+5XO6TTz55+/Ztn8+Xnp7ucrmw9EFKMshMmZmZUHJAU4NDwu12g8yG9VB2djZsH8HBwahGp6enofxAfhkMS5g5ov8CjmtxcRFPKlKI2Gw2xGmoBBMSEsLDw7H0hxocOG94Ia1WK/T3O2LvU6dO+f1+j8ezvLwMWlBcXJxer3/06BF0J8gdR+yfxWIZHh6GCwaWreLiYqFQeOfOnZycHIguduot4JDDwsKYTCbCOYDr+d3vfmc2m2k0GqiHLpcLQdu49FHuJCcnI21Yo9Fsb28nJycTiUQA45GZAZcy8B80Gi1kZWXl2rVriYmJCQkJ29vbZWVlPT09CG0xGAwhISEnTpy4ceMGYFk//elPv/zyS2wQIHs0GAyRkZHPP//8F198YbPZBgYGSkpKdnCzECsEBwdDoSmRSH7/+98rFAqMUi5evHjhwgXksQNNSSaTVSpVSUnJysrKo0ePkEe5e/duCC8QFHT58uWFhYWBgQG9Xi+TyXB4IJ0ONzTG3hgAwOhgtVozMzObm5vj4uLg8MBc1ePxYJ0hFovxnuK71dra6nQ6EdgVHBy8traG8gXjUbDC/X6/1Wq9ffs2+jL0qIFAoKWlJTU1dd++fSEhIRi2ImBKr9d/9tlneFU8Hg8XKIixUPTB3EuhUGC6cTqdMNSYTKaCggK8BkTSLiwspKamgveE+gwzfiyhUMPx+fzTp0/jIbTZbBsbG998841UKkVqA5/PDwoKKi0tnZubg9QoJCQE+Pytra20tLSVlRWEPhQXFxPdbrdIJEI/jRsuPT29p6cHC3R8D+Lj41HQra6uDg4OJicnI0q3o6NDp9OdP3/++vXrw8PD8PrNz8+bTKa5uTmMOwOBAJjPJ06cePjwoc1mq6ysRIC5WCwGnSEsLAzb8+bm5sjISMQ5qlSq4eFh9AXwJvF4PKgVsWhwOBxnzpyBJB1LDXAjtVptbm4ubA0hISE+n6+rq8vj8YAcMTs7q9frFxcXkZkBoVd4eDjiiNPS0gBiSE5OhnXg1KlTbDY7Ly9Po9Gw2eyNjY28vDykI4aHh7e3t+/atevkyZMwkTscjuDgYIjEbt26tba2hprpwYMHfX19R44cwfGZk5MDRPPExIRKpfr++++hBAsKCuJyuUwmEwP4iYmJwcFBn8936tQpgUAAOvvm5ub4+LhMJjMajXgSYBAZHBzMyMiAPRjfJJBCYYw1mUxwc1VXV9+5cwcBAR6PJzw8HGCSpaUlr9eL4du+ffsgQXr8+LFSqQyByRaTQY/Hg/77zJkzTCZzcHCQSqV+++23P/nJT4qLi4FeXVpa+vvf//7SSy81NTVRKJTi4uJvvvlme3v76aefdjgcDocjPj4eJTpScBYXF/V6/csvv/yPf/zD4/GcPXuWSCR2d3dXVlYiP/bmzZtFRUUbGxsajYbJZB4+fNhsNlOp1CNHjvz1r3+F0HJpaQk4Q4w419bWDAbDTnYzmUweHx9XqVRAb8MShp2c0+mEtwq5HDCMwcaNscrW1hbGvhERETCu4hhHEdrU1LTD6oyJiSEQCJBTIHYOUB1EiCAeWq1WI4ZxYmKCxWJ9/fXXly9fTkxMXFtb43A4CQkJq6urFosFiVJVVVU4NpB0jq8vZIXx8fGomQKBAMjxgElhRoz816ioKMQaYRGB6SLwKkFBQaAlQFDi9Xrx17FHw7wAHlI2m11WVoa3COWg0+l8+PAh+Jx4N4hvvPEGkswBBMBQKysrSyqVYtIHm25SUlJqaipSZ5lM5oMHD5KTk5OTk/v6+oKCgvbv3w/BM9SBFAplcnKSx+NNTEyIxeL09PQ333yTRCL9+te/hvLo4MGDQPFDwD06Orq4uMhisfA9w9Bze3sbKmIkk4SFhY2NjVGp1KNHj0IYRqfTz58/j5BUkFXsdrvNZkOGGnoZ/C+MTDgeYO5CinFsbCxWdBaLBXEAHR0ds7OzXq8XiiG8jEePHvX09EB33dnZOT093dXVNT09rdPpxGIxskEXFhYgizl69Oja2hpWgzweLzIyUiAQYE6DDYtOp6uvrx8eHiYSiSAkdHZ27t27F1Wk1WplMpkkEmlqagrWMoVCAZoL6mKQYc1mc0JCAppVDH50Ol1JSUlcXBxQqkD5gt9ntVqXl5fNZvNzzz33ySefBAIBXDQAeSBgCFEAmZmZOIewfUSHTMzIyMjMzNRoNDsmesirIiMjg4ODZ2dnoRlDw43hscvleuGFFxDV4Ha7d+/ejVIAMTQ7ax2Hw4EYvL6+PkjhZTIZ7OB+vx80G0Qyer3enp6eV155BQc1ykxYFhITEzEGSEhIwDcPQ47p6emYmJhnnnkGVpGlpSUwXpEOcOjQIafTifppbm4OEnypVIrVF77KmBpj8iaXywUCgVAoxA4BbEIEjMhksqeffppEIl2/fl2tVu/bty8pKSk5ORkVLuyZwOyAIlRZWUkmkxFIhSkWn8/XarWwhni9XnggQPWEeb2np0csFqtUqs3NTaFQCHstrkjAKb/66itks1itVrVaLRQKMUODCsTv9/f29hqNxlOnTmHYGBISAuEIXpVKpZqcnETGUktLS0ZGRkpKCmQ3gIxzOBxgtMfHxwHBBt4Cc33isWPHHA4HYDIEAoFIJAJS2NjYeO3aNaQXFhQUkEgkrA35fP6LL74ol8slEgkSFAUCAbRuGFsBxQHhu0aj+fDDDwkEwvHjxwkEQl1d3VNPPRUeHv7tt99GRERgmINviUwma21tVSgULpcLixXIj4ODg3NycqanpzEi3N7ehtRodnYWpj21Wh0ZGanRaEwmk9/vHxkZqaiowCQRvYZarV5eXoaPGdr3qKgobFLQIEBKB60Qpv4g3OGAWV9f7+rqgnMJtEzEOAmFQgTNYpHkcrlwkACAhpvL7/fDrYltvs/nA9gfNHNouBQKBT5yi8Uil8sRlru1tbWxsYGkgKWlJavVCo+Z3+8fGBjg8/lmsxkAPrik7t+/bzab9+zZg8UFyhFU8eBCz8zMQJvd1taWkpIC0C+DwYCvoqCgoKqq6sSJEwUFBV6vl8fjeTye0dFRg8EwNTUV0tzcvG/fPgBeMKthMBjffvstKnOZTKZUKiEER7wSEA+QaOfn53///fdCoTA2NhYDcjBfsRTEi3Y4HFtbW3v27Glubq6pqcGdgoTK+fn5Z555Brrfvr4+q9Xa1dWVmZkJhzdEnaDWHz9+HNICqIsTEhJSU1PFYvHw8DDeL51OB0EkFMV4klwul8PhgHGexWIJhcLZ2dmxsTHgOpKTkxUKBRaKRqMRgxw8u7BBY7ZLpVJhpNu1a9elS5e0Wi1aIWS/49C9e/cunhOwJ3aYfZiSDQ4OQuOSk5NTXFwcHBx8+/ZteGO5XO7U1NTc3JxSqQSqD57IrKwspVJptVpxTUAJgJh6SIHwsnHegFMKixOW4XD04L2CBdDv9wuFQihCIGAjEAg7bm9wSgBmjo+Px3YFcPO6urqQoqKiixcvmkwmqHLMZvOlS5dMJlNOTg4wziwWi0ajffDBB+Hh4SdPnrx9+zZM/fX19Vqt9r333quvrycSiYhpotPp8PBB1hAaGnr+/PmhoaE7d+5cuHDhd7/7HeS+LBZrYGAAXgeJRPLZZ5+BHgYCYn5+Pn5bWBGZTKbZbLZYLFwud2Ji4s033wwNDQVRCNAHmUwGYuTs7Oz+/fudTueVK1eys7MnJibS0tLEYvHg4CBAiZGRkV6v1+l0mkymGzduBAUFsdnsHdo/yjeAbshkMoaz8PlBsebxeBISEsCfxVgFWQDwgSJXe319HYBvsDcx+d2zZw/yryBOQHhBXFwcuu6ioiKbzYY6D2tOYPxx8e1QQJ999tmYmJji4mICgcDj8WCeZbPZ0JMjpt7v94MeGAgEsJlaWVnBQAWZoYFAAPpqOp2OB4BIJOJHQWS0U8cgwrGsrIx49+5dkKDz8/OhwEPIaHx8PJfLlUgkMzMznZ2dLpcrLy8Pva5Go2lubiaTyW+++SaAiLg14+LiMAshkUjwg8DQtrS0BCAFvjRQkXG53LS0tKGhoc7OTix6kM4Buj4KFCSQ4NUj7Ac8oOjoaIfDMTg46HQ609LSsEUDNx3cQaPRuLGxgT8MUzWuA7SgKJPRMQIkrNfrgX6bnp42mUwcDic6OhpDTyTOjI2N0Wg0t9v9hz/8IScn5+DBg0VFRchzMplMERERWDAhHRAkMYiiEfqmUCh2xBLwJQArFxYWxmazk5KSvv322+Tk5JGREWw3IdfCjgxl2fr6+sWLF2Uy2cDAALa44eHhXq8XWus7d+5AbQ9QgNvtRo2CBTUWcmfPnkWOGzbP0PFQKBRMYKGbQQIO3nn0HzqdjvjOO+/k5+d3d3dDbLy9vY1oI1jrvF7vpUuXwsPDn3vuOa1WizAy+JpeeeWVurq6H374YWNjAwzXpKSkzMxMEomEgy4sLAyk4tra2ps3b4pEooyMDK/XC+URFFAikQgPKxzFaKAYDMbU1FRMTIzT6YSizOl0yuVy5K34fL6RkRG9Xu9wOI4fPw5rCSpT5Dvjzm5ubs7MzIRauL6+XqFQsFgs1AoQqcvl8qKion379iUnJyclJcXHx6PhBz8ZY1a4ZG/evPnMM8/MzMw4HA69Xu90OuGrA7klKSkJVmkASABIUqlUi4uL6+vreDDodDrMaVjvwRUApQT+0eHhYfA8kMdbXl6OkSMOA0RgA0gJfwYk3Cj87Xb70tJScnIyIudQCeGQw/FmMBgCgcC+fftaWlpEItFOohlI68Aj7EAT8WaiKoVTJASVKYitMET19/cXFhbCe3Pv3j0Gg5GTkxMVFVVbW9vY2Hjjxo3ExMTnn3/+0aNHjY2NWVlZd+7cKSwsfO211+rr66Ojo+VyOfw8ExMTTU1NpaWl7e3t6enpeDJu376t1Wqx2YIDY35+vrGxMSwsrKioaH193e12o80D+QhwOi6XCxwKbBwff/xxU1MTwrwwIAfEAJcunrmysrKCggJExCMAFSc8Ig8QuIEyk8fjARGAxR4m3FgHdnd376ygo6Oj6+rqRkZGsHbm8/mA8fl8vri4uLS0NFx/VqsVTa9AIEDIE4/Hw84IHzmSyLFwwAMNHR1KVHgv8GohGcYYDXQxr9dbVFRUX18vlUpBBQaHjU6na7VaKI9QEcLJDWsL3EywdyNPGPcdaJRWqxU+eFyFBAIBlRNeM4FACPn2228fPXqEgQGIzwAyQSCZlJQEooTL5aJSqXv27BkaGuLz+d3d3V988cXRo0evX79eUlLys5/9LCgoqLGx8be//e17772nUCju378/Pz//1FNPXb9+fXV19a233goPD//oo49A9rTZbPBdzszMIM7s/v37gUDg5MmTcKZjOTc1NSWXy10ul0qlMhgM//3f/02n091u9/nz5xEGhacHm0ixWIwYRrfbPT8/f/jwYVjg//GPf6BCQswD3gK0MDhs0fvAxQrjWmhoKLpBs9kML1ZWVlZ/f//ly5exbtVoNCMjI/fu3dvc3ARYBq4LUBLJZDLY/vjnYH3FsRoIBGZmZnJycqCFg2YdsO+kpCQgvlJTU9HNBgcHb2xsgPjS1NSEYTcEaZDX4CdTKBSNRgMsCtYRQJ7C8bSzW0aEBm5/tMTgSeEUwZuAmSEuGoRWu93ukHv37snlcoVC4ff7Dxw4MDo6eu3aNXhyIMRisVg7J/nW1tbPfvazpqamK1euZGVlPXr0aM+ePS+99JLRaPz222+vXr3qdDrr6upWV1cfPnz4wgsvLC0twY6bl5e3tLQEUh5SiVks1ujoKLQpUqmUSqX6fL5Hjx5VVVWBKZuYmBgeHt7c3Ox2u9ls9nvvvYcOmUqlejyeP/7xj1euXEFMCjrY8fHxra0toPtXV1dpNFpMTAwypi0WC+51mMcyMjKQJYXYKLwjGAshfQGNN6RJGo1mcnLy448/Rs48yOYWiwUxic3NzQimDA4OvnLlCg6b9fV1v98vk8nW1taoVGplZaXP58NHPjw8TKFQYmNjER9AIBDMZjP89NDcYBkE+SaQO6idFxYWAH5CBihSXODPgL4kLy8PgU9YRyAzBB0QKrCZmRmMVvFDMNqGBgrFOC41iGdxNkPkRjxw4ACAZvn5+TMzM3a7HTl+UqkUdHPovPE+YvIfFxdnMpkeP3585syZJ598cnFx8eLFi+3t7YFAAJfF2traq6+++oc//AGFt81mAyVXqVTCtk+lUpH1oVarU1JSMGpDuDNEhyEhIR6PJzo6GpqmF154AQMbnNUolQAT7+zslEgkOJOWlpZgCAgNDX355Zchk8Fdee7cOQSVtLS0/O53vwOfFFQcXNhMJhN1D+oJoMOBG8EyHLnaeIhh+9br9S6X691332WxWImJiTweD4M1VMGIK9nY2KiqqkITDimWyWSCJApOKhaL1d/fD7E7jUYTCoXl5eU4nGClgdX2ypUrOC0sFstOgYnn3m63w0gM0zUm7lhpwd63ubl59uzZxsZGi8UyNTWFDQO+tUKhEGcqylUUJfhP6KSmpqZCIiIi2Gx2SkqK0WjE4xsbG1tTUwNgI1bV+DtUKhXwGTQ4EL8AErSjOS0sLGxoaEhNTW1vb09ISBgaGtq9e3dubi7o5j6fr6ioCMYquEgAOExPT0fWUWlpqUql+uCDD9555x1kE+/Zs0epVP773/9+5ZVX8DlhPE+hUFwu19bW1tra2v/+7/9Ctw3vYXp6usFgeO+992DdM5vNlZWVarV6p48wmUx0On3fvn0LCwtwk2dlZQE4y+Vy8a6BR0Umkx89egSwbEVFBbZoEANjOw8sj1wup9FoOp0uJSUF0XRgw+84AnFKbW1tId8IHwbctmFhYdBbLS8vZ2RkGI3GS5cu7dq1C9macJ6Oj4/39/e//vrrLS0tGxsbg4ODTU1NHA4HxkfkWYMWCaE1ThFYZqDGJZPJa2tr6enpmGtAQef3+6GRkMlkkD1AD7u5uYkqBLKSELlcjoirHR7h66+/jr022h4MYcCMAOVnZmYGJPLl5WXM3LhcLoPBuHHjRl9f369+9auurq7Hjx9XVFR88sknIyMjr7zyCr7mU1NT33//PQLFISGTy+UwtCUnJ+OxS0lJ0Wg0H3300S9+8QsgHqxW69TU1PXr16ERxJzH5/P95S9/YbPZp06dWl9fHxsb2zkA4LMymUwjIyNYfHO53OLi4uXlZbhpCATCvn37KBQK8uHIZPLevXshQ19dXa2rq4OnZnh4GG89SpCsrCzEtqNJBlu3uro6NjZ2a2trfHz88uXLXV1dYJMkJiaWl5cDk4+oGoTgQPkARRIGHnh7L/9/rt4zLOozbf+nDDDAUIYZYGAY2tA7UoygKNZoDIklGk1MojF1j93sk5gc+2xJ22xJdpOsuxtjmokp9hijsStYgaBSpQ11YGgDA1NgaAP8X3zy3D+Pvy883KzC8P3e91XO67zO8/DhrKwsqC3AqQzOEhMTIYUEBATU1NQsW7YsNTXVyckJkA2BWpwqESnR6XRpaWkJCQl2u50iCX3mlpaW6elp+LZINlI5sFV148aNyclJBFiF7Z9Wqz1x4kR0dLTrW2+9ZTabWfoICQnZvn07ZRT1Cz+Dp6cnq7x1dXUVFRVlZWX4kB86dEir1arV6qSkJOTxt23bxlf38PBghOvt7V1VVYUyKTQWBrYKhQKproCAAEjqCoUCwIpLefTo0cTExKampt27d8fGxqrVaniTDofDZrMdOnRIKpUmJSVhXfXzzz/HxcVt3bo1JSUlPj5eqVQ+9NBDvr6+eG05OTmVl5ffvXsXVx21Wp2TkwMm29jYuGbNGnpRfD8GBgYaGxvxdQcgGR8f7+zsLC4uZt2NdnRmZmZwcPCRRx4Boujq6pJIJCEhIZWVlS0tLehCu7q6ZmRkgK2hJdTX1xcXFwdFA/JiX1/f3r174RbxkRQKBSOV+Pj48vJyTgxIBqN/VoXZMoyOjs7KysrJycnJyYHehjVAXV0dJhxGo/Gxxx7jLQwNDY2NjZEHWdrDHiMhISEtLS0qKioyMhKWZGtra1NTU1NTU2RkpITpQE9Pj7e398KFCynpgWVA0xn66XS65uZm7J6ef/75pKSkr776Cg5zQUHB1atXoVawgoCdj1QqPXPmTF5e3qlTp86dO7d161Z0XTgHCQkJo6OjiHPK5XLQa5lMBvDA6tQHH3wwMTGRmZnJzfP19f38889XrVqFoRNQMf52O3furK+vP3To0Lp16zCyzMjIKCoq6unpYUUDeilzEOxXIdyj3q9SqegO+vv72SqdnZ2Ni4uLjIyk2WEz++bNmzBYFQqFVqvt6enBmsfLy6u2tnbhwoV+fn4LFy60WCwNDQ3Em9jYWPh/vBUG0RMTE+zXBAQE9PX1QWJlTQlVxYiICPjPNpstODh4cHBQp9NFR0dj4w1kztyfdV9KkNjY2ICAgGXLlh05ciQ/P99isZSWljI9xhdRoVDo9XqqXalUSgigB4Yt5OLikp6ezlDWZrM1NjZKJBLXJUuW1NbWLlu27IEHHiD48DsFC5Nlq9VaV1fHdsyTTz4ZERHx6aef2my2+Ph4li5bW1t37NjBKp7ZbIbWxqbGsWPH0PwYHBxk03poaAhjXgQe8d9Qq9VTU1PQVijW1Gp1ZGRkU1MTBQQloYeHx+HDhzEpAMsRnKCsrKyRkZHe3l4XFxeUNrq7u4uLi+vr67u7u4eGhsxm88zMTEBAQEZGxvr165FaIDo2Nzfr9frU1FSLxTI+Pg4NKjg4WKlUgpHrdLrc3FxECvkw4+PjLS0tBw8evH79Ohw+V1dXhlOJiYkrVqyQSCQ3b96ERdbY2EhHis4/dSgr+RA1XFxc0JvPzMxcsGABJqfr1q3TarVALCEhIStXrty0aRMMZKoCfihOLQSXiYkJo9GI7tlDDz3U1tZGki0rK5uYmEDcnW/HQAoBEswwACFZEHF3d2ebbtGiRa5zc3Mvv/wyFHBPT08k6mBLw02ifSopKRkaGvrVr36lVCrPnz8fEhKSkJDw8MMPNzY2dnR0PPLII729vYQcAD6mpjAzLly4kJSUJJPJ8HNUqVTCPwV+NnYcQjUFBQpIBVqttri4OC4uLjY2lsgxMzMzNjYWFBQEGsg3BefIyMhobW0tKysDlr5z547ZbI6KioLFQwXKEmJDQwOjXRqEq1evXrp0CWFdUSvAV5qcnOzs7JyYmEA41MfHJy4ujn0TFPTCwsIWLVrEizcajefPn0cdv7a21tXVFcMW+NVg/3q9vqWlBcqjt7f36dOnx8bGQkJCiBBLlixhBK1UKlGlSkxMjIuLo5VDriEvL4/F4GXLliFig4Cx0WgkB8nlcmdn51u3bpEcoqOjb968OW/evPHxcUBeUF2qHMpNf39/vV7/008/3bp1S6PRzM7OmkwmJKhcExISrFYrcybmPUz52J6dnJysq6s7evSoXq//85//7Obm9pe//AWK+fbt23U63UcffbRlyxbMWcXyCwxK0DqM1SorK8+cOTM6OlpQUEAHyAoxtCjuvVQqZS4FhO9wONidiYiIwHyepVFgieHhYVQrZ2dn6e8pxdVqNeeo5WgAACAASURBVEhDfHz81atXs7Ozw8LCBgYG2B9etmyZm5vbjRs3EKSAOIj3b25u7vr16zUazeLFi4lMJpOJfSK0mWJiYlh7FAIIiFR1dXXV1dVhABocHBwcHIxsIXrw9B3I+IgtBIPBYDAY4EDZbDZ+kKqqqpmZmYcfflhsvyIkZDabAWASEhIQMRcsV8ZVeXl52dnZKSkpaI1MT08jB9TR0VFaWooMHdZp8ND4MMwXscIBQ+Op4rmO0jrsDte33nqLQTyEBmabtG2MGPbt2zc+Pv7uu+9OTk6+/vrrSUlJ4jz+9NNPL774IiJVsIE4FqSqyclJ+uSoqCgIpC+++OLGjRsZQ8DMYDBN7Jmeng4LC+OAwg0m00M0PHDggEajmZiYuHHjBqJyra2tuJaCiDNuwM+ctU1MWLDkganq5OT02Wef5eTkFBQUtLS0LF26tLCwcG5urrS0NDExkVaI5cLs7GymxIGBgah+MzBi8wDk3m6363S61157jS17wmRTU9OZM2emp6ednJzwsvH19Y2Li8OzxdPTE7XkkpISPDzwMLVarczwMjIyiItBQUFKpZKShbeOhKndbodHTBmLSBr0bz8/P4wA5+bmioqK4uPjYZfRyqWmptLjuLm5ieVFChFCPqLNubm5vr6+OTk5CMUODQ1JJicnCwoKWJbZvHkzqKKzszOOfGVlZVNTUx9++OHQ0NCuXbuWLFlCsR0ZGXnx4sVf/epXzD9nZ2cDAwOR24JRZrFYaD0wMzCZTK+++iqbL+wkTk9PU1Tzgl1dXdFJY5kMhzm8rZycnBjyHThwAEe2kpKSxMRE9hVYeITJLJVKlUolJicnTpyorKyEFB4TE/P444//+OOPzc3NO3bsSEhIaGlpoZMEa0HnA/6HSqVyd3d/99132eWholq6dCk3DESBjVGpVJqamlpYWDg2NgaXkf/IaG337t1nz57t6uqicnI4HLGxsfzgcJ3Wr1/f0tKCmQ61bWJiIgofc3NzSP0AyTN/oNBme5nvqFKpkD4zmUzQ6MFhuYRxcXHYcF++fPnq1avwmdmUgSJImmYWyCyMuDU5OcmqVVZWlp+fn+u6detYPDl58iTtIqr1JSUlly9fdnZ2fvfddxsbG//0pz9lZ2eLKd3s7Oz27dvZeybU8wmgQNIKcZzHxsY+++wzo9GI+FFNTQ1b0UC8WN4wH+HLUkmh2ImEC14OWVlZxJKenp7ly5cnJyfj5tHf35+Tk8NMixSLHE9GRgZ12djY2MzMjFwuLy4uXrFiBXoQBMj+/n53d/cvv/zSx8dHrVZjMYnwGqmW1ax9+/ahPz4wMAC1AnhtaGgoKCgIuQ2FQuHs7IyxJD7lAL5tbW3IlLFDW1JS0tbWdvv2bS8vr66uLgzqQkND+/v7S0pKMBGHzBEUFMRQAv03tmbsdjuPmkES0oRmsxkdgImJibGxsba2toSEBNBwBoE//fTTxMREVFQU/SYEEZCxeymMJFZBjS4vL4+Ojp6dnZV4e3sTdnJzc5955pn169e/9tprhw4dwofwgw8+KC8vf/fddzds2BAZGcmZAFTmRfJt2NUJDg42mUzYdRmNRrVa7ezs/Je//KWiouKTTz6xWCys0x04cGDVqlVZWVnIyVksFrI1023oDp6enkSUgYGBa9euZWVlYTixZcuW48ePM6qGomcymT7//PMtW7bI5XLaMdx9CA+4bWLjtW7dOn9//97eXofDgcfg5ORkd3d3Tk4Ou2QUoampqcwCjUZjV1eXzWYLDAzcuXMnWt6o0bW0tHR3d8PN5pKUl5cPDAxEREQMDAyw9gJnAIoC+hoeHh60YEqlkjPa2dlZWFjIDWEnW7CB8M3hugcFBR05cgT5ZUaGjPdwCGKNFBInFmxYDzIF5MInJycjjOPh4SHOByQpOAkIAyPGh5w62LfZbHZ96aWXaKKQ/WhubsYN2maz5efnX758ubi4+KGHHsrLy4M+0traun37dqvVSrXBGyVyUuVZLBbKqJmZmTfeeGNsbOzZZ59lQIXISUpKytGjR0neqAtRxAHWUW+jQjMwMLBv3z58CpD3hwty9OhRVgQMBgO7pXK5PCcnBztL7sSRI0c4kWaz+dy5c4sWLUJFeXp6uqysrKamJi8vLzQ0FBM3jUaDRRNGPHRzTPPVanVoaCjZGthmaGiIhdiVK1cSO8FUJBJJS0uLj49PY2NjbW2tWq1mk2rVqlUMfYjhuPw4OztHRESYzeb09PSpqSlA6kcffRREH8005sPj4+Pnz59fsWKFp6dnZWVlR0eHyWRCZ5GCl+rNy8uLMmVubo7NCRcXF5lMZjab6+rq1Go1J4nJjuh4+QNkORIcKF9LSwudkU6nkzg7OwcEBCD3EB4eHhcXd+PGjfnz52dkZHR1dZWXl2/ZsgUZ5LKyMldX1yeeeMJkMrm6unIAPT09hbwaZDOFQoFs4/vvv19bW7t58+bVq1ezlAxzMSAgYPv27WyJLViwAIdYsG0kwiYnJ4nDhw8fvv/++4ODg2mRGJY++OCDSqUSAySWG/bu3VtfX//BBx9AABgbG9u9e/eaNWtOnz6NLjGS50iZIXYLbcLf339yctJisdChwNHKy8vLzc1FsgtDo4mJCbzA2H4DS0TFZWZmJiYmhongl19+2draKpfLGXxev36d8p+xOTI4mFJQafHzAtRCy3X5v18IGBGVuf14MTDmXbJkCfK6OK+xEsvf9PHxwTQBPF4qlbLqQT9F18n0mLMiStd7yQBs5jEFDAoKch0dHU1ISOCHoYJTKBRI0Bw7diwvL2/nzp0eHh41NTUmk2nr1q0I3xDGiRlKpZJAwjfmcb/33ntOTk67du1Sq9UEWxgn7D8iQ3j79m1ITFRwgt0JPa6kpCQ7OzsuLg5pYn6xt5eTkxMaGsq69l/+8hfsjlgM0Wg0hw4dio2NxQb7gQceYBXKYDD09PQgffbwww8jm09piUgmIhe4MCuVShp+3NHZxXV1dR0cHDQYDD///DPEHzwbaIwTExNxX5yenm5qalq5ciWzm4yMjKSkJDbtLBaLoDVRE+h0usTERLPZfPXqVbVaPX/+fGjG0GJcXV3lcvnw8HB9fX1+fr7VaoUSgCKXXC7HMvGhhx6KjY0F59Tr9YsXL6bYdDgcPj4+tOUKhYJ3xK0Wc13qFXd3d05YYGBgf3+/SqW6desW5+no0aOuWq3WYDBkZ2dzq0wmE0DvsWPHlixZsm3bNuqdvr6+devWYZ/OiyR9kix8fX1ZfuHkfvrpp6dOncJgFU0iev2JiQmc2DlekZGR169fZ4BEEHJxcQESPnLkSHp6OjaGtMdwAAD+zGZzdHQ01krARyMjI2q1Oj4+/syZM/Hx8Z2dnU1NTUVFRVDDKysrS0tLNRrNrVu31q1bNzAwAK3V4XCAULFKf+TIEYB2iDYU9szN7Xb7+Pg4yovp6ekSieTatWujo6M1NTWzs7Pff/+9xWKxWCxpaWlr165Fdd7Nza2joyM5OTk8PBzAmyX14OBgFtLYgCosLOzv7z948OAjjzwSHx8v7jcDLLPZrNfrWbkYGRmxWCxBQUFhYWG9vb23bt26c+dOY2NjZ2fntWvXtFqtj4+Pm5tbQkICxDmQT+bSCoWCQl40ukAbQDVAWXCX6HpqampYDe/s7HR94YUXgHJzcnIwFh0fH//+++8XLVr05JNPhoSEVFVV9fT07Ny5k5Vzu93OsJiDQpnJRectXrhwYf/+/bm5uRBBKK0BAdFVotcFZeeUCMdaPvHp06fVajXRnmMHPYyVXaTW0RaXy+WHDh2KiooKDw9n8gfkVV1dvXXr1sDAQB8fn9bWVuj7Tz/9NJottIj4oRLDQcEvXLgAdhcfH69QKGDV49RJnKMXRVCqvr4eJAZ0PDo6mppgbGyM9QXWRWNiYmAKkvjHx8dx6uGU4GCBAhETlsDAQHhrnE4/P7+Ojg4IjufOnRsZGXnnnXeWLFmycOHCBx54oKCggJo0MDCwp6fn0KFDqGlAHPHz8/Py8vr222+ZJABY+/j4cEVZ42CACqsQfgV78xcuXLjvvvtCQ0Nrampc77//fhqQqqoqTDAuXryo1Wo3btwYHR1dVVV148aNTZs2QciG0sht5sXznYhywcHBH3zwwXfffZednY3UALtuRFfaRSaoHFhqt+LiYnTZ582bNzU1deLECYVCMX/+fAyIUW3kF39fJpMh6eRwOJycnJqbmw8ePLhmzZpLly6xCXH37t1nnnmGbdv6+vq//vWvmPf6+fmtW7dOp9OdOXMmJyenu7vb4XCwNufi4jIwMHD16lWlUskAkrE41RzafBD4aIYvXrzIXkVQUBAoUVJSklarxZGusbGRiI22D3A+RFEgHzbTGNplZWVJpVLqcaPRiE4QIBMw6PXr17OyshjFo5uNOCcM3JycnPz8/JmZGUwmvv/++wMHDhQXF9+9e1en09FO+/r6Un/QVQl4k3BCJwiWTbFss9lwG2tsbLxx44aE4VlAQICzs/Px48evXbuWn5//+OOPa7Xauro69GEoDHlAfDmAdioY3npISMjhw4fPnTsXHh6+detWtVpN7YnFEYYp4GO0+9RKe/bsmZ2d/cMf/lBSUrJ//35vb2+5XJ6VlWW32318fDj4ZGWr1YrUgM1mo6zp7OxsbW194oknNBrNm2++mZ+fn5mZeeDAgfXr1wcGBnp5eVVVVf31r39NSEjIzc1lP2VgYGDHjh3l5eVYNCEThZUuvDhfX1+YjhgkcjSFMqerq2tYWBilGMp6CoXCZDKtXr2azauZmRlgK1dXVzR5SJ3cE7vdzvwLkMPb25uchcc7kkwoBN25c2dqaoqgTifM1mp+fn5+fn5/f39fX9+VK1ew6AacpAcuKioqLy/XaDT+/v719fUVFRVGo1Gr1cpkMsh109PTkKEA+FlWoj/gLwQFBVksFjwqzGazv7+/xN/f38fHJzIysrm5+ccffzQajaOjo9HR0SdPnpyamnr++edhUfMlIOAzG2Tmx/vTaDSnTp169913V69evXLlSmAougaYS8RDfkeWQiqVfvLJJx0dHRs2bAgNDd20adOePXuYZYPFgfCwHY68uJC2wqd3YGBg/vz5+fn55eXlRUVFkZGRBw4cyM7ORtrq22+/3b9///z58zdu3Eg1h0ajyWTy9va2Wq3Ozs40LIQ69v/IBUA1lPdEPuYD8NzQpoZ9rtVqrVYrEyKeDKqvqPyEhIQQLBmpUBhCtHA4HDBbMc5ChMfDw4MuiW5iYGAAlhOGoTU1NQzn4AH6+vrisUQZUVNT09zcDP0P/CInJ4fjyCRI8n+/pFIp5wkOotVq5ehAYZmamoIiOTMzw96khAh88+bNiooKf39/fL7ee++9O3fufPvtt0ajkYkJWQaYhfAL7k4EvnDhwrfffnv//fc/9thjoaGheIdhOUVa4QU4HA5aAJlM9u9//7u0tPSFF16IjY2F6f/SSy8dOXKkuro6IyODnwQYh45XpDmcoBiKRkdHX7lyBZj/7NmzCxcuTEtLUygUe/fuPXHiRFpaGm5lnp6eVME4yKalpb388st79uwpLy9HbtBms2HMkJGRweInIycaRfpAhiAzMzPUjyS+oaEh6CBI8TAni4+PB2ZISkoCAgEk5ccH6kY4lNVUmguuEL6wAuuk/K+vr4doYbfbq6qqGBFTZQudapVKpdVqc3JyiAF6vd5isXC3yZgcAlYlGAGCNIL0A52xz6fT6bDIhQXswuIM22b+/v7PPvtsXl6ei4vLv/71L9hvoGrkfqBY/E0A+MBUvvnmm5deeum1117j3ohNHnaLyS9AbdRiX331VXNz87vvvhsbG2symcDs5+bmNm3a1NbWxtsCQ+N60dRQhJtMpoqKikWLFqWmplZWVp49ezY6OvqLL75YsGCBRqORyWSHDh06depUenq6v79/UlISUkG8CXd398uXL2Nw/OSTT8bFxdXU1Oj1es7xhg0boKiJqaxYq5mYmLBYLJx4StqgoCCee01NTUVFxeTk5ODgIOaKPj4+NpuNi4sWBtkW0IzOUSKRUIYTZtA/Fv9TFGrI9nEuXVxcXnzxRRTSlEqlq6vrnTt3YInr9fo7d+709fV5eHgweszOzl65ciVk9ZqaGgQjCeEsCeAbgTU7YQZmJ4vEEBJ+0Rk4ceJEY2Njeno6diqurq7FxcXPPvss7A0wPoTSWAPhH3MSJRLJpUuXSktLd+/ejaws5H2gG0Kr8PCSyWToDv773/8uLi5+5ZVXELiC6ePs7Gy1WtHEOn78+Lfffvv444/D7SYycyJRF3r44YfT09O//vrr2dnZLVu2XLx4cenSpQqFIiAg4NixY+fPn8e1gtE8KZIGYWxszGg0wtQymUybN2/+5ptvEBWiOh4cHGSuC1BLCcIBouuBa2O32/HS6+7uXrVqFav3sFJ0Ol1BQUFDQ0NwcDAWd1CHQMlQYKPPQjSAeRYLE+DlAORElJs3b65Zs2ZoaAhJN6lUip49RPy5uTmr1YqNcG9vL7a4kDqIc1NTU+np6Q6HAxFi9vOcnJxo9aFxEey5z9TpbOqDbri5uUl0Ot3ixYvZtbx27drp06d/+9vfEkXZrWDiOjY2RtHLGSTQ3b179/333//HP/4hcBHiB70GSRrwlFwzNDR0+PDha9eu/fa3v83JyTEYDHa7PTw8nMkOLY+Hh8djjz32/ffff/zxx0899RSPlZ8clHPr1q3R0dGUbwsWLPj444+x9/Pw8Dh48ODVq1ezsrJ8fX1Z7WQmwu3Ept5ms2HPSAzYuHHjnj17+vv7gUQheLLrBnLKriUgEEMfBJbhNba1taWkpIDrsKQeExPDhAWtChjUYrONNy2Tybq6uvCQh+PDXIZ2lLw2PDwsRC7Onz8/Ojoql8uxlKc7hbDh6elZVFTk6+t7/vz5jo4ODjGYqcFgGBsbo3JnkVag8gyVbt++jQ8k6o8Yy3OTGVr9oqyB5ubWrVtbWlouX778xBNPkKg4XIgUYPAAyRl0VSqVtra2Pv/886mpqUql0mw237uLQQSC4Q2SyBDhxIkTxcXFL7/8MqNIlUo1OjqKkQ1oBw2hu7v76tWrT548eeTIkW3btkGx7u/vv3r16sMPPxwdHc1KSE5OzsmTJxMTE1NSUtg0AfDBHoTWg4aL0zA5OVlaWiqXy2dmZtBEHBkZOXPmzP3333/q1CnAeDjihMDIyMj9+/enpKTwFpOSkuRyOatGaWlprBmTI0AC5XI5e6PgbPhSUIHxKNhCYtOJLcuBgQFUJBiu8sGgdUql0p6eHmYrgGnz58+nzuWoAepT0GACRp4FMgbuAxLk8DHu9vPz8/X1hc6HujWnk9Bos9mwIWdzih0OSXJyclxc3Llz5/r7+5955hmZTMadJmUQS8h81MMc5xs3bvzP//xPdnb22rVrCQCkbUoKfiS73Q5kRC/+0Ucf3b59+80334RhZLFYADmo5Clj4Zzi8V5UVHT58uWjR4+uWbNGIpGcOXNm/vz5ycnJ7e3tUCEPHjzo5eWVnZ2t0Wj27t1769atlJSU3NxcJo6UmWAAxIDKyspjx4796U9/stvtpHbsHFBV2b9///r169FuDAoKYhfwxRdfvHv3bmNjo9Fo7O/v55zhEZienl5TU4Nls8Vi4QlIpdJr164R1R988EFiKlUFz4HbYjabm5qavvvuu7m5uaysLPTvoXRR7ZF9wM6ZP/f29qIxxrmXSCRQZECleZfAYjC5pqenu7q6CPlI+jDO5bHDqEXgRPgJE2bef/99g8EwPj7e0dFBlyC57777bt68eejQoccff5wOViKRMNkiPgOb0tbDY6isrPzmm2/++Mc/rl27FsQCohvZS2yI8B/JPl9//fW1a9dee+01aPgcBbhL1DT8AGjbof7m6+u7evVqcl9oaOiqVavy8vLYndy2bduFCxdGR0fz8vL8/Pz+8Y9/QOd/5JFHIiIi6LmYC5KeKES6urogVEPMRK+nubkZF+IdO3Y4HI4ffvihsLAQe4m+vr6ZmRlEGdrb29HG/PnnnxEJNhgM9fX1aOKGhIRkZmY6OTnV1NTcunWrqakpLS0tNDQU50YsggSi6uvr29PTExQU9MYbb9y+ffvnn39m0earr76Sy+Xofefn57MD0NfX19nZOTc3J4xv6DsoX8jCGDFTY0IlJFWhiQrmwdsRgq1UhwLyBvUneACRe3p6CqDBNTU19bvvvnvhhRe8vb0ZsNFECcNOunCGfLC6v/nmm//93/+dP3/+2NgY6ijUxnw/2hOaN+yijx49euXKlT//+c94afNZOTpCPQFQQThduri4wCdif7q8vHzDhg09PT1XrlxRqVSXLl1ycnJavHhxTEzMgQMHampqEhISli9fDgFdVJfCFg4xkosXL/r7+z/11FOtra0XLlyAFIhw4CeffLJ58+Y1a9Y0NTU1NjYKvRAyJj0IcAALyWziR0dHHz16FPzg888/R90Q91NPT88VK1aQ5jw8PMxmM3sMKBdivqnRaKKiogoKCuLi4sLCwnBjMhgMd+/evXPnztmzZxsaGp566qmwsLDOzk4vL6+CggIBVMK9ooGAmdzS0lJYWCiRSJjAgTLj2yoIZkz+/Pz8iOtkCa4Tg7aKioqzZ88i4Ana6e3tLWltbX3jjTeY0LKRBlFbCDFARKVta29v371791//+ldqTE4SyYUXzynhA1F7VlVVVVZW/vrXv4aczO48Ezv+wBEU3BZ6Y4YUFJW5ubkjIyNffPEFgiJmszkgIOD69euurq6fffZZVVVVUVERruZQacSIkQsH35F1VG5MdXU1pnRWq3XXrl0DAwMqlSotLW1iYmLXrl0ff/yxwWBA3B21BVot+gKgGpbz2C1AI7SwsDA8PBwVHV9fX0YB4BCsbMH84B43NjbGxMQgcsqgEf8kln2mpqb0en1zc7NMJsvMzCwpKbHb7fPmzRN5kzkX0DOhGlGaoKCgoaGhW7duUXUix+Lv788PDqnRaDTip8kT5nfaRr7mnTt3hMJgfHy8v7+/JDc3l6V4YBbOKWaatBicQU9Pz4aGhtdee23Xrl044vA+wFjF2GVsbAwIiPBw6dKlo0ePovYE/g++S6nFPyHd8L340LxUcFW+EYuvwtGe6dprr722ePHiPXv2EB55uCJJc3w5fwCpnZ2dzz///DfffKNQKGDpXrp0CacKukHE7woLC2G5wuRjhsxRnpuba2xszMrKGh4enpqaqqurwxby+vXrixcvlslkPT09lGsI9zKmBhaiPSTDjoyMXL58GWoqNBSNRsM9AVAPCQlZtWrViRMnnJycIIAFBgbyg5CtwKyxxXU4HDqdDkIgzZdSqRQ8Yu4e0tMUMWx8EfsJ6jDW3N3d29vbH3/88dDQUJ1OR7A0Go0STMrI3zQ/mBAgfSFw+5aWltdffz0lJSUvL48GQdx+MaYiTVDNoO1XXl6+fPnys2fPvvHGG2+//TadS0hICDsQPD6YGeID8BR4xyQdZCejoqL0en1BQUFeXh7VIhKgP/zwg0qlMhqNCxYsYFsVdQm24+HmsG5/8eLF5uZmkhGIHKPU0tLS0NBQTgBqYwEBAcXFxbg/Ozs7o6/q4eGh0+mY2+E7Tq9BnQglET/Jubk51rU5+nwSp//7Balg69atvb29ZWVlzBN++uknnqq7uzu2THi5U3hiVwXwKAQRafQAfFke9vT0HBgYcHV1Rd4NlxlhIo5KIimeAC8eMvgKVnTIxYK+8CQlrCvCweegQf4TggAQzd966y13d/eCggLEjAThkcxCihF6ana7fWBg4L///S/ex52dnS0tLW+88cYf//hHhDT5iHRr5EWiKDBMQECA1WodHh6GGHfo0KGnn376yy+/dHd3/+ijj5RKJQZeO3fupES32WwzMzMXL15kujE6OhoZGQndnN15o9F44sQJmUy2fPlyd3d3lDb6+/vJSu7u7qji0A1+8cUXZrP5wQcfvHPnjsViiY2NpSNgkwogHBrzmTNnFi1ahKhwTEzMjz/+mJmZOTg4yECViQwPkNKS90QfoFKpIiMj3dzcSkpKli5dmpGRQbTGVb2hoaG9vf21114bGRnp6ekJDAxUKpW0u/yiAhUuKyyZjo6ONjQ0hISEuLm5NTY2kvK4ciKgkul411iV89gpDFCagGeJm2JQUJCE9TukBGGnTUxMcH7NZrNSqTQYDLt27YLhh+EvBxAckEEdK6D0MmjL7N69e/369fX19Tqdrqio6MCBA0NDQx9++OGbb76JhzwFl1jQEl+NVCXEIS9durR69err168bjUYMptB36+joKC8vn5iYUCqVMpls3rx5SUlJsFhwsDt+/DgqRYwMka3KyMjAphTsh3XZjo6OlStXsnW9b98+lmgcDkdSUhJOAdu3b6eNR06ZdMbDzcnJOX/+PDooZrO5pqaGqU1MTAwcM6Ia9ThAVn19PZHfbDb39vZGRUV1dXV1dXWxKoxPnOgHATl4XMKIEtIJGYQKZnBwcG5uDieW6OhocdUZ14FUSaVSZqvs8fPZSG3gOqOjo52dnew7spL+C2FRLM6wFsUJnZ2dZRQ3NDT0zjvv4KWiUqnYMJiYmOAw0lMxxKF0l8lkNTU177///qOPPhofH5+QkHDw4EEXF5enn376xIkTNTU1b7zxxt/+9jc/Pz+mNlQ8xEwm1DKZjERbW1v7zTffvPLKK7D6mBM5OzsnJycLdqfNZmOZG4VMAC78D/hrLDOSyObm5vbt24dPI6obqampuE0UFBRYLJbvvvvObDZrNJrh4WGNRjM5OYnNF9sVJGwuDyZAzOv1ev3mzZvxUAsKCmpsbExLS6Nl5dwzrAFdZVUgKiqKTri3txd/I2w8GP6hpiGRSLDdhG3k7+/f19eHUzYwAS0JyYVxT3d3d0BAAOtqXDO73c7RvJfZyTSU6RuIBoCeXq83mUypqamINjDrcXJykoDPpMlNpgAAIABJREFUC6YT4wnmBX5+fq+//vrQ0BBPnJUyUte9lSz/hZq5srLyP//5z0MPPaRWqxE4WLVq1eHDh6enp/Pz8+m2X3rppbfeekuj0QD80VqTifn0SI8fP378hRdeGBkZqaurY5pz/fr148ePp6SkoINFRxcSEqLVamHUARsHBwezscdVQIUgISGhvb399OnTLLiOjIwEBgZWVFQ4HA72oL766qu7d+9mZGQIS0pW2QoLC2trazs7O9FSEzorra2tvPju7m6O9e3bt0dGRnQ6nVKpPHjwoJ+fHzKNOMsike3m5mYymSwWS11dHb0S0KqPjw9cnujo6MrKSlhOQr0fwiLBG6iUkSTQPlCsRqPBs1CtVt+9e3doaAjhBU4z5GoU9ygPuORivujl5cV3JNGTImkgJFRVVLag7MBzLi4uv//975E/iI+P5wUTcih56E5FOKFf+vjjj5cuXSry0eDgYEhIyMsvv3zkyBE0nG/cuNHe3v673/3u7bffRhBRMOPBfPB4OHbs2JYtW1BGR71jamrqueee6+/vx+uJih3xuJmZGeSjoN/NzMykpKQw9R4eHu7s7Ozv7y8tLR0ZGVm+fDnjFbvd3tfX19XVhSL73//+98bGxpSUlISEBHd399DQUPYMpqen+/v7c3NzL1y4cPLkyejoaEpsHIb8/Pxw0YuLi7t48eLOnTtRUqmpqbl58yab4hKJJC0tLTw8PDk5OTs7mziBBgcezRSz4OXYk2HUvXTp0unpaXylhTIzfQd/X3hFMrtnMNTb2+vn58cUBlkoPz+/iIgILy8vHMZQmCEMEz+oLhwOR3NzM8WKr68v0qO/zGj4xpxQHG6Dg4NtNturr76K7Njy5cuRESYccR7vhedZszh//vy33367bt26sLAw9mk5mDQ7v/nNb7799tva2tqEhASTyVRfX//OO+9s3769sLCQDAXAB0R94MCBLVu2BAcHl5aWent7JyYmuru7q1SqrKys2dnZvLy8jo4OzBIp7iYnJy9dumSz2ViaRYY6PDzcy8sLiw/86vfu3UvmFs7LSUlJ7AsiKG2xWHDbRBNrcnIyNjaW9KpSqb788ksExJinNDc3Z2ZmspEbERExNTWVmJg4MzOzbNkyciji2gaDoba29syZM6SnBQsWoIshlUp7e3vHx8cHBwd58na73eFwKBQKq9WKVgBE4NDQUNps6id2LFi8oCeHP9vX1zcyMqLRaLy8vE6dOpWSkoLoHm7fTU1NXV1dZDcQXqVSyaIQCQRWCvnRbDYz9yY6SqiAiIEA/kaj8bPPPhsYGEDIJTk5GYxBcN8JIfwBbbva2toDBw489thjyNozIrLb7fjJeXh4jI6Obtiw4dixY1ar9aGHHlKpVGfPnv3ggw98fX0Ra2SOKpFIjh49umPHjoiIiM7OToTku7q62tragoODe3p6kO3KzMwk8lmtVgYKKIPzcMvLyyE+QrhkGYQqrLS0lEUsIK+4uDj6QLlcfv/994N0zczMtLe3GwyGysrKpqamqKionp4eu90eEhJSUVERGBjI+Kaurq6oqOjGjRs7duxASru3tzcnJycqKorWVCBMBoOBUreiogI5EDYax8fHyfKsTaD8TGWKeQuSqSaTib4PKyM6GjHu6O3thU0HfAKE09PTExkZCTqM6wEUE+4DYnH9/f01NTWEotDQUKVSaTKZNBoNZhuApZTGEro+Xg9M/H/+85+tra2JiYkxMTHJycngxzT6wqIR7JK1qM7Ozvfee2/lypUYSSHbqlAofHx8EMtmfRIPta+//vr27dtFRUUWi+Xu3buvvvrq3//+95ycHLY89uzZEx0dHRIS0t7ePjExoVKpvLy8yB3Dw8NvvvmmVqulYs/KynI4HKGhoSkpKfQCJKP29vbY2FiiwuDg4PDwcFdXl91uX758eXt7e1hYGGa/UCtAMlh9m5qaYuvOZrOlpaVNTk7q9fpt27ahFowxCJueer0e/Se0b4EMTpw4gXj3uXPnvL2958+fT6jw9/fPz88HCU1LSzt//rxcLl+yZMn4+Pirr77a1dUFHs/zh87Ikum2bdsqKysdDkdYWBh8HQoLbjIYEhmHtgV3m3nz5mH2SEvMsIbrNzw87O3tDVhHbKasAV+ABQfDktaE9UqJ2L3h1BiNxo8//rixsTEhIQFTH5phCAoUNaBSfEo4OF988UVBQUF+fj6jXQYH/M4GFE0UZdErr7yyb9++PXv2PPPMM5cuXSovL//nP//597//PSYmZt++fcePH9+9ezeJDBciNzc3NDnj4+MTExNdXV1ra2sdDkdDQwPm36jZMPKVSCQYMOj1eqgqoaGhcXFxJpPJarX29PQkJycjzMdggdksJYvNZtPpdG5ubrA0kPRkWgG15ebNm4sWLQoNDcU4kS2NTZs2dXR04ImGzS8rvniGaDQaVIGEQxL3HvhBqVQyhUhJSfH09ExOTk5NTX3//feHh4d5Al1dXe3t7Rs3boS7xBAYmUbEwKampgYGBry8vAYGBrBx5dtxaEhM1KdCsA50BH44ODjgtZOTE+KDNIn8K4ZNvyx2coo///zzhoaGjRs3srYESkb8AOEHqxF08J6enjfeeGPhwoUIf0VFRbHhQpONIvv58+cp1oDqx8bGHn74YXxoH3vsMZqg69evl5SU1NXVxcXFoawnrEknJyexzlyxYgUfGvrdnTt3fH19DQZDRUVFcHAw3Au04WJjY/G47OjoQBkgISHhhx9+wDIR7J9YLZFImGzx2axWK0hla2sr+9P/+c9/CId9fX34maDfV1dXJ5VKd+zYwbJuRUXFqlWr9uzZw0iIcOLl5TU8PFxeXg6NGffg+fPnr1mzZm5u7s6dOzqdLi4uDniDDgXqVmVlZUBAABz6ubm50NBQzNGZwANyULo5OTm1tLQkJCRAhcQwDnK/UA+gaQoMDOQMkX2oEVmBQz0RHIXGEPiEdOHu7i4JCgpiDvLf//63oqICR/TExEQWkKhCmDLQ77Guwyz38OHDBQUFkZGR2OaxaRcREYHZnkwmO336NJJXs7Oz8NaYKBYVFbW0tHz33Xfr169fvnw5QrkMLYUIAmEcMM3X1xc6CFwYh8Px8MMPI/hRUlKSn5+v0WiGhoZsNtvt27cvXboUHR09MTGRlpaGyg2Gc3RA7FIDbyBZw60Sm+vu7u6YtfEB+vr68NXDsAaMVSKRhIeHY6aGfUVvb29eXh5eRMPDwzw6s9lMInB2do6JiZHJZMPDw3iTcdyxycWTGos+PtWGDRsoRGw2G2QdeH3EZrqKubm5vr4+ZATBQ7nM1dXVVEswVNDQgno3NTWFw53YUxH/V01NTWhoKBqeDoeD0SY9rITF/Pfee6+2tjYiIoJFUHiRFFnAVtQZzJCoSd97772cnJzIyEhaVvQ2QkJCmOnMzs5ev37dw8MjIyODJ8JSONfdbrcjVnnx4kVXV9eEhARcPpYtW4YanUKhINzxOPhRsQ6OiYmZnJzUaDQYEXEdOZoY/zg7O8PpJfHRDZlMpsHBwYqKCjc3t8jISGQK+AUGQJ0olUo5o2BKXl5eUVFRWq12eHj4xo0bjY2NMzMzERER3t7eWq0W0mFZWVlra2tHR0dSUlJhYSEkKar7xsZGqmmWvIOCgiCGMSECP+zr61OpVIC/g4ODIyMjERERxIyRkZHw8HBUdPiQzC7oQWZnZ2tra/m5xsbGLBYLO5vd3d1YTRKTACQ9PT15rdQVgvZFmeLt7W0wGNLT0xlZUMLjc+Lm5iZxcnL617/+VV1dXVRUhPobS0Q9PT04PbD9RxRhtFNXV/fll1/ed999mZmZjDamp6flcjmjGURU0P3Mycmh9hYaeZClCTnp6em9vb1kaGTaQ0NDTSYTbDnek4uLS0dHx7x582JjY8EKwZtbW1vd3NySk5OxiOM+/fTTTwMDA/Hx8Wq1Gvmr6elp5F/b2tqioqKYBtfV1cHcrq+v9/Pzy8vLY2mWtk4sgsAgxAEdIUahztvf3+/v73/z5k2i4+bNm2UyWXFxcWVlZXt7u1arxZ5SLpcXFBQAZxUXF+t0uvz8fLGrEh4ePm/ePOohXnlnZ2dnZ2d8fDzOgiaTCYa2wWBgygj8TcTFUj03N5diAt0lQR8Wc6Xg4GAWoMRqEug50AiUXhR4EDNmzZ3ZCFaTks8///zw4cP33Xcf4n+sXXl7e2OTyAYz15HZj06n+/jjjwsKCiIiIgCqQaKoVGgpT5w44eHhcf/996M+wtmi6OGgkJgvXrxYUFBgt9tPnTpF8c8VlMvlUMWAgyQSCYZlGo0mOzsbXMvLy8tqtZaVlWk0mpUrVyJaYbVaEX2AikFNp1KpAgMDhUULbwh4gP2AtrY2s9mM0R2AREJCwr3i+UTTmJiYlJQUQqDFYikoKEhPTzeZTHq9HlZ9VlYWwnO08V5eXnj48Z5QJQEF8PLy0uv14+PjSDQjb6RQKMrKyoj8kZGRR48eHR4extqX4gnBVsIbIjl4VYHWo+fT1tbW39+fmZkJyZmTRwfOJefuiVBBp4IscWJiIv0O0zs+yejoqOTSpUsFBQV3797Nzc0NDQ1Ff1O8p/HxcTI0VfHMzMzBgwfnzZu3YsWKiYmJnp4eKDZsK3FI29vbp6en2WUlyqG5znhCyPSg/BwWFnbt2jUo1i4uLoGBgewPIhsHLgft1mazdXR03Lp1C7KIWq1WKBQ2my02NhYlJzIUkmLsKalUKqLLhQsXsLFiEkZ7KUgLer0+JSUF/0PAzStXrrBCxsYbmEFsbCylH3wUTCPCwsKuXLlSVlbW2NgId1ypVKI9kZmZ2d/fT9iD1AJpFxiDMqutrQ2PMxS6GxoaPD09MRnGEIIEjYUNRaHgJTFDRmSGpIwLLJUm+2n8UJmZmVwPAC2mxHxlxmQDAwNEeiFdBJ2R6aMkIiICO+3q6urt27fTJlHCIEAL1IHhY3FxsZ+fX2dnJ1ABo0UoI/Tcd+7cMRqNjz76KJguFrJw/4kHc3NzQUFBp06diomJWbt2bVlZmdFoZDWe2mJoaIiYxLVA7oIlUJPJ1NfXR9NbXV1ttVozMzMhwwYEBFCKUvG0trbm5OQgXbd69ervv//eYDAAIrHgygkD8pHL5VKplMICYJSHYLFYBgYGamtrSczA53DxFy1a5OHhMTIyAqCyYsWK/v5+NrNdXV2rqqrc3d3BDvAekUgkiYmJlDt8087OTtbiucdcv6GhIaPRmJubixAy680M3mtqavr7+7Fd5mSTUPz8/DC2pkU/f/48dQIPZGhoiNoFxIE6AQACLJvYz8emJOCIcBkoxiXBwcEKhSImJqaurm7//v1PPfUUMzyKGjIfzP0PP/wwOzv7qaee+vrrr/fs2fPKK69gZ9nd3U08P3369PDwMBgrDAE6BUZNYCqBgYEHDhy4ePHiv//976qqKqB6pjBIjkLL5q7ABYSkQ2EfHh6O1zD9JEKXZDEG9BSeSPk6OzvLZLK7d+/evn2bnW+LxcJDWbBgAR5+ycnJGRkZw8PDdXV1AwMDtDAEUb4g2shTU1PR0dGMztmQI51juJObm0uRS1idnZ1ta2uzWq1nzpyhOsa8zMPDAy9wnU7Hpcc728XFBbXZkJAQlL4RcQQIGRsbGxsba29vR7pBUJR5qfTwnZ2d9913n91ub2homDdvnuAvjo6OhoaGymQyGmBW7YV5EtlQIpHgeMQzpPGByk5FIkG5QCqVLl++/Pjx4wcPHtyyZQvZDj4OONiePXsSExPT09P1ev3jjz/+5Zdf7t69+3e/+x3CClKptLi4GFNVNobhtDIQ56Dwmi9duuTm5nb//ff/8Y9/TE5OHhsbU6lUWO6hps0PJlSQJiYmFixYkJqaKox2AHYDAgKwZUFaDf4O80XWQ7gEJpNJq9XSEPr4+ABwjY6OGo3Gr7/+WiaTRUVFYYuWl5eH2+HU1BSr96RX5kcqlYpRDsRpiK6M8WCugIWEh4fj18GiBs4cP//8c1hYWGpqalVVFfRmo9GIaTwi+ikpKViqt7e3c3ANBgNZG2FS5IfQbueRMouGwKXVaq9duzY+Ps7Qn+EcY97g4GDALblcjmCV2C+k52JYLU4kqYOhLEL109PTEjhmDodjfHx806ZNhw8fvn79+sKFC4nbgC2/+c1v1Gr1qlWrgIFtNtvTTz998ODB119//fnnnw8JCbl27dr09PTOnTsDAwOFnh1/meQHzezmzZsymayoqKiqqkqhUMybN+/QoUN4XDgcjk8++SQsLAx/PywiTCaTv79/bGwsKDCTa0YVMFpAmiGBgjYiVCeTyejb6+rqeJTsVSMOo9VqWZ4YHx9Hzy0iIqKiogITAZjiWq2WBmF0dLStrS08PByAES8w1htdXFz6+vqKiopiYmLA6ZuamqCFkj5iY2PB6aHnYKfB+jXBlcKI92Q0GiEE+fr69vb2WiyWlJQUMDeOWkhICAQd0a8yKUOoJykpqbu7e2pqCnF9eBrt7e0AGayWBQUFCYtIpsE0gyMjI6BNlAfUasRjT09PSVRUFBIjnL4NGzbs27fParWuXr3a399/fHz8ww8/nJubY7PUyckpLCyMDPfoo4+WlZV99NFHycnJ/v7+mzdvBlTlnlFmik04Hx8fVFyLioqQbMjPz8cqFR2Vubk5rVZ78uRJzHVaWlpg3Gi1Wub+wcHBAQEBcJoGBwfd3d3Zkaf9g6GID3JXV1d2draHh4fBYIB6wnpHaGhofHw8ap/oDBDzfXx8UDbmNPT09PT39yOvm5ubK7jE1Fvt7e00zxygrq6udevW4dA4NzeHBse1a9f0ev1vf/vbzs7OgYEBvV4fHx9POYIJcHV1NZU1QkIhISHspqPqL8yQGB3wUU0mE1oxVDOcV2Iq2VOhUNTV1fGTMjOx2Wx4mzDG59+KTV2uE/mxr68vKipKaBSI1omWXgLvhsqWB71hwwYWGPPy8vbu3Ws2m4uKitCJGxkZwX72XvPis2fPYlxHFCWKwOOFnerj4/Pjjz96enpu2LABpmpkZGRAQIDBYOBa032gcxQWFsaUxM3Nra+vDxEmSD0uLi74oru6ujLhA4ZiIA4FEH10dAwGBwfT0tIuX748MjKCQT1NCog7YHZgYGBZWZlMJsNgRKvVRkZG4vQbHh5OP5yRkSGMTXx9fffv389qIGZnbLai98cCC2/R399//vz5ZrMZ/9De3l4wWT8/PwAeepmlS5fSfldXV0skksLCQrTIR0ZG2CHF/hcTTI4Ox4u7gRoWTWVjYyMGAcQwuhhyJVtYnA9QH3pgWjNQK/gDwt6OxDQxMSGh3qFCoW+cnZ1ds2bN1NTUm2++2d3d/eKLL1JsI4MP3oJanNlshua5b9++nTt3ssIP8i/YAqGhoT/++KPD4di6dSvtK0oQQroZwwm5XH7kyBE4NXixQQyLjY2l0oaJCTXXbrdXV1cjLGMwGMAEweyhXyDkMjQ0NDIyMjQ0tGTJktWrV4OWCk9aAGbY19Q6AJoajSYmJgbRmFu3biGKhJYf09TMzMzJycnq6urq6uqVK1ey+cGwhkkWyDp4tMFg6O7uXr58eX19/dDQ0E8//ZSVlXX37l0MUxHDSUpKws0oMjKSVwh7MiwsDFdeVudhJVIVwN0BHzMajTD1QWMF2uHm5hYfH49EOFNcWKSIykMAcnV1bWhoQDVOoVCoVCqWryh4OcoS8HWKF/iunp6e6enpn3zySX19/dq1a4eGhhBG4h8wYYKcx9ArPz/f4XDs2bPnySefDAoKYoEAWptSqSwpKZmZmXnuueeYVwkPVMA7lUpFGUGcZ6WWry+Mi4iTrMFxh1gQJ1ZBobBYLPg1MSvH0m/BggU6ne7o0aMs/jCY4O+I684CIh/J09MzNDRUKpXSvNjt9vT09MbGRjRkyM3d3d27du3CrYAswFUTzaTFYjGZTA899BDANkI/MpksJiYGBz5XV9clS5aw1U0munXrFpY33t7eGo0G20Z+EHd3dyhqUVFRYJg0MnwY6DI9PT3p6enM55CTBNXARVoikSDaLujKwjOP19He3g55FhIntYhYhHZycpLQQYkjGRAQEBcX9+abb9bX12/atCkgIABUAPiPvSBKYqiH1D45OTlKpfLTTz999NFHoYOzPXvy5ElnZ+f169cLcT46cpLizZs3sRjGq3Z0dBSqGE0gJkC0i6RwDgEQAu+VECrWvRBqDggI2LdvH2MIT09PzhnJkQJCrDpKpdKGhgYAGM4QPRHzhNnZ2ZiYmO7u7pCQkICAALvd3t3dzQ3z9vZev3791atX+YJgUIIi7+npSWGI7KdarQa+xL0QvQxnZ2fByaD7sNlsycnJgYGBp0+fxh+YsR8SPUw5uOJAz+ARExMTpFEoRfRuUNA9PT1JGURuCmQxisIpiqrF398fszlI0WIjmucvYRBMncxU/de//rVarX766aezs7ORAyczCUoRE2QhS8rmZ1xcXH9//5kzZxjxgzFjLw8Mz8HHSJX+gioP+cf6+np6PJ4yI4OYmBhODHgrKQwQkEKYYCbEKvELIzdbrdaDBw8ODw8nJCRgwNjb2wuv3d/fPycnZ3R0FJ1CuVxO6cpImc+Jcg5yowg9ABctXrxYPGiDwcDiLgg3HKUrV66o1er8/HybzWY2myndTCZTWFgYSh59fX1yuRxRHW4LZmd8WZ4tq0C8GgZnuCYi6Q9iy0XnoqrV6oaGBgYxKpUKD5rBwUFU7Zgh3Et5R7JxZmbGaDTC9zAYDNHR0Rw7bjix08nJ6RcbWEKTVqv9xz/+YbPZnn32WQpad3d3DJFZ++bjUvWQGtm/xcmgsLAwICDg4sWLGzZs6OjouHDhwnPPPUcfL4ToKZro8WQyGfoRKEqTNdkv5VdAQAAoC+fgXpUKzjS3iqgmuCCM+AcGBtzd3VlAorFHyU6v14eFhcEOJHvS083OzlIJCaVQRgcdHR3R0dFckoCAAJopjAzEBBtCOPDarVu3Ll68uGfPnkWLFjkcDvju09PThYWFCoWir6+P7QrBDKciqa2tRaZFp9NRN2g0GsogIijlP1ecUdzk5GRgYGBNTQ24jtFopAYXw/nBwUG1Wk1mF/soTA+oMzw9PZubm3kUBoMBSq+fnx8lqdillQQFBQ0ODoaFhfn7++/Zs6esrOyBBx6gZuZhgdoyNuT6EjnEuiwPCIeUxMREpVJ5+fLl0tLSHTt2sMYtcjkHHwyUHhumv4uLS1tbG1Uz0jEAOCwUCcU3ig9mK8IpncICBU6gJDojXI+TkpJSUlLmzZvHHO7nn3+Oj4/na2o0mqNHj4aFhZnN5lOnTiUlJUHbnJiYKCgoILciRMP24szMTHV1NeU5a4JarRY9IPpS5tVoM1VVVV26dKmwsDA6Ovrll1/+4osv6O+ghnR3d/v5+QGlsKGCw7Knp+fFixdNJpO7u7tWq8WSAMIH7ivClwEtSTre+Ph4BnhkLp42PQEPnzvJuRFyHpBQVSoVmW54eJgbK1bAKQGnp6clkDcnJyd///vfV1ZWPvbYY8uWLROCMBQszJCIH7xdTomYLyNky6symUxVVVW/+c1vWNQhypGq2dOhJjebzbRqrLUB4YP+ajSauro6ToPITcwO6CfFZRJMA0Zo/HhEOGh/YhkCrwFnZ+cNGzbQQ05NTSGmSNsVExPDMx0bG7t27VpLS4tarWboCJ1doVCYzWYErhwOR21tLbvaAFAMCFmAgM0Jey0mJgZNShy+gc6CgoJ8fHxaWlo40PxzMG/wTcKVp6cn4jP4Agq2GBAiFglcFTQQWDQ3GAxhYWEoHAkaFM+copVzSXmr0+nIcagXIYdPOQHw7+XlJXFzcxsaGvruu+/u3LmzZs0ayIysCgr9GbHMLXZK7yXEQ6pjot3Q0HD37t2nnnoqKCiILCAyC/mbgwnpFddjV1fX1tbW2dnZqKgohgiIsiHCxC8hDi4kWRlaUr6IHROeF4bApaWlHh4evBKz2YxJGaba2Cm1tbWZTCY8DhBTIJFDSlq8eHFbW9vVq1cx3+zq6lq1apXFYvnzn/9cVFTEkG/NmjV8EqHIwsz2lVdemZqaunz5Mp05PVpMTAw7i4C8yI0w7x0dHUXufPXq1YwepVLpyZMnqdP5sqztgKsi/t/W1kYiY7IIJMESkICUCPC8TcI2mZTsLJFIqquryQ9SqRQNYIZ/EBkBkSXj4+NfffVVZWXltm3bsHLlSzCEo3IGZhEiRGK8RwdFHUARVF5e/sQTT9AUcMuJdVx33itkFtb80bAeGBjAcQxfMzIrpQmFKhmKc8bn4YwS53hD3C2CHNwRHx+f4eHhgIAA7gS7T/39/XgJmkymwMBAd3f34eFhpVLJnqNY1+Arc1Ld3d2hk6WkpCxcuLC4uNjT03PevHmwlHkgiP19//33uB5gFNnV1QUQ19PTwzUj4Il9fHBbRsrx8fG41WZkZAQGBur1ev4hF2b37t345ri5uc2fP99ms7Fp4OLikpmZqdPpKAzE6IpNdEoWxE7oKGn0sLXs6uqiYUR3RDjMC0UZooMEbau1a9fCtqKqAHeD/8ijpy4T8YOQIKasqOOdOXNm48aNwtaEA0FWE7rjZFOuO+9+dnY2MzMzNTUV1gIOV7hOkVAZlNB0kEfv3SAUlrPCI2Fubg5DeHRd6HH4pjabjTJzdHQUn2KIB/h5W63WvLw8PhVF0vT0tLe39+Dg4GOPPYbFEzMUbDrJoTabjZ+rubkZDgMsKkxMqXmZyI+Ojv4iMCeRkL5R8+3p6Zmbm4NNQrNNB56TkxMXF0eyaGtry8zM9PPzu3v37u7du2dmZjIyMkAXx8bGampq1Go12NLAwACCOaRaIfVDoUrtSP3U0dHR3t4eHBw8MTGB9nxYWJhSqUR+B5R2YmJCcvny5aKiIujmCHaLfUyhIyJCvZACEHNC4s3g4OCRI0eefvrpsLAw8oiwIOJxiKtGJGDXTWghkU2JkF4dAAAgAElEQVThw1G0KhSKkJAQlBqYO9y76AyQI8oR9FU4DTMzM/7+/mVlZd3d3c7OzpThfn5+hGLMX/gK/IxjY2PgAc3NzbT9QCw4s8IFdzgcALhSqRSfCb1eHxcXJ+bhBPyWlhabzZaeni4oHYGBgcHBwTdv3tRoNDTVRE0yCOJpLi4ura2t4+Pj6EgDLtO8kJiQiJ2enlar1YmJiWvWrHnnnXfS0tJgvQ8PD9++fZsrNzU1RX7p6enh+dOogiaLHS1WKEZHR61Wq6+vL/05AaO1tbWrq4vTz256Tk6O5Pnnnwd2pMrFIxconbIFitu9oZ4vR53l7u7e2dl57ty55557Ljg4mIqBvykKaZa5xUWfm5uDGk51Jm4/AYnRGp5JHH9yBCgITTJhjCMiaDJiZOju7t7U1ETfj4cLFwJrM3hDFENGo5HOBYasXC7/6quvMjMzaYPtdjs/KRbdRqMRfUHAOhppVq6FXHpfX9/atWtRR718+TKTkdbW1oULFzIY4z0BwMALQaKSLXbmDAJrB/5iu+6XoatEcvv27ampqcWLFwOgUaF7eXnpdDqUSIaGhkpLS8m57u7uCQkJuBvApmaFmM4DeWBQEFQ04+PjGSIy2ejv7+/o6JBQeSA5DYRKGqYAFHA9BYdY3+BNu7u7t7W1HTx4cNOmTSqVSpA9KQjE4eVwCAllDnJSUpKA0URIoFtjiR5hTHAtrh21IcN0/r4YTjI+5EO6uLiUlZX5+fm98MIL4eHhONXB9SovLx8bG1Or1R0dHbiDDw0Nkd0AKlpbW+Pi4pAzCQoKmpqaQgoRUhwBw8vLq7Kyct68eT4+PjwT+hGqH6wpBLWYGXVBQQFYHCcDiGJ6epo+C5ex6OhoVsvAkJjOCNkVBBAgNCUnJwvKJgt5RDsM3YCAdTodW2fl5eUzMzODg4PR0dGcLYaOOJXhG0Y77enpia41iEhtbW18fPzw8LCEjwvPgML+XgdGIbVL08tVpiVm1ergwYO7du0iwcMhIhLw+gUSKgRAOTp1dXU0gZTZTJ8JG6wP4ZwEJRbkg06HRoATA1wI/Cr0Xun+iSWMXtPS0ubPn+/t7Y3GUF9fX1NTU21tLcBadHQ0nwFl/qioqN7eXk9Pz+zs7NnZ2V27dvX29ur1egyvli5dSn6pqak5duwY2nzBwcGZmZl00Wq1etmyZVar1Ww2+/n5paenE8b4FsJDnatCwafX60dGRlJTU4FJgKB4C0TNiYmJ2NhYYgzb+sR1Kk0OJaRgmhFsMJycnBISEpycnBYuXNjS0vLPf/6TsHf16lV8F4ODgzGh0+v1TMqgr4+NjTGdQKvSZDJJ0JumaCCD8kbFFICylLNMkSFIQz/88MNzzz0nOg7hb8cBEoxZ0oE4IrR5jFVRhLq3Y3J2dh4cHJw/fz7lDsMkoVossh7tGT8PBY1w2WpsbOzo6HjyySeRYqZ9gFXFYkFOTs57773HK/Hx8QFHAdSZnp62Wq3t7e0kDiCABQsW/Pjjj+zmDAwMpKenp6SkZGdn19fX9/T0lJSUHD9+HGZaXFzcl19+mZWV1d3dXV1dvXHjRjaweVw8erHpBJoO8Yq2loqQdDA1NcUYgc6T8zQ8PFxbW5uUlCT8XmgF4C+Oj4+3tbWhpg+RgB8B86558+aFh4ejBtvZ2ens7JyYmNjX18eIWK/Xz83NoRnBbjPwT3BwsIQ1CrAp2hZhzSx8qO4NJLAD8eFasWJFUFAQyYUAwNnihYkvcm8fxLlRKpVobYE4ETA5f2An9JNAZExTOcSMBQgwfGAOsciJzs7OpBVaIaHRI6pskHidTjc3Nzc4OBgUFGQ0GmmvmJZhN4BSJfXg8PBwb2/vfffdxwo/nfOGDRsefPBBclBra2t9fT2x7cCBA8eOHRsaGnJ1df3mm2/YKyC3CmSImonTj3BcS0vL7t27WSGDdMd0WqlUIs45MTEBXxOCGZu3lIw8f39/fzYNRHuPGqCTk1NtbW1ycnJaWhraHDx/T0/PyMhI2hzmf9PT0w0NDY2NjT///DNQNXZyEoVCAbkBhUwhbyKKCR40L54508zMzA8//ACnRrS+IlyDi/NK7kXrhT1UZ2fn8PAwUxih0S7qGIPBwICeSo1WhdT+/wZLEgnfEZRPGCnx8W7cuIHlD0xjsj7njJEsO641NTWurq7w7+GvUBXCiACNlsvl4eHhjNGnp6eBZW022+eff/7pp5/abLbNmzfL5fL4+Pht27YB1LKnc/ny5T/84Q+Tk5NVVVWrVq2iyKUKESmbEFJWVoY+DFNf9Gfa29vBgpFexXke3TlEZoivZHZOHtcGdKCvry8tLU2oq7u5ucXGxvJzce0p5AnJRDW2HZjksbne3Nzc29vb29srgcxNMSEYvKK6FC+DipKAtn///sLCQmh2HAhBBOETiM7l3oQlYkxPTw/bQUJLSQw5ocKDsYqxDnQeji8ZRxStXCNCsVCptlqtWq0WDgAwDPMj4TBfW1t7+/ZtwmFFRcXs7GxoaCiL5iaTKTIyEv1aUFFnZ2fkAyGf4mn/6quvNjc3GwyG4uJiIhmds0QiWbhwIVsBISEhb7/99kcffURdJdy9xGojM1UUBhITE0dGRvhIcXFxdrsdtgdddGlp6ZkzZ3B/5mWzZ8XhQH2KObObmxu63pmZmRAwGhsb9Xo9gja0aeR0Dr0I81CmefssVi5YsOAXPQAxyKaYEtilqDH5MydgcnLyo48+WrZsGVshTJJoWMS6r5gjiw75//fVJiYmmG7wvMAnCBisF2ChYrFYACJZs6Z2EzmRXC7GvMIAkNXzqKgoxOkArUlSIFdOTk4AzLm5ubGxsTqdDque7u5uzl9bWxvMSLE0arFYBgcH/f39cfDANZEZOiykxYsX19fXI8tfXV197tw54vazzz6r0WgiIyOpWHn0jDV4PRhPQW5i75yNLAa8zs7OixYtYkwBnNPV1aVSqQgPHBHhCjcyMsJ0kzEy5CAUs1mSslqtqAkJxEUsznBkRcTlpEIzdXZ2lhCBeQfgifeOVIQFEcjM3r17wRlF/yJ2Ovgzr4rOU8ycnO/5NTc3ZzQagZKoz0Wt4+zsXFdXd/LkyTfffNPd3T0oKIiozhrOlStXhoeHo6KiUNXC75EqnekMoaimpqalpQUgjt0QdPdo/dnTRKDL399/dHQ0KSkpLCyMHXSZTNbf34+gdn19PZ+N1S8GXRCGIb8FBgYy+pmeno6IiOAcp6am4j0dHBys0+lsNltKSgrJl6aXSyxKdb5+QUEBMZJWn3YmPDwcjJUOBcyjqakJZ3him+DdQe1mkRGrXiGOWFpaGhYWhhDj0NAQ/aDQDAZuEdafdEbCHweo/ZedOY7CvcmFfy8g87m5uc8++6ygoCA4OJjJCxWiKAD5uCwxEy34siL78AcQIVg2gDlgMESywcHBqKgof39/s9lMEiVE+fv7L1q0CHp6Y2Ojw+EYHh4OCwvz9vbOzs7GtQ6nJsRngoODExMTk5OTHQ7H3bt32YdjhAYSxXmNjY318vJix0RIZS5YsEDQyj08PG7dutXY2Dg+Ps6+xeTkJO64kA4dDkd0dDSpHbAOkiVDWpvNFh4eTjsDc4pQx1d2cXHp7e2F+EMxRA1HpAHMdXV1xY2KWEg1DRBCXmaYIkabEHGysrJE7OTzBAYGkpRFpIdMyT8XFm9C5pWkwTT4l3jFsE0si96LZUmlUiSm0tPTIRsTA/m6PHT+TPsjKlOGlkiJCxSffRCGisJ9DUSPOL927drQ0FCKKTwFKJBHR0cDAgIiIyPFzGxmZqazs7OsrIwSysXFJSEhoaSkhEjDEq+Xlxdc5ampKaHw9Le//Y2oExQUlJWVRVAkHoCvMAajKly6dOmaNWtYRmKlGYV1eK9ubm4YejI9plzl0ctkstjYWLpcMj2sb0GikMlkEKmkUikcGjE3phMRPnkcAr44oAAFH8GD5RX+gpeXl9FoDAwMlEqlML2hLQopETFSpUER1vRidM/3ohgVxGEJJe69J5HUKMCovXv3BgUFZWZmMv4hrZDDxF6nqA8EbtbQ0NDb24ugA7aVLGxCCpfL5SjdwgEg1pnNZiTq6Gj4xSIWPoTQNYAEXF1dFy1axEMEQPT29r558+bc3BwwpZeXF9pXPAXU+O/cudPc3Ew4ZE0SeOped2Phh8d/J+ey6kKkwVICZjwIqZOTE1KzQrKMlIoTL3dXzE45i1NTU9g2oN9NeOcvwLrlz0zRscwC+KGoolQSllnMJgHXpVIpjoN6vX5sbGzJkiXcFhb7gP+FNzkaCMD5gjhN2cDN+X9W3KLR5QTRnqFu5e/vv27dOvy/aDvFCE0IwAtmjSgvFi9e3N7eDttPrVaz4WgymRITE0FmaOFqa2tHRkb6+vpAddLS0oAOxdsSXCQBpDKhJUgSwxkwMcnLyMgAXoSyxTIwtS3neGJiIiws7NFHH4X7IxpvTgD9kbj6FOnE2t7eXuRc+IRTU1MqlQpRHfgWhDqsFgICApidcmHQrRBO76J1j4iIkMvlIyMjQKXs4wi1Zyb4fFnWOYXbqZDOFcUiaKlKpaLYJ+shJwkTD7I6IVlMYRGyvncBSmCeRA3JvciHoEdTqLq4uOzbty8+Ph5TYApbjoX4s4icPETR8XJaBRsqICBgZGQEAzkAAC8vL/ZHGOmxMVpXV4f2I++JnM1Louom+jHFUKlUlOtU4x4eHq2trX19fXxZ5DTBVYENEMLT6/WIupw4caKwsJDCGVYUH4NLT/kl2kIuD8GJK8vQPyAgAKc24eOJUAp1n0KhAFMQMrr0qFSs3d3dXV1d4eHhtMGcHjBWwdOjQgL57ejoyMjIoNHg/0X3hZae4oNqWgx6Ll++zC7ZmTNn1Go1BoxarRZ5BOoE7D2IPcQtgZr+oj8g0HFxdgBu5+bmfvjhBw8Pj/vuu48aivmCmLkLYyHRARF+OInYxbGT+AvX/v+GeTxlCmY8DHmCHDIIyXxc0haUXXI8DY4wN+LD8GnRr+LccMShmIvxG0VPWVmZXC5nXtXT0wMNhyBP6hVGYNRVoppjiK9SqahskK/x8/Pj8rC4BVQN0t/f30/BRE4hMzIGJ2xjsME2Hk0ZkirwdYQjJ/8c1CsmJoaPKgoF4Vp0L40ZgJXf2ZEGtO3r6/vhhx8kEklcXFxUVJTdbl+8eHFQUFBYWBhfAfhH4JM8Conob8V0hqCyf/9+X1/frVu3Ch9XMejnNohXLmpVET+QXBLlG++e605KZrAiGOQM3u7lqpFQeHYiwfFNRT2EHqawPZmammptbUWOFza8RqMBgOFLUYjxLfr7+5OSkjIyMgSBg5/9XtoU305wU2gu8vLyuru7iWoqlSo9PV2Y3jPZB1AJDAxEEuz/q+7Mgts8r/PPBQQ3ECAJEAT3fRNF7aJsxZItN07i1PHUbZrpuJlMb9qbdnKRLpe9a6ad3namN+1Mpzed1Jk2cdPEqS0rkW3ZlkRqIyVuMPcFAImV+/q/+DGPTz9Adppp/9PyQuMwIPDh+973vOc85znPQ36DkiL/guJzP8mOw+Ew+Z+ohwQJXa00LBjtFBZFDk5jj7sUi8XgI+JRlkgk2tvb+S4FBQWtra3Xrl3j+Eaa69///d+ZT+7o6AgGg0wMkUETBfb29lzCQFkZPJ7h4eGKioqvfOUrxF5WtzBTZSFySCGWqnOrWpeWErmS0gsRpOXyTK5k+3aq6Ng0EpoVLkfLkLyE2TKoVnNzc3t7e/39/ci/8GAQoSgvL5+bm5ucnLx48eL58+dPnjypGCBqozItNY2l+cTg2uXLl1EKoc7nWGRamEVPGsQJhXc4F68eHlnU0dERDuvBYBBfWAUqeQEwIMIem5qaYhaJZwEFmCOPzyK+EjY4WNfW1njY6ADgTXPq1CnmZLe3t71eL20gkrZkMvnBBx9sbW11dHQMDAyABXg8Hpe8ThSvvve9721vb//2b/827w6WoqFh+6iAxdiCYDh0lRhW5qbMzMwgFMyz5F+enNwjALAPDw8xZVJaI38/TiVWBjdIBqCSTx0eHk6n088995zH42ltbUWshwE7HicX89xzz333u9/l4tkAGi9Vt4/7zt7gAoqKisbHxwkzoKJM08tbORAIgIbxRZiGf+WVVxSKOBaxiyguLsbeEP2PmZkZ6iAgJRJbRCgp78lAOzs7AWbIeKi5eDQgctxJkDGiI2uR+VbmJ45J7S4XKA7wTEtLS09Pz8zMzIULF8Aa7ty5wzFdXl7u4nWsEiRjp6env/Od72hWWJZTCgDy8bNEENHGeA35Jm7Wwl556nwTfkkGCmjD0U4ohjvIYaz0XowkPlplFx1/BPKQXWxqaiLyg0ZoXhxNTknSSo2UtyV4iAUH7qQ5+mQyWV9fT/KfyWRwxqH7RTEFp4LoSLnO2Obx8PQvjgaOLQIkcYinwgAOluHV1dXvv//+6upqIBAYGBhIJpMPHz7s7u7mhujOIJ8kxnI6nWbNcXOmpqY4gglsOzs76NtQB/AmcG7o8kCNqKurw5mDBz07O3vszszK/fu//3u32/0nf/In3FndSssj4Wp43zzzw81V8gu+oqYgfDjUc1gu8u2iJoT3hRWtXXxUnnp44jMLc0Mn+PDw8MmTJ4R9ckN1qkmQuWA81MjpBOfYyQ8Zv4vMwOOke4dYFIkIJpBFRUUw7EVuYntkMhk4BjTfba+bcmZ1dTUSiWAkR+iFjq9Ro3Q6PT8/Pz4+/rOf/WxgYIDBUpJ6kjxJQYGwUZMzusy6xBSQr887A7CSGhPqdD3MLCLgJiictkAB/Vu32z06OurxeL75zW9Sr3JrYHrqMLLxw0Ip+7/4kfspVw/WbqccCEuaFxL4g3wZ8BRbxD450dwVSDTdBBbJQBvcdJAlFVmaAiTM3rx5k//Jg5FLsATTQP35RGuwvbW11dPTk0qlwO/Ly8uRi+Hc5Bwkvy4tLZ2ZmTl//jy8aw2MifBA0390dJQOgKZTSchQrw+FQri5DQwMEBQlQSObKJ6dvOdQPqZlvbKyAlMJgWieo+ZoysrKAIpIivlcZvo59Ll1iUSioKDAxQly//79kZGR3/qt32JDSFCLfQy/VcCao3NreUP6PRsd9wyWGtQhwqzm+bhl/BWgu/TEOcKJH1ykmKoawmCpQXimPx6NRoG9lVar4lhYWCDqUDBzOyScIfTTdhz5Qy5mdHR0ZGQEZCWRSASDwWeeeQa9Ar4jFZkQHfJcvaFQbQ4drpOyn9/wJyymqqqqubk5QjvSI1TUNAG4bBY6lSreqzSzWHAk6Wx1uHmc3YrodqKArF+yCUTl0tJS2hoFkPS/973voaYiWzVyRlJrmexxWZrDUVyxyKyAOVA4eOey4SUay26g0PzQ+rfPlSdEicif0Arh4GCXs0cfPXo0MjJy6tSpb33rW8yb8GCIbcA54XAY2zxiDDQlvqZakmSpfDThhF07MjJy4cKFc+fO5efnUyjt/eKHjh1FPqGRS+LZE+EV+Yj5BwcHk5OTtbW1dXV1YIZyOeZLIT1KMwt9GPH++e48C5BWzgUGKXigqVRqdnaWa8CnnLIAnRwm/GSirTOITIBjDlSecrpgaGhoZGTkz/7szwKBACQalhXImHyMZFytnoUOe43oOTJZknk5VvGk1ZYkHvDguX3iQLCYiBNcAytDBoCadSC8MWIE5ae9vZ0EUCM81BGFhYXwtX7yk58sLS3BLlNzii2hcVEp3yGnQ8iFkfXJJ59A/hgcHJQIjzJikvHt7e1wODw4OAgQYkcCCIeM7SQSCTutX1xczDuz8RobG/1+/8mTJxlMx4iNuAIcJ0ycKhqDPSg4m5ubpJmgiKT/GHkhkS0RcFX4HFiSl2LC6DjRvnfv3te//nXOMOSpKL2QVSQTFt+EO26PGxuZlT1wI1jv8ofXouFoh/TAWQ4ej6abqhh9FquKd+P9xZtSKvD2228TPDk47J/zyv39/Zs3b9bW1l67do28QfLF4urp7NvZ2VldXf2jP/ojekY4v9LvZfh7Zmbm+eefV11G1cZaB90iLaCg4JIEoKmrh80S24a+ms/n03Lx+/0McASDwfn5+UuXLrH7SU5Jvzg4IKHRdmGEE3YIHRlQRN6TRwA2IRcNqkggYwbcBfBTf7lef/11NGtIO9hbZANy0+U3trtjc1Win0oAqCe8gBVdVlaGAgKfrXaRdrDsiQOBAEFLhCbLW7agOP9NcY80QUtLC1PUtOtEUgHvh70hQT3QDnYMELsWOqhdJBL5tV/7Ndwa8bbFM4McENRYQ0NKBpH3BJ7/l3/5l4aGBvQ2Ozs7eQwAGNPT00NDQ9/61rcSiQRUoNHR0YKCAtTo8vPz6+vriXzoq1o0lrDEBmOBsjiSyWRjY+PS0hLKlDSfwXlZrBqb1fwK5y+IHA7omk/wer2rq6ug5K6SkhKUdDg79fcCpoSFKImzDR1lZPorpRHs70AgYN2fSUL1VuodYqhLP0gx2QZDgV18kPoGSGnH4/ETJ06kUqmHDx8ODAwAyuk1xcXF0WiU9/zhD3/o9XrRZuEaqKrYCRxqeXl5y8vLKNV0dnaePn36k08+YViLScGWlhYI8YIQ+SykocbHxxsbG5ubm1dWVh4+fFhQUIAoOU5tDNd4vd5nnnkGiCwWi8GkX15ellYzlQVqTQUFBYFAAJsb0kmOb7oQwplefvnlgoKCF198EY9w2uy1tbUUMtFolOqJCyYmCdbDz0rEK5zajokB5CakxARGccDUBFaqb2cd7JiMgoo9dDR4SDlOZqTXW1aseExsCFINcZqsnoDGcVUIwF3a3d31+Xx+v5/gqXyZcAUZcX9//+LFi0NDQzs7O6dPn0Z5DBEpDlM+hSiCpC7eUBh4CwsG4uR6uEihgqDaLO6enp6Wlhb06fgT7ERWVlbm5ubIQJPJJO8JyNbT0yNq1dbW1vT09OLi4vr6ektLi7J1KS0kk0ndyWQy2dXVhZRBcXFxZ2fnmTNn0IjmmTK/Lh6FHaplfoDMGiwAQAsDiLy8PBcBkODP46Tmsc9SeZb9paUu2x8B+TC14NSgM0NOqraqUhMlYm+88QbWTHQTaIYFg0GOG2pCzhFxXmB+C8Rk4FSj5wpsRJH29nY8aN58882f/exn0IkbGhqqq6sHBgZoSRCQ4ZziB4LeEPgNw72UY2w4QF4SI2493xpHVagIyLPu7e1BpvzzP/9zOgN0ZemwrK+vY77ArDbckaqqqh/96EdS3WFlkF0RsdhRMzMzjJf6/f6lpSX0n+PxOL6cUOC4PO4bwYMIih8SpC3WCsORmg4/xsXZeeQfNkIIfLQxwxEJ7NIRmZm9m0gklHPQjtLJwieSr5CjrK+vf+Mb32AEC/DnyZMnMm9jzB9DHQT4eJ/CwsLr16+Xlpb29fUNDg4CsKrpKFnwGzdu1NfXT01Nod8dj8dffvllpHzz8/PD4fCDBw8ODw/Rvenq6jp9+rSGQycmJuCrohi+vLz8jW98g8akRE4pCghvs7Oz9fX14XCYWSY2HkoIKLxtbGzMzs7+67/+a0NDA1wFeNdut/sf//EfT506FQwGWeWMBFy+fDkWi6ExxLnJ4QJPAKitu7ubfUhFhnwoJwgFl8Y/yWCAcLDEJNQBK7MYyN9ppbloX4Hj4smorEKVi100VonAccQ4lojkOtWNo81NB07nKL+PxWLb29v/9E//1NraiidOX1/fiRMnODURbXr06JGGphANa2xsrKurQ/etvLy8paXF4l2cGgSqWCwGU5DGVWVlZUdHB2ya6elprAQo33D2HBkZAYnq7e3FQ35oaIh2Gq6MACF8TVr2RB3m1lZWVj766KOdnZ2Ojg6XyxUKhUKhEDrrU1NTqVTqD//wD3t6eu7cuTM/P487IiDE7OwsBtZYlQ0MDMzNzeEOBeuFLh1pE0uBVUjEwqubX9KqxZhGRSIXKd8m6EiMRGgMloOGWuzg4MBFoqAYwOa2Y72f+8NKUtaifg0zhngoqxxVy1CjwiJ0jY6OkpEhVEQexwIKhUIMsjY3N+M+g3bPyMjIgwcPnn/+eeTCb968WVdXV1JSwkAiW5wZNeTh19bWenp6JicnAakASZltpA+HmiVlAh3mubm5pqamy5cvLy4uzs3N+f3+F154IRwOYw6ECTLCQEjpDw0NLS8v/97v/d5LL720s7MDUXdvb+/dd9+FqYox9NWrV0tKSrq6uiiPl5eXl5eXR0dH29ra0un0xx9/vLe39+TJE0aCsc+lIqXi5cyl1SpAkg6w+rLw0+Cf4pOnnhGPAIqrxqZI2DU1jWlTMpk8pgUpMVbOYXtpmpu17TqbfDgOIJ0gEhzWXBaLiSAmTglZ4be//W1kk0l9IpHIgwcPQOURbkOBnvcEUjtz5gwNJpCDzc3N999/nx4eF3DhwoXa2trh4WGaJmCa4XA4k8lsb28zC0PCL2p3IBCAfXJ4eBgKhdLpNPYVOG/yDMgix8fHl5eXcQfkBMSThJY6ZbzX621vb6+oqPjyl7+Mg+zw8HA8Hlejn1whGAwGg8HTp0+TBb/66quHh4f37t1jcvO9997zeDzoN0GS4nmh5DA+Po60NXgxECg8GOyzJKVKLiyegJjMPLKtra1bt25x00jVmTw6TldF+FALVANwVnoKNo3a2RqnkEeRhVLQoSOPA9ey2QwrRuuMGszv9wMIYtF36dIlRTKQY8EP+LlAkObYamxsbG9vp7aMRCJ4Wy0vL9+6dSs/P7+qqorMNxAI/PCHP9zd3b1///6LL76ItAYLl/6faHmkGghi6WwmIkIVPnHiBMTK0tJSJr/Hx8dXV1cxoqQCknWCy+XyeDy9vb319fUjIyN8I4ZFqA+k9XVwcAAwf+3atddeey2TySQSiUwmMzo6urS0lEwmf/CDH3R3d/t8Pny60N8lKnCwWhdAUl0KVVqVnNQksApIzLjj/Dc6OkppxpDAMURPhCEPsqAkb8eupR/B7X+/PHIAACAASURBVCO10YCnOq52QBQaC+WrgEW1skCRiYrq2PEbqlwKS1Yb6x10XFExGAzqvwElGadAWIDxi5KSksuXL//xH/9xUVHRyMgIo8+Mtj969Ai5wdbW1q6uLm40OBgsNcqoWCz2xS9+kcRQco98igaoCgoK+vv7z50753K5/vqv/1oHK8Ff6nLgDevr601NTfxSSkO03Oi7Ql8l/pNeIK3e3NyM/OHrr7+eSCQikcjjx48ZkN7f3x8bG+vs7MQmS46+hH+Px8PEjaTuiXwUKBAPSA37+voQK+Bq4/F4IpFwXb9+HeooQuCwWgDIwfZZhjxyskU11TTOyaZRA53eEjkslyu2hzRISCqJOgyzX7lyBbK7GD0aE7Slk5Jo/i8xxzR+CAOSD8UJFd+j27dv+3w+QjdWZWQkb7311q1bt3C6aWlpOXfuXHl5Oery6BCxYrQr2JE2o2eZMh3u9/sZ/9ScLRmeyp/FxUXaPRpPYTWQgUL0l14tb87OoTudyWQof5qami5duuR2u6PR6PLyMgY9kUjkxz/+MTqA5eXleK4RTpj34X8KDAOhIHweHBzgN01CjYJXeXm5i7FBzAZu3bqFPSXzqPQGqSThVk1PT5OZs2KwrhJPgvIV5hzuwJhqW3U8YZE6C7n1m5ubMjBQh8VWRsp1ZEOsWUV6SWwRnMsBG8rLy8vKysLh8OTk5EsvvQTaiIB1KpWqq6sDrmhpadnZ2YnH4+vr68PDw8PDw8Sznp6ekpKShw8fQvxhgtKyePgWajABUmUyGdRtrWIFrXKIP6RTqpM5iAF1AMWJ6IRk4orWDceTBoIkaIN7LrP4sVgsFotNTk6SX8/MzHz88cfk4M3NzeTvtBRo8LL+yJyIMVrBzMa6rly58vzzz9sKtrCw8Pnnn0+lUn/5l3/Z3d29s7MDOst7jY2NjY2N0ZteW1s7e/bsz3/+c/TI8U8pLCwMBALoy0aj0eHhYcBBzmPOQjRe1NTlnCYJoHkrDo5Do9GqYZFzWZUi2tSwCRnp8Pl80Wj00aNH4+PjPp/v6tWro6Oj2NAAZapVKy+ATCYDDXF3d5db+R//8R8MWWGjwJMoLi6mkKEtAGI9Ozu7trZGps8v1eSLx+MAr9PT0y+99BKNWdYiXwSkhy+rmUjBcZp4JfEnh4A+QhZCsxdwpb6+vq2tjWvLZDJMrt+8eROA/5NPPqmvr9/b22OslT5fPB4nDUIyE25AIBBoamo6HmtDiZD1wS2GnILoG+GUqRnrMcAGys/Pj8fj3EHWPjbpKysrly5dmp+fhxR5586dWCzGmAzJOd8B2ecnT55cuXKFqkoltAbYrS6v6D8SyRDKxMNgT1sV8oqKCqRd/H7/u+++29zc/Oyzz5INIHQMgsQmhtLs9Xo51P/gD/6gqqoqFosRHcPh8PXr1zOZDNSCmpqasrKyxsbGtrY2r9e7sLAASQDdLFhbdEZLS0t5wc7ODk+IICR7VIUZvgh3G5Ip8UlcWhIUQUqaECOtlPwTxSDG0EdHR3hRLCwsgEIhkzc0NDQzM8PIYHd3d1lZGbLbRC8UGFzf/e532RAYe+MUf+HCBZj7lGdAlpIO0MQe6UJPT4+ksTC1BKF67bXXnn32WaEgqLNhyctALAURaVBbWxvAF1mVHjB3UDMcDjSFCp4ciIyPxwzViCMMmHx4eLijo4P8GhFOhvGpD+vr60nrqqurSUJXV1fX1tY++OCDurq6eDweCoUikQiVLcn1/Pw8MMP09HQ4HB4bG2MvfuUrX2Fboz6FWCVQG5kQiByW8vJsIDCQvcq5VzeBO0C+Qu5JyiWyEptQVCZyVVI6oil7j5MXpyimnQHgOWFHRkaePHly9uxZer8kyNFo1PX666+z4ubn5xcWFpqbm4eHh4eGhvgMzMhOnDgBlwk/htraWr453UgwR5JZUDnqERaQ9LLJf4PBYCgUEvDKMYz9FvMW1Dj2JHZguxJek/MS+CanErFBWgeFhYV/93d/t7q6Srfl1q1bR0dHDQ0NN2/eRC4xFApxO2gxypmwoaHh7t27mUyG+0vA58HDY2WIobKysr+/n4AfCAS+/e1vf//73799+3ZDQwMjFGg3gLqS2p88eRKgAq16zgjqVUlRcgMpGqB3SW6fsojAT8eRU1Ki59Y7VmQMoFjIQKSYxDbyVnRvQqEQh2BTU9PY2NhHH300Ozv75ptvusjYSZoota9evVpZWTkzM+Pz+dLpdFtb28OHDyGtFBcXT0xMTE1N0S7iN729vUwntLW1NTY2YkLOFZMfUCuqvSfKAZ/r8/mgsQiV1zQzf6UKiJhh+QMCV4TTiDygz/J4PB0dHUg8wDz9yU9+8s477wSDQXCzjo6OL3zhC4FA4Lnnnnvy5EkkEvna175GeGhsbIR0Az5NswO0GzBKc+Rcf2NjY19fH1AvTYOjoyNG3Eh9xsbGsFACMWPyqqysLJVKQVaSgA/LiLvEBiBjZQOIUKzxC0GR1rlAwwCW40H/QeNtdMcqKyvv37/PggsEAqdOnRocHHS5XJFIJH9mZgapDL4zTxSDdOZXQ6FQLBZbWFhYXl4OBoM1NTWUlIyuIPRJBxIvDgCZeDxOJCeq48vU1NTETqV3Lyuu0dHR69evv/766263myRf4pwcE3wi8UlTFBrAFC4kAUUCLESNP/3TPw0Gg6+++io7D70hEoXR0dFkMjk3N/fo0SOOrY2Njc7OzosXL7I9rl27hqAxhb1G9MiBKEmKi4tRiTk8PHzjjTdee+21YDBIcwS4D6/FSCTS2Ng4PDz8zW9+E9VK24WnSEZ4SNPtmjWU0IvWhx0ssswHna0OQjUVtRgLAsOU9fO3HLLg90q3XZQAcDso31taWvg9g+Q4pCLzgu8aG1fHB7eptbVV/E3eh1KIqczZ2dmVlZWpqanx8fGhoaEXXniBnggqAfn5+RMTE3/zN39DCRoMBldXV1E02d7ebmlpUfeH40yMIWHnKheP/TFcLplIcgdTqRRT/FI77ejoeP755zndgAFu3rxJavKjH/0oFov19vb+zu/8DosD6EjcbDsGphU5MTGBQjrxRhHe4/G89NJLDMBtbm62trZS9/IwKEPYvkzy8Xg01KMOueSpQSzgtUuVSm4OGjvSsAHrTHxvDaFBo+d58bnBYBA4mJ12PHsLxkCRQ4oEvKgeKSsaJST4aiBIgm9xq5BCo1SaSkpKkE8tLCzs6+vjOm7fvo2vBUNK7e3tGxsbS0tLAwMDnZ2dPEXO+0gk8tZbb5GWIyRUVVXV1dWFThW7hySf1UNFLXY+4Xd2dpY3hMuDsymuGoRlSg+IRa2trfS6X3nlle3t7evXr8P1YvPYRhfVhBBhiu3Z2dmGhgbpwgnMQMDC5/NNTU0tLCwgvCNOIaELsA6jC5FRxOESYqlpPJY+z44jWDPrmhuSeLoYYVLCVV1N8NC8KspVnAkasTvG7xD7YiSC1IabqJDu9XpF0lEM1KQGuJkcYThBtPn4Q1YeNTYOhxSNnZ2dm5ubKNRisry9vc08OzIKCwsL6XSaZ7yysjI2NsbLLl26xLFNYJdFMIcu6eqHH35YXV0NzkihX11dTaVKzakxV74I8rcNDQ0jIyOdnZ3IVdBqsTCrJFUs0L6ysoLQl0aBGA6CXF5YWDg9PQ0cB8cWyICKgy6YqAWSLOfcUZdR5B7QFJJ6TSOwDtioSjtk72Q5PTKD5jIEV/Jj7TULCgqOle/oylJ8k/oK5hL1F9QSxorWuNjIMje1zGTm8TXJt729HY1GUQqBTU7qDnUFGpzUO+TyFwwGW1tbz507Jwxqc3NzY2Pj7t27MquG0n3y5Em0qZDTgKg3NDT0xS9+kedaXl7OxJ4US+020KcjbYjhFSued9OQohQ+NOdHOcqsOdA+VRLtC6qVWCzW0dGxsbGBwbvsqoj8uF0p8dRDVczg3qpdx7/at6T24Lk8Lx06mmUXFKk2HH/LsQB4o4Tv02FV8QIJLIpymrzV3JuU3UFEuAh1hgWlEzDIAyQszJuznCGZVldXE5Y5UEOhEAkjUUrdao5eHhVYKodRXl4eFt3pdBoVKAw033nnnZWVlatXr25tbWGDxFEIE0yznBo745syxiidSQwbmpubCb8kKJLC0t+qP6epWu4pjTG/30+3iC4VBvVnzpyhtQStkFDBkCInjhJhqUVaaWSqXyWCSlGl06TmhiaZWXN6DWGPJytyiYBQITGiOO3u7rrY+loQtCF0iB6/6BcOAhIfpmTn8zSqpIJI1ATWliAdl8s1MTFRUlJCvYNKE5Dwl770Jap8cgv6eVbRG8iLCpP3ZC+WlJTU1dVxL9rb27/0pS/F43EMrO7duxcOhxGlwYIzGAzSl4GLRWCDgCgtKNDheDx+7tw5Hie3iHCi6t3uV8gWGDzW1NSwsIRkcCcLCwvJafhE2V3IV1oCaxoEF+eD/q3I5zrK1SsWi/TYn9v1qeKyElW1PO2giXzKBbKpy60kpoBkB/RdM9BCFxxNNU0TcYl8jM4ROYfYYTjenxtNjQOJPJFIwHdn2WmZakFIzEkTGLQPRHclMFIVb21tiStfU1NTXV3d19fX0tJSWVmJwLfsoZaWliKRyPLy8vT0dDweX15eBs+WkSiqUWj6WJ69ZTuw3SV37PV6FxcXmdDRZK9VuC8rK5ucnLxz5w6uWagbrq+vE2aYe6MHy7KjBmYzUB+BSmvCni0kbT49VNY6JSqzu0pmORA1+6gKkUpQc8ha3yKCubQAJeeo8RCrXiTxK/5Sk3ksTysAISkKYp0loGh8FNCQW8l25BS0VvXZ/ic28+KaNYslwoCE6o6Ojt58881YLIamO2wMn89HkwLKFuEQFEdujS6Xa3Jy0sGO5ixWUqL7wP9VVFSETa62vqwEifDQ6qBMc6Lx6VSFPD+YTZwmPAuWrCK/Hgd/iFyF7ULoBapcgIZZ3GBC4jBIgEPajUAJyoHUT3ZZVroNVprR1YLg6KVFxNa3yjOEQdYp9bP49BzebD6eE2uI3U9lJHE9SZSKvabaT1m9Y1CUGCPWIw3e40kyl2tvb4/GMoA3Gff29nZlZeXe3h604YWFBQByNuLm5ualS5d4DHwdbiJEYj1+xpag/2xsbNTW1jrCLXkY3FLc5ogc2FVxbXAMSMzFuYFwKnRLLBxLslHqI7EQtTx5H/m1y1BbDSwOfctDFflQ7peyAXIpM+I00pyLeHga46ZepYLgwNZIMYOKhHSoJ8pnj90IXK6CggKA+ZqaGioL7s7c3ByilFqU6ryon2cnsvhht0k3xqoGut3uWCwG3MI0AxsXgBmrGjS4IU+sra2R0wD21NXVoTajGCapBMkwievEniM2IH7HWUDuItXsgoKCycnJq1evFhYW4qFJfcT7oHlkT2rcmHiWvKFOds4FK3qr6UYR+cjxlXpTqSlZFDYhPIlbJ9oNO41T1ePxuOyAndwd1C3T+pDWu3RmBOOgnwmK+tFHH/3+7/++hr2EPxI24/H4xsZGNBoFzmpoaOBDT548SRasZEoHnJp2Crm6YM2T8R/S2mPeZGxsjKqypaWlrq6uu7ubhzozM/P48eOtra27d++yvonATFqj7FNcXIzavyphaZKyTSWZv76+TicBxjzflBNWejJg3rR29WhpLFNNgLvr4bH1yVsFl6m9xxOhWgFjFPVYows2WyAlFwWJioRAqNRKTRzp/0h9xO12u6xqqh3Qtex2qw2hJyf9Sep+sstIJEJNLwhSlHd9SkNDQ2FhYVNTE4SdxcXFiYmJS5cucdNZXpZVby1gLcne6oLYKVHFIaTJoDpvbW319vbW1NQ0NDTg77S8vAzONjk5OTExkZ+fPzw87Ha7V1dX0+l0TU0NQrzaJBonlg+QvtHo6Oja2hoxhmXHTZBUWjKZFHgvMwm9OUctmTJ/bptBihN2vNkKCbOTWZoSHhL8agV82PkUX5wPyhbImazFJb+MRCIuq05mMRYpVFkFMIUQFWnKW10uVzgcRnKO67Bj4hQpqVSqpKRkYWHB7/dHo9HW1lbCz9mzZwnR7CHNyiqlsm9l44o1y+I1CFmVlZW98847MJap1wCC0ZnkSK6oqKBAbW1tffnll/f29paXlzc3N//hH/6hs7NTtBjpurAZwPpAFCTNEI/HmW9gy1LEUs2yMhYWFiwdmHYMRYS0MERFsBMxjtNEPAermG0VPQRQcdgJJxWOIm0H7XwhLtJ7tc648/PzLsdQnbWPkU0MvwTnsZpmYkkdHBz4fL7FxcXz58+ruFDKyewGk4wsc6vdQLCVbZvUfBS0bMosHT2huoof2mpkDzglRqNRWmuYpOJfw72WugmpAN7b9fX1L7/8MmCPpCXsEWzpmwotmUyGBqHUH4WKShC2u7tboVRIF58rkwnpuKjLYZ8olyTInF+SkvMmdtaJX6Kxzj6kolbj085p60ErH1KOlUqlCuxEbk6KuXALmixqEwAOQvzkhwgmbX9OcZslwA2orKysqalBrxedP04iwr5kDi3D2eI0+hpikOjriUE+PT199+7d/f19tH4AD9ApJP+XyooAQzLBgoIC7LCozjj75REGHiglRbXQFhYW8IMGrJSuE1Hk4ODgo48+wksD0IL6RcKevAlQHntJEwI65qTILuVqUYfEAeAKtYC4APmgKytQtsDpRqFg00dWGIy4hw8fHpsgKxuVLx23nvpFtu35+fl0xXhr0bI5/JLJJBxdiTtw01WkTU9P4xmtSp3Vyji/PS8csc1q8BWYHwfb2eqlrq6u3r179/r16x988EE0GmVerbe3F2MJbgofp+EaUu/V1dWTJ0/S86QY4a4J8JZZjMJ+YWHhiRMn2CfcN6anKEkKCwvZEuJCi/5C8kEKLE4uTCu+KeYT1jFMbuuWNCPWiFhz3FjoAep+i81JsaYkRiJCIjYolhzbBLDErLiPWGuEOwIyPetYLEZLL5VKsUvENt3Z2QmFQnLZoWQCNNQQDcNLDBVC2svWwXJMFIsBb1uRUqfUw7PK8YzCwjRzuVwzMzMTExM4Xw0MDCAzh4Yd0Zt8IhAI3L9/HxxzcXER5JtrtgmQpQ+ywUpLS1HNtrr9PICioiJ8KilEDw4OpJFErAVFZMvyHUkLlH5JOMNhgKwlpWE+nrTqTWkPq8ZR9ia4hZusM1S7DrIj1HnXJ598wgaCRUYRKPiFelq6i+vr61qeknZkcbA5GJlUcgD6RAwnhyBLODw8ZB6VNB5BWR3DFm1TkmWLYYdMkpJwPrSkpOTOnTtQkfHPq66u7uzsRJX7/fff58obGhq6urrq6+v9fn9FRQVt50QiUVVVdePGjaWlJZwYQ6FQU1NTIBAIBAKoYbEfIIlVVFSMjIw0NzfX1dUx8aaSisdcXl7+4MEDkfSgQnL6kB5a3UBoqgJAbbmrtaLXq2uvKC5iEQFM/XaHzpT1DxJqQD2v3xwdHfl8vqGhoerqatfbb7/NZzN1DmdOYOvg4CC6P4ANWBem02kSJXofcnSX5CYNIVGeWGdzc3N5eXkwyIEI19fXAUgYuM0ZRbIVszR5pU6VAp7OmtXVVZJBXIj5KwQqL1y4sLGxsbKysrOzMzw8jGESj//FF188Ojo6f/78qVOn8EqGr8nCKigooF/Y399fWlq6tLTU0tJCkaJZh0QiAR1TlBwKnIGBAaYv9aQl0sG1EasEg8ryTIi74qXE6ZXzCYOxzRcegSYWtKvt6Wxlc3UscgHofI6Ojl66dMmF8h8bGoCZf0tKSqampt599126O0tLSx0dHbwjcyJut7ujo4NjKB6Pp1IpJMZJUPAqKC0tZRIEA9GDg4O2tjZBq+AiMIZEdpd+STaoaut7K7mmlcEtCIfDqVSqpqYmEokcHBw0NzdjyU7JzVhlXV1dWVnZyZMn9/f3FxYW9vf3l5aW3n777aWlpfPnz4skwPRld3f3mTNn6M0mk8nZ2dloNIrU05UrV+bn55977jlwZylykWwS29977z387ckf0apj9bCs+WpgS9wxKXwSbGTwlQ3/qPJSbSGYQLqSVkqIsC2HTEUODhcWGcOeMCKqq6tdJFmQo2D6cPKVlpaePn1aaSktg0gkwusZ+Ll7964SVaiU3//+99PpdCAQaG9vB4Fwu90I5Yqih9pHa2srToBEyOyMRKWWXTSOUtx6BygaM+Te3t7u9/tDoVBlZSVSMyQBtm4HESaDhifwt3/7t3TjyLTYNpoFLywsDIVCKssnJyc9Hs/S0hKueJBO2GCyZYKn3tvbyw0k3HKyk6KRhagq0RSqLCgELKlgVieVlaSeGqeMJU1awToWjT0Etci4FbJiZofQKmlqanKxlDi6xI3b2tqCUcHjhCeG2CNZLuMY3BS+RjQaRaANmShctBcXF1dWVi5evFhSUjI8PDw/P//xxx+fOXOmoqJiZ2cH+PLZZ5+tqKhIJpPW+tkhq2ezab1G0zRCKbgLJEYHBwfJZLKzs5PuHegFIjPqkWqgkAJ4ZGRkd3e3t7d3fn4edoTCvp3wJpnAkYiAqn6FPMuP/aB+Ides8A5pgdcofvAfMD8EgVuaOykL+x5k1tKOOIPk1UGOLDUG2/jUWKts5MV3VxYlqUvm5UpKSlwqXCkCKVMFT6llI1UILvpY4sjlQnfA7XYz4b27u8ti0mkFGDA/P//SSy/hsj4zM7O4uPhv//Zvh4eHV65csb6kVl/VIcAn2qwIhVbTTA/A6/VKP9Tr9QLHITLGstZt5dCx4pwHBweY9FrXRKtErSkejS2Fw2EKIk5eDfeur69j/DAyMtLY2Ojz+VBmFlMVSQ+4Z3bAnaKMy+Nk4djSMSramza9+uSsCTVEuS1sJBGg1GDi3YQPsaz5jplMJhAIwBF2u90uvC/VCUNIw6qcSSlV814qPchuFKkIkixkciUmBIVmIk/V0NCQyWROnTqVSCToJ1kOihXtdGhvOlITK1giHv/Ozs4bb7xB+tnf39/R0aElpSVokzjrUUQzloFCDnLLjFGJKJID1Ij+/n6RuPSeFPM7Ozs0JWBQCHhgs8mfSq1XAYbSllVKKwDGjrxzppDYEloAPOjJY8OipWD9u3TKKGhpFotahola5liPE2miCLmP5VUTapR8icVjdZslg2H7RnqBhBhZRgQY2Jq9vb104R2NSsf6UJR2uBLYhjCPH4mpnZ0dNF6kKy89GZHLJbmm+FxVVeVyuRoaGrAJE4yrraIEyOPxkJ0I4dYZJAiAQ4FTOBQKcQPpyGh0CvUNzTWx6HWMWl1CC3pavi1xWhPhGuNQ+0LZDJmvkGLrOGUrR83Z5+fnnzlzBlnfAqKTgBq1m+0jtwi6knB5DtkJQUnuAQOI1aykid3M3AA8dflK2ZzUrpJsvFW7Vng2D4+h84mJiXPnzn3ta19DVptpMW0RhWilgcjCyodQbjVakVZwiwejFBvlTCgBlA88A/oJ8N9QIVP1TvdEc6l2xNL6FOpSLQtCjGixlsSrpa90bL7scrETeAelouKOOCzIFGl4JcsR48CDgwOXrc6VwlhahhYE69fuaYcDvEOjXfWV0ElNgWOBTtJnH2H2KaNGmg0nWrISaFTWFg6HXS7XiRMnNGYtmqCgRrXLFRiKiooikQjBQ+9mIV0HOcHSJTs7O1dXV22DFNnunZ2dZDKZSCRqampYf7Lq1TlFC9PqMXFhtk2mWw0+y70it+Vwp4wSa9PKsShFVb1jiaSiROmcsmpCfAotiALbRtEHOIR4Wf4yCbEAqIhYDgBDshncdLX0+Bc3P3TGlJHlBONVs1kpR5WLekPWzcTEBBU75xc3SL0uWXqrSuLuMHhdU1NDPWxNnBVH7dFGVKCHgBiJVjYnNbd7bm4OX0QhYzoL+FdrkeCk9WpLIVHK7TymBgNY+pRI5JGcbnah8z4ibkpP0J6h8vPQUIXmSQuyIW2LQEgPWnmNVre2o+WpK2DYyQnKAQmkID7D/CoqOYww5RR1dbT3rOuNeD0kYiTdKysrf/EXfxEIBKik6B7QCtDiUJ9ShDy8BtQohmPrKL817iZP9IWFBep2KdxLJpTP2tjY6O3ttWZ7kMARUrNufyqbRdCxbApL8LaNFe0lAA9JW1FwiCCh9a3NrORd7C3NFIJzipdeVlZWoKauHrY2pWKDzUs4vIVmSiSCG6E/sUeD2gGqbxVjeEJkxDnRMwfR2u5s9TNZi2JUYKYsz0B2HjtYxAtdLR/EwdHX10dGKecum7Ra+hlra3d398qVK+rLaxlxi/Ly8qLRqDIzyQ+x6enVscVpz8qty9aMXLM96UTsFRlPeqckeULudYiAxMjLxlYVKlN4RtI14UPBWz89CMQGFQCnI18mvTqDdYjQbdHSsYW7eu6WjE90wVbY0SnIPt3sWKjyEuV3VnMG9sO7774L1qnRZ+gXLAU6n4p8WjQej4eMgXxLpBD1Y6mJWG0q6cl7mpubSZl5c92TZDLJRNnly5dF5xEpBI0hfVMRrKQaQhIqT0xSBCKcRv7pMGtMRvWwvpcyRfvglMDKPZ0rESEeTM8mlAX5uX7s8e/gBTpYHZbW6qhHbFhSpqIDKKcKtKPctWxZB3FViJZkwWBgoByqwkHRUYwvoSMqHMrKyubn59F2U8lqr1C8TDEs+eXKygomm+KDcZzBpkCs3Ov1EjZoEetJezweTmF9kLa77qrUJYmyFipkD7BkAdCUo2gBCapXeHPU1VIW0SSi7pLWXH5+foEjSXzaKrGLI6e6t+3Ua0HYUtkS5hx8CMfhkn3cOGoch5+aBvUQ37XETHF8lJQRTtVfFXjg8XiWl5elz0yCwlpROskj4d/d3d1QKBQIBLi/wKZkmozqhMPhdDqtUl88bWjrgqp14JKfKejaLIRHS3GhW8GNJXoJOyAGqFbSiSnKlU0GHHxyzcQoWh8nQ9n8v5xRxFG+WwK6DRu2vtX/ZXNY9RJtYHA43WhFZltW2BdDXZNIy97e3ujoaHd3t2bL0L+whdpbzwAAIABJREFUch32NmlBY9MMG01HiUYirGmVhGxdLtfKygra4kx3anhOziqbm5vnz5+XJ5BaIZx05BAiwAJISMSRJ81fccEalbNmjwQS/krVDTWRxjNFxrAu6aKsKzmzALElLB8vEXuOOFaJw4/XsZvtkKCDEKWFosLHUQFlW/vmdD9yjGvoNBWHD9EYtvXc3JwesyKq4AoLkmrGk0uCIo8+uJin+r66p/IcPjg4SCQSFy9eJChKWwUFM+G8bW1tbG4eJMAXhaV8+2RbBhyCpCDpDsuFIIfSIbWGkkqdg9lopwWmrVEE4Zx/WXCoLgjFd/CVjo6OCrKhquwfBz5mKx0LXeiXFpC1NY5dH46rz44WjrWbM9IIlna73SsrK6iY65HbCQPOWnW2xOAic8xkMiwLdjl5A7jzzs4OXVAYnNCGLbmc00QDi0dHR9XV1VtbW8lksqenh+CvwoRzjQ/S6cA7cywq69dTlHjw5uYmWTMUNYpnVqckPMRL0sixGE9alyp6tSbsRLRlUx8fNDlzEftcc2YG2ZHG9u5VBNnoYo8YR6PfFvq20LVLMxuD5xSXgOfc3Fw0Gv3BD36wsLAAom9Hwqzltq6HJvCTJ0/AeQWy2eEgQUnEKghWW1tbjx8/RjoAkp6V12VHsh/AG6y5oPrqFKUWyWVIE3681NIBUTh01OoCJeN4EvUYGhdfGV4wF8YCUvdOOQcXRrLPv+qM2tOq4L/0Y5mPVtbBwROzKKpjYt2ObtulkM19z9nYsyUxX1L9jqmpKYaXINUpzVQiZRV1dIRBYL5169aNGzcWFhboAqJZJeDfxnModnl5eYgJCBeXEjXyOKurq/AQSGMdtqRIS9D+pQzWgAGsLvIbTBaIlAJsrBwtyw6yEiuGKELpK/qjw0Pd3lvCEiwWcXI1NX5sea4KynofC8mQtYjjiVpWuiVOiqyq1+ibKE2z2qm2uLJQm8Mtyco1W68jzkvIsx9++OHv/u7vdnV1wYr1+/10dGVFTVDV9tWcxHvvvfed73wnLy/vwYMHsVjsxo0bjY2NXq+3q6ursbERbHtzc5Pzgi+C5lFtbS1mMX6/H9oiZp1wV2G2EupJmIDGuTOJRELHlrJjhhTRquTcwcWMEEIAI8YgnLq7u1tVVUX6wndkUIElQj9P+ZM0AcREYRnJhMhKYUEz4A1dT8sAHDCJw/Quu+KwxZijG5fzLHOEhJwlTDaJNftSGWxhuSwtLVVWVkJ8t4WYUs5jy8hfsEww9iorK2ttbS0uLu7o6HC73ZFIJJVKzc3Nzc7Ovvfee0VFRZWVle3t7W63u6Ghwe12p9Pp8fFxHolGL+E2i2wAG1ywW3V1Ncgmy4JFgxoPgZAzjgEDgiJ1EJwPxnxEKiMdZm+rUSU5EDJcK+aslhDAPC9wnNeMNQkaYfMcZ7ifC0LY/W1ZBY4C1eaqjsabPUeyEwv90nFaZy+R7ONMvdCZmZlEItHU1LS4uLi/vz8wMMBUi/qc4riAWmpyDuFoCWgxeRoIBGgeJZPJ+/fv//znPy8vL5+ZmaHARhX+/PnzpLQ+nw/PDCxZOE8//vjjy5cvHx4eIsjDBZD2SpgaspVaJMQYCLZSqxb2ZY1cyH7EChCFA8BJAIx6N9azVmqLDocg4YrKPyRo68p+DDZXcCSV2dWpIwd8WlbxNP5H9mp7Gi6XvZiwn+Wxzc7OkoIEAoFgMMiJzurh8pgrTqVSKM8cHBxcv359c3MTMXwlp4CbRIX19fVAIOB2uwcHB69evcqZsrCwgC4IKjcgqoLzgXr39vZWV1cHBgYwCKcJQI5JMJCOKpsV4QnqFHBSUlTEKUSBoznA5CxfgZyGwUEVhmLWKeVUsqxev4b/OIaogPggWy0eA55WPMKuD0sZyS47bTNFZYtNAx0Tlw7MzXHo2LomZw/PTnzYmoudlJeXFw6HOzs7uXfYoGJpaIekadPIuT0SieAH1dbWlkqlEJgQhVZ6lY8fP66rqwO0CAQCFy5cePXVV4EoSA6ohsgN6d+OjIxQkcKilTJbQUEBp086nWaLY0IK81faLZWVlUdHR6lUCj6s3+8XzZZVBSFSnG1mL8iadXI5Bu9EGclOGKzzgqO5cbzncwJiDvOXbHvv7IrU/knO8lhga86+zGcbvlpGj97TiuQ/evSotLTU7/fX1NRsbm5Go9HFxUWOc5Hf4BTyDph0DQ4O4ghG1UfgobhlVU1MTGCfSA4oOYaDgwOlF+LdkIhQanZ2dsrwD5kreVEyXlRRUSGvZGoZJmFxIBEix/HEYKliCTUzy13oO4uYs0kz4hLUsLvRDlXYgV6re2An/z4fOnta/pidlOQEXh20oGzv8Gxk5WkRJTsTAneXjUskEkkkErJfkVIq5YwaeARnjN/kx+BIkrhNmUxG9kLUFIxsIV8j2U/5bBK0NzY24KuSHCAxQhm5vr4uR8pEIoGUFwcKc1aMGglZEctOnvAcgpJjITKpHqE2oUKWqpFVH2HpsLYE/8t6QBq7/0m75Wnrw/HYHNEpZ32RM734bLj2M9ipT8tRLKpGZ2RycnJ2dra9vb25udnn80n8SaW4hWQoJn0+X19fXyQSYcUIZVK85XnMzs42NTWBnbDUSktLw+FwJBKhp4OXTUFBgd/vpx7Z2NgYHx/v7Owk4SAFlshFaWkpWar8clELlg6ubB6IjsC1gGMIhrHX9e0obuWAq6KadSmmmUWxuRjyEhHhJMxhvX50BhWoLlJ9aNeRUlGrfub4b3uI6CRjaVuQTV11qwitutRxctkzhcuzkzVqXB0eHmIayuxdV1dXa2trQ0NDdXW1SjvBQepT5Ofnt7W1HR0dNTY2rq+vA3Pxel5MfF5eXq6vryeHVUoYi8V+8zd/U4Lx/Et9CzhbWloKSYAEE6c9Gn5kxFwtFYrX62Xra2pXMiFSwQNBliIIY2kCQiSZrKjDAwYIAY+3ikWpVIq1ziwF0/zk0VY27NOrcuxgPXib11hJMdslsrWuY/Y8e6LOAbtB5rMdRY2rWxcV2wBytIutqnhPT080Gp2cnHzy5ImQTYfCgMaWOOkZFvT7/dxZLEfgE7EmZmdnyRY1o0A2OjU1VVNTY4ewpWKYTqcXFhZSqRR2GlAwOWu4+xwiDE6TtCq9YPsSMHg8PHtNyPLUNeCuXj/MS+GzFKu8g8hmloCMlppFmaX6rYRGjlB5eXkuW6fYlootoizB3X6eXS6OLCG7gWydDMB2xEpXLFEvnkgrFl3OHJZ44HK53nrrrRMnTgwMDIiQp9lU0hF9Lp100cPW19fb2tpIXKQ/K/x3YmKCQXY5WROlM5lMY2Pj0dERNHfGdAGmvF7v0NAQ/Wc0mcHUUbkBgFFzQHAWLHaCCuinSC3UMsK4Nbkp7XlJjMgGWneMhcJJBFpKfNLuIsVWSgdSBz4k1ZOSkhJXdtKgNWGfsfLbnGBodlvuMyoUy5Cz8lQaktPtEGhooVidbgwqAiovLy9vb29jDFhbW8v2FbnaGoOqczY3NxeJRKiTYQNpqJ/XY14g2TEqmnQ67fP5cFlEYZeEVy3Tra0tVJpl+S5CPIcRaSZOCpJskNQg7WLllULftUrY+spFxDvh4jlNNP9tXQPJPBBqsEMe2jDEMxVuXMAxGcA23mz1kd3Gy4ZPspeIXpATJ7WqoMppbEdRK4OlANUvp5YEoBl4eW9vL9Og6+vreLTFYjF6YNkbgMuLRqO1tbUcBx6Ph4aFVY169OgR7qTH3axfMLRpx4gSizsAX7y0tPTmzZuqHQgY1Ngi4ieTSaI6xYscIOgPcCUIAclXii6MTBTlqq5eFZctkr2MyVlwXDwMBBJ8ji3ONdaBgzhsKyCXY9872AOWK+pgxTmq1uwfh/qU4zzSALeUAkVelBKfcOLst5I1wvj4uMfjyWQyfr8fIIshGkng2dDFh/JWy8vLHR0dNFaoMuT5QkJGM0/NMzKYe/fudXR0ANGCmGmDZjKZZDJZX19/7tw5IoGWCIAYiQXHjQONlKgOb4vcr6obDVoqjRNGrhpEULKSTclFOTat5R/poXCjiKl6FsdjYNkB4ND8qIlsqUC2ALGD/NqgOYFUO21gMxheNjo6eufOnbm5OdHpSNwcY112vcvfidsXjUbn5uYSiQRZp0O0yRrQ8PuHDx+63W56OrwGO3fGvsPhMOrKYgUwYEIxQiCRyTL+h7KskF0CT5HUVUuzoqJCou98hIXDWUZoT2oaW5M7oqayqkD5lDXb/rlaMNJY40OVAMkWTSNFUA6oy1jKzDq57OPU7hTD0S40ewDZUtbqgNsHkxOJVzSyLgu7u7tvvfXWhx9+6PF4GhoaKisrW1paLl++TH3PcKk4ghaOOzw8nJycDIVCjDjwwLgFRGayd326OhTcwTNnzoBRsu1kFoPvPS5eJAQcQ4WFhbdv3/7617/OkYQPWDKZ9Pv9ODUPDw/zpTY3N8vLy9GPXF9fx0KbbJQTh+2O8e/GxgZrBUmcqqoq6YLwFSSDJv9hql9LMZQCIjdHipWS0+S8A8WBqmLp5eStGp+RMN/BwYHL4hDanfaRWD1WYRuiN0rwVBR+y+9ysJEd2iHy4CEh//Vf/3Wfzzc3N5dKpR49evTGG2/gnTg4OAjgceLEicrKSinGcBkrKyu1tbWpVIqmfFVVlUyYgLcdlh1keU+ePMH4AWybeyReASO+g4ODNGus63ZRUVFdXZ0dxMUsSzq7165dQ86JPGZ7e5tL4p3x5I7FYqgB8hRZSRCIfD4fVAHgWpHQBMBzgvBEeaiC5PkUzXyD8ci+WDQD+jssfXmS6kaxtliCx8ZUOZv72Z4en1HIqEtkkRJHmuJo2DpE7hiQxJQeK1D6WH6//+jo6MaNG0wuFRYWtrW1dXV1VVdXnzp1qqura39/P5VK9ff3S1p0dXUVW0+8qjQGp6XJVkulUjwtdjaUHzYoMy/qIUudBlnA9fV1DJrp9FJaEw/cbveNGzdeeeUVmD68GNEA5sK9Xi8qjHjgMa7NylblwuaRXBQR0Vo1ik5AYU+zGt83dfwZtNRpYrtasjxUFiFRJHErbcPvUzKAY33YQvFpPRrVCAK7bFmrlMcuQbuMLFCGJpgmz3jzqqqqjo6OvLw8dBm2t7cXFxddLtft27cPDg5u3rzpdrs7OztRKmMxgW5Jj9uRZetJHBwczM/Pl5WVATmoFS4b18nJycLCQug8UjbPz88fGxvDrYZaF44xQYhcpKysrL+/n+SDTwwGg3AANFcs72m0jejxCtdSxSfPb/4bMF77WyqmtAYJYERWjiTJKDoGCWjHkP9Ki5Fmp8xJ7GiWc4lkUzSyOWbZPR0tjpwNuZzkMYcOAAuiqqoK31pKle7u7sHBwf39fSqITCYzPz9fUlLy4MED6Hqbm5vY3EOqODo6qqmpSafTUqOQjo8iraiTiUSCcVypwQpydbvdo6Oj+PCRC9O+KSkpWVpa6uvrO3HiRCwWk9rC0dERfMRYLFZfX88UO0RG6V2B4nCcEW9orCjT1L5S5UJqwiJgHWgEywLfZAzCUjXupFBhq0JlBWqMCHmSj6LFKo/7Fdk92+xq1iKqT3vq1qggezAnJ39RBLvi4uKqqioQPW3Nmpqauro6PISoKru7u8XHicfjFRUVpBT19fWcrxpIkXesjSUahjs6OmLWElAEHRTK3Y2NDRhoL7zwgqjL2vrJZJLxOxlC8IA55sbGxtA3k69IKpUKhUKsZmKqdqpkvlmUXJUIlOraq0ehBp7E7yVRT6eX1FJkAPnNWUxc54imrx1PxDFqdTwO/hnniGN+MxucEAyfc4Q/e+VZnoDuCN04fA6BgGiDNTc3k1UpVuHI2drauru7u7Gx0dHR8eGHHw4ODgYCAXIxNIlkpkYtwBJhQ3MW3Lt3Lx6PY3vIJYnCCEMMryN15jjai4qKZmZmsANA2AgzYUQiSC2R1tzb21tfX/d6vfIhpKwgM2XpwFyRLRBMNiKT5H51z4HpiBaiKrLjVcSx1KSRZI29bVUhAXGd9Rp9laSKfV4uzdbmPGscHZbs/5ndnXHgsDYzdaw/Ce5wm6qrq/liXq+Xni31hbSI1WVobm7e3d1dWVlpbW2tqKj46U9/ihtyd3d3ZWUlvGKrQqNrgOVVUlIyPz/f3d09OjpaUVFRW1vr9Xp9Pp8Q28ePH5NCQg3kQ4kxhYWFzz33HPA5u83j8RAMSkpKfvrTn549e1ZFCiAYBTOS6rIDUPOdJhwIut1UevxC3KkQNXKszaZDh3fQcI3YCw4fZ+H6nEpEHWE8kuu0qEfuKJJNIbOLy/FLDefY56FT0Aoy23dQU43/oIGUl5fHEqFVLZ9iZtq4QYFAIB6Pt7W1LSwsjIyM9Pb2joyMZDKZWCwG1NHQ0ABdSGCxsBCe9L1795555hlIwrSFKTQgjuzt7Z08eVJ2MHLxTSQS9NzT6bTX64WyiqwoySnu0iTLGGjS6D9GF1wuCfhzEBAS4CiRZfNLteKYeACKxXRR1Fq1ZK1hmQhTFoDQAGK2axH/U4YqIt1pEJrn6LKZhDKU7NAifQRHn09xLGd9a7MTxTTZ8Gqp0pAkzpPq6wVCuAn7ioqtra0jIyOnT58m3iAW5fF4RkZGPvjggzNnziwvL3/1q1/1eDwyvlQixjwE2JfmGUUYm5qa6u/vB1nRuBCnTFdXF2mEqI0EgOLiYlx1Ojo6IpEImWk8HodpsL29HQqFeOQVFRUsdEgCa2tr5eXlSKZqGIzaB7MNrtDqDUuozWaXeiKakxDPXnbxkr+yygOAUtx8O/pLxALMddl013GC5Awejt7N09LSz/jJbq2JDeX1ejn+hWHoKLRyJgj6/PjHPy4rK2tubuZMZWi7qanpzJkz1BFvvfXW0tISJhBnz56tr6+vqqoaHR1Np9P4kEjzU1rHKysriUSiuroaqyuqD3W5yUZlVC3Rh/39/YmJCdwgKSDRiAbZg2Wytrbm9/uJKLW1tYjlAZ/wvPH12traEpJGWPX5fLFYTLWxw43K0jbU6CF7lVqpg5hh1a0s99sGfi7+uDHuGKy1gcuRuagPlA2m5Zx1yEbbHOWuYwhDSqkaA1HPwmp8KRhwN9fW1gKBACjFwcEBtiGbm5sXL17MZDJ0Vu/fv//P//zPtFfq6+vR63U47bH1w+FwVVVVRUVFJpOx3ZP9/f1wONzd3S3DLi4mk8lAL8JjT2pjOMODDhcVFa2urpKTcvDRcYUnQKdGnA+OMA4dcGTqFHmJKHiwhjityNBFKZJiu21pOZokQuut5JMEAVi1x4ycbNZZTizVETByviYbeM0OTpa16xjIE5fM+u7y8MTxVy6sUp7BfPJBEk8xRZhhaWxsDIVCy8vLeXl5iUQiHA6vra29/fbbfX19ONFwv0AykskkLVlZ+mkvbm9v9/T0aIFqvBay2djY2G/8xm/IIjMSiZDBiA2DqDJ5LhWptW2n2iLsM41Bt8jj8bBiJLPGbLed10JMUJUzqio5teMc2KaKah1PmiciaeUNCzTuZxPjXxIE+wwmQE4Wu0XuLIJidXMcXkTiLggzJdd7/PhxPB7v7Ozs7+/HUojc0OfzgUzgbIEkBAd5SUlJW1vbyspKf39/d3c3LC/NTHNeTE9P9/T04N8FZKLzGw4RSbT8rMA6KZ5ramrW19eZCaUCp8dBMUkCzv9Lx1gOzhBBWAGsjLW1NR4YuQ6cbZIe7SUhgSws0meeK0ElZ6VpJewc9gFiFisrPQbsrWia9ZDO3v0OKP2zJ19yTlQ4mK2O97HmVI6OjyUbsKBjsRhzSqiJ4C9TVFRUXV3Nk+AYkjMtFSyHgsvlWlxcdLvdkJAxgUdHlcEFSglyIyL2ysqKZguoZisqKhCsYkALbuL29nZNTc3MzExdXZ185uiwwypSGQx7jWxDcJ94HuQTBDYKVH4DuihDB31BWTPwibbLY+EoqyAiV29tP4G8Oi6PxU6Us1jBNQcNIKdEs2O8xYGC/JKyNhZws2Mj2bN69og5PDy8d+9eY2NjJpNZW1uLRCKkmRUVFaDvyt65rbxDeXn58vIywACiPxJrgGk8MzMDmuKQs8VXieMAdoHthFHs8Pvy8nJJ4K2vr1dWVq6trWGoFY1Ga2pqkskkdbXwQNo3IjnQYeEZ6/8C12JiSPxFiS0IgaVu1zSvgzGjIGE9HSwxSDLfjI7ygs3NzU9LBmk7OSYksvmqOWHWzw0kOXVUHWtIyIFlzmrtagExqVBTU1NeXu7z+TweTyAQgHWGtZRycuVfvDIajUI2ZqK/tbUVGAZKyu7ubnd3twWjFJN3dnba29vp49D6Z1CbPb2wsNDd3U27Tq4jLBeWI0Pha2trtBcQRSIPJcjxRDnFqELFeCVP0rrkzekvbmxsQDFx8AB5pjR3JBVvSTN2J0vWRstFtNFjUTVHNesoZxxph8OVLHvpONaBgwf1uaNTCiSOWCUDGjVm0+k0TF2N2GC8J26YppxljI0Qak9PT01Nze7ubiKR2N7exoINpvG9e/e++tWvytdBtUxhYeH09PTZs2c1loeUCFnn/v7+0NDQiy++iCwFp4ZEcCUVQWSSki4VGZFJuDjTmjKpEVFZqioQQQQGwgcQ50306ZKSEoodaUlYLSROOl28SAIya7Db8ujoyPVLphS/wo+j+rWjFb/Cu1m9oXv37q2urra3t/MpXq83FAoxvCSZcxGSCdTc8SdPnly5cqW1tZVbTznNQ9rY2PD5fJLylV4Dn45CPOUlCYH1Tj86OqINyQp2bCRNalm1UgG+FnqWG6SmapUrKEfUoWAJePZWi0wvvF9RwYooC5vnrYS7O7psx53e/9GfnJ2/nJPAn/GjBgrfikBNRcpTPDo6CgQCMDBKSkposNnujMZiGxsb8RKFwMY4TEFBwfT0NDWRDNv16bOzswBiMo2Tyju0wry8vEAgIP92O56o4KeAqjaNncC2Uo7UnBqU0hyhdWHjsLDDTSoMHZWBaLnWP07in1qvjm1sCwXXZ7DYcyqPfe7Lsvd9dm77K6wzK6YVDoflTwuqLSVuMeqkO8tdLi0tnZqaqqysRChGj4FSory8fH5+Hu6BOCIKEgzqwTBSXw0uKsMWqmscIDKrQTxTR0y1o0MWRtLYi+bQtJI+7ZsYFzZLJ+VDtQKy/Ws1B+8Q57FyktYQx6XqOedC+eUr289dOp8NrvwyUUTja/n5+devX9/e3g4Gg+fOnfN4PJSpYFNW6VWy+TB6dnd3m5qaNPHGSS/FEQoQ4CwYRjJJTaVS586dI+/hDUEpyEui0WhbW5vX62UoRtLpwgk1U6gujAZgHa4x1rk9e2hNHBGHXbeNQPY/shUVstkaNjJZLN8OaLqehlJkr5L/6nJxTFt9rqbZZycidLPYBJWVlQsLC0VFRR0dHUwkiLpHt0VtFPExi4qK3n///b6+voqKCkAzmEQcVXDA5F3KwSz7PQgGPD+53Knb/vjx4xMnTmhEWS1WfWvNNdnSzHo52Higf0E8bRZix+akDKUR/myQQkC5+nyarshJBrLj+FaU0PU0Hcv/xow1m8P2S2YttmvAk2N//NVf/VUqlQLmgrBDBwT4GVyBLJVahvDDxMPa2hrjbspOaMGfO3cOapIQJMqEvLy827dvf/nLX2byFnqb/GKobmpqasCqrea/tdkWWm9Fi63Ett3rnI8KG6rjJDBpNRlAjW07XX0+rUuHpZqFnew5Lj1Lh6Sly5EcZJ87v/Jx818NG097mUTQtU2RjqHEtf161agcq2SjPIx4PF5QUBAMBtFqBjGrrKykRCwqKurt7SWoiFKKNGp5ebnb7a6trQWoICpIqREgrqqqClRDZD6p/DCpAOqgGC6Bdkf81qMlVbI9cCXsiqmSCABUlXWmAozOI8dUpV0KDpDe4Zp9bK/zuQownx1a/udqZsdspj7L/reyNr6q3M3wmLZJzOzsbHNzc2VlJb00IQG0YzjFZNWgiF1SUrK2tpZOpwlgVjQMGsDGxsa1a9dkj8EaEi3XxgB1oKROYGOkHRtwVKSam5LvnSY/HKe5WBZWt0GLTBQczeAoXgp8sg61n1LGnpZIZguu//9fHJ8bpWx1p6fL7pSJBy9bWVmBIGPVfDQWarsSIJK6idPT0w0NDRB8ZN3KIqNzFgqFOIAssVT5gVoe+qXOfvWQsyVMc0ZuISJWvFqM1Oywnc3LEWzveL1FXLIfrutp8eNzhXL/V/3YHrX0rK0MSTgc/sIXvgCUovkRzc1qf9s8XzKbMICkbAxioYhllR1UuWj82lI2BYvZZZRT1DRnSegQO1VZJBfOnC5CjhWWrT2Z06bB1j6upzGD/q/8OLJgK0ukHiYO7VIlJPmQur4amRg2MJAhmfKHDx8ODAxIPH59fR2ishAFUBaH2r3jClVxSJnetqJsYLBDSTlV5hzmy46V5JiRy65mHYeIraHs0rQ1s+tpMw3/JxZHzmsWK0yrf3V1lexEBtCIW3JksGI0IE5OIPEg1HzlsU2eq6xWkCXAnQPlsw/GoaIgEryDQGPRW4dXR7aPj2qc/1KF+LQGiIMvpm/ncohr/18MJLYQy54zPTo6Gh8f59HyIK2vL8PW1voJ8qxm1MrKyiorK5k6TqfTvA8lj30rgNe8/2yNYkUSHEeJNWOx5GT5kDpwWMvU1Ka3JmU5I03OG2UjzdNIovZf12eUu/+NSOv/5zaQ44Knp6fr6+vzjBMPvBuesQY8xXZWNPrkk0/C4TC4i1jQQt60femaKpWxh4t9uo4WpgVhrRSUDiMr92KJGfb5OXjEVlTyaTYNjoNGf6vo61g0uTu9OQfpnvZs/jcsnaeB/ZzuCwsLJ0+eBKIAohXx3ZpBSRVS7N/t7e36+vqKigqkCSycRYOeWAIaK80xR14p2op1U7EOKg6nF6k1WThc/pia08zuFTsOpmyLGIu65kxucv7r+mW6J/9rq5ucasEOOOjg4MDr9dbV1QHPw5ZgvhJ0JDswQD1DAAAASElEQVTTVH6XSCROnTqFUCkMU01/qcsFmMGKseRha82WZ9x57ISc43C3/RGLb+YZB3EaQzao2KVg0xQVt08btczLEmHPeVT9P/Vp64Kak3H2AAAAAElFTkSuQmCC;" vertex="1" parent="1">
          <mxGeometry x="362" y="148.29" width="116.22" height="212" as="geometry" />
        </mxCell>
        <mxCell id="g83cpQadt5hWgY0dcIvO-8" value="" style="whiteSpace=wrap;html=1;strokeColor=none;fillColor=#000000;" vertex="1" parent="1">
          <mxGeometry x="474" y="100" width="46" height="260" as="geometry" />
        </mxCell>
        <mxCell id="g83cpQadt5hWgY0dcIvO-61" value="" style="rounded=1;whiteSpace=wrap;html=1;fontSize=8;strokeColor=none;fillColor=#ff71ce;" vertex="1" parent="1">
          <mxGeometry x="477" y="338" width="28" height="32.95" as="geometry" />
        </mxCell>
        <mxCell id="g83cpQadt5hWgY0dcIvO-54" value="" style="shape=image;html=1;verticalAlign=top;verticalLabelPosition=bottom;labelBackgroundColor=#ffffff;imageAspect=0;aspect=fixed;image=https://cdn4.iconfinder.com/data/icons/illustrator/562/Column_Graph_Tool-128.png;fontSize=8;strokeColor=#BABABA;fillColor=#E6E6E6;" vertex="1" parent="1">
          <mxGeometry x="483" y="341" width="18" height="18" as="geometry" />
        </mxCell>
        <mxCell id="g83cpQadt5hWgY0dcIvO-55" value="Text" style="text;html=1;strokeColor=none;fillColor=none;align=center;verticalAlign=middle;whiteSpace=wrap;rounded=0;fontSize=8;" vertex="1" parent="1">
          <mxGeometry x="471" y="357" width="40" height="20" as="geometry" />
        </mxCell>
        <mxCell id="g83cpQadt5hWgY0dcIvO-40" value="" style="whiteSpace=wrap;html=1;strokeColor=none;fillColor=#030303;" vertex="1" parent="1">
          <mxGeometry x="320" y="100" width="50" height="260" as="geometry" />
        </mxCell>
        <mxCell id="g83cpQadt5hWgY0dcIvO-5" value="" style="whiteSpace=wrap;html=1;strokeColor=none;fillColor=#b967ff;" vertex="1" parent="1">
          <mxGeometry x="325" y="350" width="190" height="60" as="geometry" />
        </mxCell>
        <mxCell id="g83cpQadt5hWgY0dcIvO-67" value="" style="verticalLabelPosition=bottom;verticalAlign=top;html=1;shadow=0;dashed=0;strokeWidth=2;shape=mxgraph.android.navigation_bar_1;fillColor=#1A1A1A;strokeColor=#999999;fontSize=8;" vertex="1" parent="1">
          <mxGeometry x="322.5" y="386" width="193.5" height="20" as="geometry" />
        </mxCell>
        <mxCell id="g83cpQadt5hWgY0dcIvO-2" value="" style="whiteSpace=wrap;html=1;strokeColor=none;fillColor=#FFFB96;rounded=0;" vertex="1" parent="1">
          <mxGeometry x="332" y="100" width="176" height="60" as="geometry" />
        </mxCell>
        <mxCell id="g83cpQadt5hWgY0dcIvO-1" value="" style="verticalLabelPosition=bottom;verticalAlign=top;html=1;shadow=0;dashed=0;strokeWidth=1;shape=mxgraph.android.phone2;strokeColor=#c0c0c0;" vertex="1" parent="1">
          <mxGeometry x="320" y="50" width="200" height="390" as="geometry" />
        </mxCell>
        <mxCell id="g83cpQadt5hWgY0dcIvO-3" style="edgeStyle=orthogonalEdgeStyle;rounded=0;orthogonalLoop=1;jettySize=auto;html=1;exitX=0.5;exitY=1;exitDx=0;exitDy=0;" edge="1" parent="1" source="g83cpQadt5hWgY0dcIvO-2" target="g83cpQadt5hWgY0dcIvO-2">
          <mxGeometry x="374" y="100" as="geometry" />
        </mxCell>
        <mxCell id="g83cpQadt5hWgY0dcIvO-10" value="Preguntas" style="text;html=1;strokeColor=none;fillColor=none;align=center;verticalAlign=middle;whiteSpace=wrap;rounded=0;fontSize=9;" vertex="1" parent="1">
          <mxGeometry x="387.78000000000003" y="97" width="90.89" height="17.14" as="geometry" />
        </mxCell>
        <mxCell id="g83cpQadt5hWgY0dcIvO-11" value="1.) Lorem ipsum dolorem " style="text;html=1;strokeColor=none;fillColor=none;align=center;verticalAlign=middle;whiteSpace=wrap;rounded=0;fontSize=8;" vertex="1" parent="1">
          <mxGeometry x="378.3333333333333" y="111.14285714285714" width="98.22222222222221" height="17.142857142857142" as="geometry" />
        </mxCell>
        <mxCell id="g83cpQadt5hWgY0dcIvO-12" value="" style="dashed=0;labelPosition=right;align=left;shape=mxgraph.gmdl.checkbox;strokeColor=none;strokeWidth=2;aspect=fixed;fillColor=#05ffa1;" vertex="1" parent="1">
          <mxGeometry x="478" y="114.14285714285714" width="10.666666666666668" height="10.666666666666668" as="geometry" />
        </mxCell>
        <mxCell id="g83cpQadt5hWgY0dcIvO-13" value="2.) Lorem ipsum dolorem " style="text;html=1;strokeColor=none;fillColor=none;align=center;verticalAlign=middle;whiteSpace=wrap;rounded=0;fontSize=8;" vertex="1" parent="1">
          <mxGeometry x="378.3333333333333" y="128.28571428571428" width="98.22222222222221" height="17.142857142857142" as="geometry" />
        </mxCell>
        <mxCell id="g83cpQadt5hWgY0dcIvO-14" value="" style="dashed=0;labelPosition=right;align=left;shape=mxgraph.gmdl.checkbox;strokeColor=none;strokeWidth=2;aspect=fixed;fillColor=#05ffa1;" vertex="1" parent="1">
          <mxGeometry x="478" y="131.28571428571428" width="10.666666666666668" height="10.666666666666668" as="geometry" />
        </mxCell>
        <mxCell id="g83cpQadt5hWgY0dcIvO-16" value="3.) Lorem ipsum dolorem " style="text;html=1;strokeColor=none;fillColor=none;align=center;verticalAlign=middle;whiteSpace=wrap;rounded=0;fontSize=8;" vertex="1" parent="1">
          <mxGeometry x="378.3333333333333" y="145.28571428571428" width="98.22222222222221" height="17.142857142857142" as="geometry" />
        </mxCell>
        <mxCell id="g83cpQadt5hWgY0dcIvO-17" value="" style="dashed=0;labelPosition=right;align=left;shape=mxgraph.gmdl.checkbox;strokeColor=none;strokeWidth=2;aspect=fixed;fillColor=#05ffa1;" vertex="1" parent="1">
          <mxGeometry x="478" y="148.28571428571428" width="10.666666666666668" height="10.666666666666668" as="geometry" />
        </mxCell>
        <mxCell id="g83cpQadt5hWgY0dcIvO-18" value="" style="shape=image;verticalLabelPosition=bottom;labelBackgroundColor=#ffffff;verticalAlign=top;aspect=fixed;imageAspect=0;image=data:image/png,iVBORw0KGgoAAAANSUhEUgAAAPAAAABBCAYAAADvwylCAAABhGlDQ1BJQ0MgcHJvZmlsZQAAKJF9kT1Iw0AcxV9TpVIrDu0g4pChdbIgKuKoVShChVArtOpgcv2EJg1Jiouj4Fpw8GOx6uDirKuDqyAIfoC4uTkpukiJ/0sKLWI8OO7Hu3uPu3eA0Kwy1ewZB1TNMtLJhJjNrYqBVwQRQj9iCMvM1OckKQXP8XUPH1/v4jzL+9yfYyBfMBngE4lnmW5YxBvE05uWznmfOMLKcp74nHjMoAsSP3JdcfmNc8lhgWdGjEx6njhCLJa6WOliVjZU4iniaF7VKF/IupznvMVZrdZZ+578haGCtrLMdZojSGIRS5AgQkEdFVRhIU6rRoqJNO0nPPzDjl8il0KuChg5FlCDCtnxg//B727N4uSEmxRKAL0vtv0RAwK7QKth29/Htt06AfzPwJXW8deawMwn6Y2OFj0CBreBi+uOpuwBlzvA0JMuG7Ij+WkKxSLwfkbflAPCt0Bwze2tvY/TByBDXaVugINDYLRE2ese7+7r7u3fM+3+fgBLKXKXVD4/BQAAAAZiS0dEAAAAAAAA+UO7fwAAAAlwSFlzAAAuIwAALiMBeKU/dgAAAAd0SU1FB+UKDAsnBFvGHhUAAAAZdEVYdENvbW1lbnQAQ3JlYXRlZCB3aXRoIEdJTVBXgQ4XAAAgAElEQVR42u1dd1xURx7/vrcNlt4EUURABAUUFBSsKBpL9DRF452x5mIuajSJ0RQ1RmOiMdHkcp4thtNEjYk91ojYIlgOUVCkWAApovSybH9zf6xseL63yy7C6pn9fT6PDztv3sy8efOdX50Z6rfjv5PInt3g6uoIixLRAkyV5eqjnQBKCCtZ6VkiqqiolHh7u1u+ZmUOkB1smbpcpgA+8QAo6xe30jNFtMXBWxFv2fqcXrGC10rPLoAtDt6iWZYFr+92K3itZAXwY1P5RqDw7xYG7w6Lz1FWspIlyTJWnapfgKI3LfdW9kPM5rwMwyA9PR0JCQm4du0aFAoFwsLCMHToUERFRUEgEDS7OfX19di1axcAQCKRYMKECRbphmvXriE1NRUA0KdPHwQGBrZY2ZWVlYiJiUFtbS2SkpLQsWNHk547cOAASktLAQBjx46Fu7s7qqqqEBMTg4qKCiQmJiI0NNSKTFOJtDZV/kxIGvXHlW6jS1dks9Nb6sqbQAjRmtXEEydOEB8fH2Jra8t7tWnThhw4cIAwDNOsLiguLtaX1b59e2IpWrVqlb7eLVu2tGjZM2bM0Jc9fPhwk5/r37+//rnU1FRCCCHvv/++Pq1t27bESqZT68qX5RuBuxMsNxuZKTYTQjBjxgyMHj0aZWVlBvPV1tZiwoQJmD59Oggh1lkfQKdOnfT/d+jQ4bHK8vT01P9vKie3UmuL0P8HYvM333yDbdu26X+LRCIsW7YMgwcPhkgkwt27d/Hpp5/i8uXLAICysjIwDPNY4vSzQu+++y7EYjGqq6uxYMGCxyprzpw5oGka1dXVmDdvnhWVTxzA1bsty3kdxwAd95hlsLp//z4WLVqk/x0dHY0jR47AxsZGnxYcHIznnnsOBw8exPnz57F8+XLQNLuO/Px8XLx4EcXFxXB2dkaPHj0QGhrKydcUabVapKWlIScnB4QQ+Pv7o0ePHhCJRHopoLy8HADg7OwMZ2dn1rMFBQUAALFYDG9vb4MSx507d3D79m0IhUIEBQWhXbt2vHllMhlSUlJQWFgIiUSCkJAQBAcHg6J0E6RcLseYMWMAAEqlktVvDW3Kzs7G3bt3IZFIEBwcjLZt2/LWpVQq9WUpFArY2dlx8hQXF+PSpUvIz8+Hg4MDIiIi0K1bN+tk2uJCedUe4zpqS+vAt4earfMSQsi8efP0eperqyuRy+VmPV9dXU369u3LqzP7+vqSjIwMk3XgvLw84uHhwSnHwcGBXLx4kRBCyLp16/Tpn3/+Oev5wsJC/b3o6GheHXjevHmkd+/enDoiIyNJZWUlq7yDBw8SqVTKyRsQEEBKSkoIIYRs2bJFn75q1SrW8ykpKcTd3Z3z/Jw5c0hUVBRHBz548KA+bebMmayy6uvryejRo3n72cPDg5w9e9aqA7cY1SYA+S9bbvaxGwD4HUVzXEXff/+9/v+PPvqIw0GMkVwuR3h4uN7C+yg9ePAAUVFROHfunEl6eFxcHOrq6jj3NBoNXF1dW6Sr1q9fj/T0dE56RkYGwsPDIZfL9dblV155hVfXr6mpgaOj8ZDbzMxM9O/fHzKZjHPvu+++Q0ZGhsltVigUCAkJwYkTJ3jv19XVYdiwYQbv/xmo5QBcewLIHWZZ8PonAJT5IpRKpYJSqdT/HjJkiFnPv/jiiygpKQEACAQCLF26FCdPnkR8fDxcXFz0wBwxYgRqamqadMcUFxfrReOsrCzk5uZi69atWL16NctY9JiSFkQiET744APEx8dj9OjRrAlnypQpAICUlBQ9eIcNG4b8/HxkZ2dj0aJFOHXqFGxtbQ3WwTAMRo0a9cfgomnMmDED8fHxmDJlCiiKMssIOHPmTH0/A8Ds2bORkJCAn376Cb6+vqzvUVtba9WBH4vzWhK89kN0nJcSNHswNyaxWGzys0VFRThz5oz+98mTJxEVFaXXo0eNGgU/Pz/IZDJotVrs2rULI0eONFheg07ZwHHy8vIQGRmJcePGtWiXOTg4ICcnB05OTgCACRMmID4+HrNnzwYAHDp0CFVVVRAKhax3LSsrQ2BgID766KMm67h27Rru3bunf6+UlBQEBwfr65s2bRpiY2NNam9dXR127typ/71161ZWn4wYMQIBAQEoLy+HRqPB5s2b8c4771g5sNnEyADVHaDdehOvb1tGbKaab7xoMAw1NkSZSpmZmfr//f399eDVzy329li6dKn+d2JiotHyXFxc0LNnTz2Ahw8fDnd3dwwaNAhJSUkt9qH/9a9/6cHbQNOmTWNx1Ly8PMTExOjVievXr6Nnz55wcnLC9OnTm+ynBms9ALz88st68DZQr1690Lt3b5Pam5eXx+LkL730EmfSXbNmjf53Q6CMFcBml2AHuL1h+uX6+hMRm1lNpmn07dtX/3vp0qUmi3aNRe+QkBDePH5+fvr/jfmXGyghIQGTJ09mceOLFy9i6NChmDx5cot8aD5RnKIoVrpcLoeNjQ0yMzNZQCOEYOfOnejSpQv+/e9/G7UNNJChaKrw8HCT2qvRaPT/S6VSXqt+QECA/v/GorYVwKZS+Xogd6T5V7PBmwhQohZ58U8++UT/f1paGjZt2mRUnGvgvG3atGGJzwzDcPIfO3ZM/39ERESTbbGxscGGDRtQWVmJ5ORkfPDBB3pRdvfu3RxjWYPOrP8MD91Lxmj37t28RqLr16/rfzcYzDw9PXHq1Cncv38fR48exfjx4/V55s+fj4qKCt46Gruv9u7dy6u68KXzUWNpoa6uDvX19Zw8v/76K4u7/ympWbZrRvnQfzG7ea4fc91I2aF/1NlCxDAMiY6OZrkl5s+fT6qrq/V5NBoNOXfuHPHx8SFSqZScPHmSyOVyYmdnp39m5cqVrHKTk5NZLpikpCSWG8nR0ZGo1WrWMwcOHCBVVVWstO+++44VBrljxw79by8vL6JUKvXvMXbsWP29du3a8bqRbG1tyaFDh/T3VCoVeeGFF/T3pFIpUSqVhGEYsmXLFk4b4+Li9HmzsrJYbqR//OMfhBBCSkpKWPWtXbtWH37KMAxZvHgx6/6xY8c4bqQBAwYQQgjRarXE1dVVnz5t2jRWKGtGRgarnxMSEv6UbiTzAVx3jpCKbZYD8K2BLQ5evcu6qop06NCB4190cXEhXl5eHF+oj48PUSqVJD4+npUeEhJC5s6dS4YMGcJK79OnD2EYhtTU1LDSvby8yPjx4wnDMGT//v16AI0ZM4asXr2aLFmyhLi5uenzX7hwgeTm5rLK8PT0JFOnTiVBQUGc9g8ZMoRUV1dzANzwDrGxscTR0ZGV/s033xCGYcjs2bP1fTBz5kyyZs0a8sYbb7D64sGDB2Tv3r0s8H/44YeEEEImTZrEKtfd3Z3ExsaywNjY/75mzRpy9OhRjr+YEEL27NnD8a+/9dZb5Pnnn2el9+7du9lx6n8uANcc0YGq4kfLAPjWQEIYTat2gEwm4wCP74qOjmZx58YB+HxXr169iEKh0OcfOHAgJ49SqSTDhw83Wk54eDjRanWBKo057aOLLdq3b89KKykpYQHY29vbYB2TJk0iDMOQ2tpa4unpabQ9EyZMIIQQcvfuXVZ6XFyc7rMqFCQiIsLg87Gxsazfs2bNIkVFRay0/v376/tt6dKlRtsTGBhI6urqrIEcTZIsCch93nKyvU0I4H/8sQ1WTZFUKkVCQgISExPRp08fzv2wsDAcOnQIycnJrCCGlStX4tixYyyDFQDY2dlh7dq1OH/+PCQSiT79wIEDCAsLY/vwhEIcPnwYa9euhYODA8fANGXKFCQnJ+sNOLt27cLrr7/OMnYFBQUhPT0dZ86c4ZTRmBYvXoxt27axdEs3Nzds3rwZW7duBUVRsLe3R15eHubOncsxGtna2uLLL7/E9u3bAQA+Pj5Yvnw5qy2AbrnkpUuXsHLlStjb2+vTfXx8cOzYMZw8eRIzZ87k6M4rVqzglAUAH3/8MZKTkzl9J5VK8dVXX+HGjRu8oZd/FqKIKeZXWRJwewCAh1l9fgBcXgWK3gLK/21+rd0Y43tiSaOBgNMAJbZ4h2i1WqhUKhBCIBaLWX5RY9ZXuVwOsVgMOzs73oHYQPX19VAoFCyj0aP3hEIh7O3tDcZTa7VaKJVK0DTNiiAjhECpVEIgEHBcZY8ar2iaNur/ZhgGMpkMarXa6Hs19BdN06wJq4HUajVomubELDMMA41GA5qm9X3cVFlKpRIymQwikQj29vZG+/nPQkLTwNvfspz3CYEX0EVWGYs24iNbW1uTn5FKpZBKpWbfe7SNfPkoijIpJNSUPDRNG+XopvaXoYmEbwJpqiyJRMIL7D8zGRehFenA7YGWBW9gyhMDr5Ws9OwAWH4VyOkBgLFMS6TRQOBlgHq2Z1i1QqPXRKzUwuoPQ3A5vwo3imtavYsLK+Q4f7sCVfXqp1CEVqQDNyMtB94nLDZbghTVCmwavQ1VRTWwdbbB6/snwtnHyYq6FiJCgL6fn0FGsW5Rw5S+HbB2YvdWqev7s3l4e+c1HQekKJxfOABdvR2fyHvTvOC1JOeVBD3zYjNhCP7zys+oKtKtTJJXKfDdmG1WTmyKxKJlcDa7DCdulKJepTWYL7ukVg9eANiadBdytbZVuPy7P/8RvcYQgjd+uPqUcGD5VctyXkkQEJj6bIvNBNgz9zBKb7LDHeXVSqiVGohsrMe9GKI6pQZhixNRVqfSDVaaQvqyOPi4cg1dJdVKTppMqYWtqGXdkEo1A+YRx03WvSe3lJF+YmKzwBHofBWgbZ/pQZi8OQU3juRw0h087a3gbYK2nMvXgxcANAzBkv03nkrx/clyYOVNy4rNACD0euYHYOGVYhxfcRoUKJbPkqIpTPvlFStCm6CCCjk3rVJu7RgWgFW3gZxuzQNvu28ff33vM0pVhdX4fpxOzyUUBRAaOgxTmLpzPJzbWw1YTdHo8LZYdyqXlfa3aB9rx7AALPDQHb2pfdCMxymAqABNmXnPiNo+052qlKnwz6EboNFoQVM0KEKDUAxAaIz4ZBB8erazjjwTqF+gG5a/0AWL92eCEODVaB9M6dPB2jFsADsCQdeATH+AyJqBYRFwfwlQ8b2J+SVA2LMrBhFC8P3EH6CUKUBROhMDTQEUodFpsB96TYqwjjozaO7QTpgVFwCGIRALredcPUq6HhF6AF3uAAIzjxqt3g2AAO03AW6zzXtWlQ9oHjxzHfrLe3uQm5ILhtGAYbRgiO7y6OyKv24caz0osTlchqas4DXIgfX/eQBBGeZx4rozQMVWwO8A0O6fAJGbzomJEsjsCnTJBYRtnrqOyS+vx85LhXCRijC1ny/EgqYH0LkfknB+x3nQlBCgBaCJzrQgtBXitV2vgjZhEKo0DPLK6nG3oh4MA7jaieDfxg6udi3rJ1dpGNwplaGgQg61loG9jRCd2tijrZMNHneNQK1Cg4t3KnCnVAYNQyCgKLR3sUWwtwN8XGzNAqNCrcWOi4WQKTWYFNMBztLm7chyv0aJm/frcK9KAaGAgrezLYK97OEkFT3xsVZep8K5m+U4d7McOSW1sLcRoruPE+K6eKC7jzOEAsoEADeAODgbyAoyHcS1h4HcMToQt98EMHKgaoeJIJYD2aFA8E1A8PQYdbJLahG57LT+9/YLBTi1oD9oIyO74FoBdszfDgElBAEBGKKTbwjwxt6psHE0voDg1oM6fHIgC79evcfrlmjrJMFXr4RhVHcvo+0wZSB/uDsDuy8X8dZjLxFg5cuheDXGBwLavHrkai3e3pGOHRcLjebrG+iKVS+HolsTkWgahiBscSJKanQ+3iX7s5C36jk42poGukqZCsm3yvH2jnSUNnJHNaYQbwd89UoY+gW6WXycldWq8PrWVJy4Ucq59+vVEnx6MBsiAY1V40IwrZ8v7/fgToUib/PF6drDQP5fdaO1ww+A899Mf1ZbBmQFAtqKpwbA3564w/qdml+NN7ZeMRg4VXmvEp8N/xQaRg0No4aW0UBLNNAyaoxbMxbeoYaNdiotg5k/XkXEJ6dw4Mo9gz7Fe9VKTNyUgpBFicgrqzf7nbQMwYojOQj88Dh2pRQZrKdOqcXs7WnwW/AbLt2pNLn8u+Vy+C34rUnwAkDSzQr0XXEWC3ZdN5ovraBaD15AF5W1L7XY5Db1XHYKEzelGAQvAGQU12LE18kYtiYJNQqNxcbYzkuFCPjgOC94G5Nay+CdndcQsjgRJdUKEwDcWJymzFgoXb1Lx4kBoMOPzQBxMKCtfioAbCOieTq8CBtO3eGkK+uVmN/rXcjl9TrgMhpoiRpaRo1eE6MQOb6nwXrqVVqELU7Ej+cLTG5bYaUc3ZecRNLNcpOfUWsJBqw8i88PZZscdFBZr0bcV+ewzYS2qTQMen16EjKleaGL60/l4h7PoGzcPxyuVWf64gFzAiySb1Wg8we/obRW2erj68PdGXh9yxVORJcxKqqUo9vHiXjwSPsMKyMN4jRlRqRU7WGgYPpDEP8A2A8zE8SdnwoQzx8eyCumLtiVgdT8qkYDhGDFy0shq6mBllFDQ9R68PqEt8crX4wzOrhGfp2E4iqF2e1jCMGIb5JN5sSv/ecy0gtrmtUXb/54FSl5xjnxwbR7kKmaFwRkLuhbk2QqBv1WnIVG23qhVb9dv4+1J+8061m5mkH/FWehZYgJAG4Qp4OzzANx5Q9AwTQAFOB/WHdmr8kgLn0qxGkvJxskzu/La8yJ+/IcCh9GA61/+1uk/34FGqIDr4ZRQUPUcGrvhHd/fReUER1yzfFbuJzPP1nFdHLFmglh2Dg5AlP6duDVfQgB4r76HRrG+GA7cu0+9qXe473n6SjBvGGdsOLlELzW35dX8gCAkV8nQ25kIcHPl4o4aW52Yuyb3RupSwYhcX4/fD0hDD192Tpvexdb+LlLLfJNhTSFqf06YP2kcHw1PhS9/F148xVXKfD2zvRWaYNCrcWk71I46bYiGv+a2A23Vj6Hsm+fR+k/R+K/H8diWGgb3vZtv1BgwIjFC2IfnZEpK1BndDIVxADg8x/dgdv5AKp/Nk+cfsKGrciOLlg7sTtmbUvjGFailp3CIu86HNq8D0JK+FA31v2lQGHhb4shkhg2tFTVq7H010zuxOEowYn5/eDr9seg/lt0e6weH4bZ29Kw879s/fJBjQr7LhdjXFQ7g3rv1M3cAUNRwI4ZkRjVna2bfzk+FAv33sD6R6Kf5GoGaxPvYP6IQN56HtRwxc63hgRgSNc/BmAvPxf8fUBHVNWrcSa7DAKawrDQNmYbyppDo8O9ED+tB2waLWx4I9YPt+7XYfCX51D5yJrerUl3seQvwfBwaNlFNutP5UKuZksq3k4SpCwZDIdH4uKDvRywe2ZvfH38Fj7ezx4rC365jkkxHUBRpm7sLvIGgtJh1j7wlT8AhQ83L/PdrjvPyFxxmql7opx4cp8OeLGnN6+h55Or9VAJaWgYzR8cmKjx/t6FcPZ0NlrutvN3OfqZvUSA1E8Gs8DbQBIRjU3TIvBCD64x7NODWQbrScmr5AwYAEiY15cDXgAPLZ6hmDXYn3Nv1bEcgzpboCfXVvLlsRxkl3BX6ThLRRgT0RajuntBJGh93+5zIW2w/fUoFngbqJOnPdKXxUHKI3kcuHKvRdtBCPDFkWxO+qn3B3DA25jeHtqJs/pKptLqpUDTe1AcYL5OXLGxkTh9THcQtznidHb4Ewdx/LQeiPLjAlLh5IasQWOhprXQMGqoGTUmLZ+KsNhuTZb5zxO3OWn73oo2+iEpABsmR3B089yyeoPW092XuRbb1wb4ore/8SNLl7/QFXZiwSPiH4Nb92UGJjpfXt02ctlpRC8/jfhz+cgtq38iq3bip/cw6td2loqw/Y0oTvr3Z/NatB3ldSqOnaCDmxRu9mKoNIzBS61lMLUfN3z02sO15eatZxMH6ERb2TnTn2ksTnfcA+T+xfRn1XeAzAAgOOeJidMCmsLBOTEIeP84ZI/ogTXefsiLHAS/iycQ85f+GPPWS02/kpbhrF0VCWj09mv6HGCpWIBxkd74+b9snbOgvB4h7bg7QhxNv89JmxMX0LS+KKCwYEQglhxgc/fU/Cp09rLn5O8X6IZofxdc4HE7ZRTXYu4OnU7pZCvE5y+F4K+9fSAStL7oPDDIHU4m+IwHB3uAothW6+vFtSAEaKmNL4uruern3fJ6uM853KzyGlxK5sswIm/A2cxDvPXiNK0L+DCHtKVPXJy2kwhx6r0+vH6J+10iIRkSh4XblpoUJskn0nZr72DyQOnDE3Bwv4bf9cG3HM/LybSDzGM6ufGUx2/1pijgyDt9MCLU02iZ1XINZm1Lg//7v+FyXmWrf7fhoaZF+NE0hY48qotKy/C+a3Oopa3tbR7q581UQprxWMVGoPhdAM3YIeEpEKePfrUB7ldP8Y7e/wZEo0ph2gdieKzGcjNcMBqt6Xkfx0Ck4R28hssTCWj8MrMXTi3oh+4+xveHqqpXI3bVOXx2KLvFvg9fSKRSY7rMzudzpgxMVqYAnWPHaMFY7p4dnTE8zLMZIvSj5PEeULEJICY618u+0cVAt2vGZvAN4nSX2wBtb1HwJmw7il837EVbooLSxRO1HUMe+fgMopefRsbyIc0Kus8sqYVay5hk1NnP4xJq58LPVYO87HG9iO3/zS+vR5e2Te/3fJhH/A5o03RgT2RHF5z7cCDkKi0u51fhx+S7+OlSIa/+u/JIDoZ09WhSJzeNI3FjxXenFGLesE5NPqtQazlSjICmIOL5lnzfiBDdxEwbmTDbOHIt2p6OEmye2uMPSc9GAFETk66tWIDOnn9IbI83LYh9gc7XzDvysyK++fVpS4GbPQGisBh4CzLz8e0/VkNMiyGhxPA9sxc25VwQldQoMXnz5WZbKHeaEIL4oFaJ33kisNq78BsWn+/OFWm/4Nneh29AbzidyyPqm26HsBUL0C/QDRunROD+1yPxwUh+F9SqozdbRqTkAcj1oloUmbCDx088fd+3kysvBxYYWBllLFyzscj76PeM7OiM2GB3xAa7I6qjC8I7OBu9grzY6tbj83VJZyAoR3fQtyVIeRPI6W4Rcbq2vBYfxS6AiBJDQtlATEtgq6UQcHw7bOQ1PFyrBCsON08snL09nRXlxWf8GrfuIie9u48T7CT8gtTYCK4LbM/lYuxKKTIs4hOC6fGprGgfAHC0FcLfg/8baxmCzHu1KKiQ88aL24oFWDgqGAtHBXHuJWaWtsi3EgloDOPRwV9efwkqjWER98rdKrz90zVO+usDOxp8ZmwE1wX3yYFM47xOSGNEmCdn4h637lKTwTiNJ9ZHJZmWEczFvkDn6y12+LZJIM4MaFUQazVaLH9uGYiKgpjWgVf8EMQD+4bjxtcv8PoPPz+cg+MZ5q9zZgjBwC9+xzcJt6BotB0qITp/bsiiE0jlidxa8VJXg2WGeDuirRN35p8en4qFezM4el9eWT36rziLg2nc0+6Xv9CVV/9TaxmEfZyIXp+eRtdFJxC+5CQOpZVwXFuVMjUu3K7glT5aihaN5k4Q1wtrELLoBEeVUGsZbDydiwErf+f4twU0hRFhhvdsezPWj5O27XwB5v18DdVytcF3+pznW527VY6+n5/B7VKZwXGRdKscoYtPwGPuEXi/e4QVD23a4WYmAysHyAkFiJFVHQ07chg73Mxk7h8IdE4DKJuWRS8B1k/egCvHUqFhVFAzyoeXCm6+rlh3JR5CkRA3imsQ/dkZzgcT0BQyPxuCtjwW36p6NXzeO9ZkE/w97OBqJ0JaQQ3UBowkHd1skbYszujywpS8SgxaZdjtF+Rlj3bONkgrqEa5jN+W4SARIP+r4bz6377UYoOqg5Cm4GgrQp1SY5ALxnXxwP63onnv/X6zHCO/TmZzujFdjOq1z61Owvnb/KG49hIBovxcUFmvRlpBtUGg/fvV7phsZOseQoDghQlG49hdpCJ8MS4Uf+3dnpU+eXOKwdBWH1dbTOjVHj6utrpTJvKqsOdyEcdz8ekLXfD20E4tyIEbi9Od0wHKQtul6sXp+hYt9sDSQ8g6kQMRLYZIIIaIlkBM28DNwwP/vLARQpHu/bp6O2Lraz15Rcp+K87wWpxNpTulMqTkVRkEr62IRmITa5QbjErGBnx2SR1OZpUZBK+AppC0MNagga3SyNEiGoagQqYyKsIu/ktwy367t6Lh7cw/odcptTiVVYardw2Dd3S4FyY1se8WRQG7ZvYymqeyXo0ZW69wFoJsntqD15cO6Nx+Xx67iTk70vHOzmvYdqGA1+3YOMSz5WPZJMEPxWkLgvhmRIsZtq7uv4ak7y9CSIshEkggoiUQCSQQC2zw2elVsLVnG4xe6OGN2Tyhhw9qVLjfSkvTpGIaV5fG8RpG+GjJmC6Y2tf8zeBoisKZ9/sbXXDwSlQ72Emat3n6q9E+6OlrOOzUkBGpKePZ5SWDmrVIIq6LB378e6RJux51a++Eda82fXTL8esPOLrw+Y8GIsbAYoqmqEtbe4yPat+KAG7gxJ0uwmIbQDXsa01Uj1VMRX4l9rzzKwSUEEJaBCEt1gGZlmDO9rfh0cHDgG4TgsHB7pzB7yo1bRucdi6mh6cGe9kj87OhBrmMISD8a2J3/PD3nhCa6Bvu7GmHrM+GoHsTu2bYSYTI+mwoBnY2b0eLNwf5Yd2kcKN5+E5giOzo3GTZ9hIhUj4ehJd44tgN0dIxXbBvdrRZvvNJfTpg15u9jEpB0QGuvAat3+b1w6pxIWYFhswa7I/zC2NZUWwtqwM/SvIrwK3ebJ24JXVgzvQbBXT6vVnnLClqFFgdsxGqegUYon24o4Zucf6ID59D3KxBRp9Xaxm8vO4STmaWwsFWiD0zeyOG5+Px6cCH58YgqK0DvjuTi7WJdzghmxQFxHVpgw9GdkYvf5fHmhYVai12XirE6mM3kVcu50w6w0LbYDjFXoEAAALKSURBVP7wQET6mV9PhUyFxMxS/HypECczyzjiv1RMY0pfX8wc5I+OJnLIzWfz8N4v10EI8M7QACwZ08WsQZ9fXo9NZ3Kx+Wwe6h8JmGnnYov3hnXCuKh2JoVcGhzmKi0OppXgu7O5uHinUi+evxrjg3Wvhhttb71Ki6PX7mPHhQKczi5jqRs0RaGHrxOm9/fF8928ePdFa10A8xm2WhPAehE+1SzDFqNlsGH4VpTergABASFaMISBlmjQdVggXt04wWRhQqVhIBLSBrPzAfjIO33Q/2GIJHmYp7RWCS1D4CIVwd1BYjLnNOvTaBhU1avBEAKJkIazVPRY+23xTRZyFQMCAqlYwLsiyKTvQwgIwWMvPaxTaiBTakFB5xazaeFzkxq+n1rLgAKatdpKyxCotQxoijI6jvSGwlYXbxvE6ZuRsMhxfMosnTjd+arJnHjfO0dRdqdSFypIAFAC0KDgEeCGv60fb5Ym8Ljbn1IPLZguFtgtUSKk4enYegfL2YgELQISmqJaRBuzlwhhL2ndIU8BJu1gaogENAUBbXqfWWazXduIh0eIWsqwlQXc6m+STnz662RkNAq+oCjdOUZiewlm7JsCWmDdj9hKTy9ZbnTaRljWsCX/L5ATbhTE2Ym3cXbtBW6n0DRmHZkKG0eJdYRYyQpgFogDTlquPmUWcHswQLgrTWpK6vDLm7/yPjbxPy/C2cd6+JiVrADmkjTasvXVJwO3B3I48Q8TfwHh2X1w2KJY+PfztY4MK/1f0JM7YVrSGehmyS1F/xDdCUNQkcddONB1ZGf0ntbD4l1hPS7JSv8/HJgzdC11NaqVpuD9yFI7d38XvPjNyFZ/YwcbIccl5GnVta30/wngJ0dTto9H0JAAUDSFznH+eG3fRItYnAU0hXMfDoCnowQCmsInY4IR6GlvHYlWah4LbPVADisZJGIVn630mPQ/QorCxGN6GlwAAAAASUVORK5CYII=;imageBorder=#000000;" vertex="1" parent="1">
          <mxGeometry x="334.03" y="145.29" width="44.3" height="12" as="geometry" />
        </mxCell>
        <mxCell id="g83cpQadt5hWgY0dcIvO-23" value="&lt;div&gt;&lt;font color=&quot;#FFFFFF&quot;&gt;Top 12&lt;br&gt;&lt;/font&gt;&lt;/div&gt;&lt;div&gt;&lt;font color=&quot;#FFFFFF&quot;&gt;Empresas&lt;br&gt;&lt;/font&gt;&lt;/div&gt;" style="text;html=1;strokeColor=none;fillColor=none;align=center;verticalAlign=middle;whiteSpace=wrap;rounded=0;fontSize=8;" vertex="1" parent="1">
          <mxGeometry x="327.89" y="166.43" width="39.11" height="17.14" as="geometry" />
        </mxCell>
        <mxCell id="g83cpQadt5hWgY0dcIvO-24" value="" style="verticalLabelPosition=bottom;html=1;verticalAlign=top;align=center;strokeColor=none;fillColor=#00BEF2;shape=mxgraph.azure.enterprise;pointerEvents=1;fontSize=8;" vertex="1" parent="1">
          <mxGeometry x="338" y="190" width="20" height="20" as="geometry" />
        </mxCell>
        <mxCell id="g83cpQadt5hWgY0dcIvO-25" value="" style="verticalLabelPosition=bottom;html=1;verticalAlign=top;align=center;strokeColor=none;fillColor=#00BEF2;shape=mxgraph.azure.enterprise;pointerEvents=1;fontSize=8;" vertex="1" parent="1">
          <mxGeometry x="338" y="230" width="20" height="20" as="geometry" />
        </mxCell>
        <mxCell id="g83cpQadt5hWgY0dcIvO-26" value="" style="verticalLabelPosition=bottom;html=1;verticalAlign=top;align=center;strokeColor=none;fillColor=#00BEF2;shape=mxgraph.azure.enterprise;pointerEvents=1;fontSize=8;" vertex="1" parent="1">
          <mxGeometry x="338" y="270" width="20" height="20" as="geometry" />
        </mxCell>
        <mxCell id="g83cpQadt5hWgY0dcIvO-27" value="" style="verticalLabelPosition=bottom;html=1;verticalAlign=top;align=center;strokeColor=none;fillColor=#00BEF2;shape=mxgraph.azure.enterprise;pointerEvents=1;fontSize=8;" vertex="1" parent="1">
          <mxGeometry x="338" y="310" width="20" height="20" as="geometry" />
        </mxCell>
        <mxCell id="g83cpQadt5hWgY0dcIvO-32" value="" style="verticalLabelPosition=bottom;verticalAlign=top;html=1;shadow=0;dashed=0;strokeWidth=1;shape=mxgraph.android.quickscroll3;dy=0.5;fillColor=#33b5e5;strokeColor=#66D5F5;fontSize=8;" vertex="1" parent="1">
          <mxGeometry x="362" y="183.57" width="6" height="166.43" as="geometry" />
        </mxCell>
        <mxCell id="g83cpQadt5hWgY0dcIvO-58" value="" style="rounded=1;whiteSpace=wrap;html=1;fontSize=8;strokeColor=none;fillColor=#ff71ce;" vertex="1" parent="1">
          <mxGeometry x="476.66" y="214" width="28" height="32.95" as="geometry" />
        </mxCell>
        <mxCell id="g83cpQadt5hWgY0dcIvO-33" value="" style="verticalLabelPosition=bottom;verticalAlign=top;html=1;shadow=0;dashed=0;strokeWidth=1;shape=mxgraph.android.quickscroll3;dy=0.5;fillColor=#33b5e5;strokeColor=#66D5F5;fontSize=8;" vertex="1" parent="1">
          <mxGeometry x="498" y="110" width="6" height="50" as="geometry" />
        </mxCell>
        <mxCell id="g83cpQadt5hWgY0dcIvO-35" value="" style="shape=image;html=1;verticalAlign=top;verticalLabelPosition=bottom;labelBackgroundColor=#ffffff;imageAspect=0;aspect=fixed;image=https://cdn4.iconfinder.com/data/icons/illustrator/562/Column_Graph_Tool-128.png;fontSize=8;strokeColor=#BABABA;fillColor=#E6E6E6;" vertex="1" parent="1">
          <mxGeometry x="483" y="217" width="18" height="18" as="geometry" />
        </mxCell>
        <mxCell id="g83cpQadt5hWgY0dcIvO-59" value="" style="rounded=1;whiteSpace=wrap;html=1;fontSize=8;strokeColor=none;fillColor=#ff71ce;" vertex="1" parent="1">
          <mxGeometry x="476.66" y="255" width="28" height="32.95" as="geometry" />
        </mxCell>
        <mxCell id="g83cpQadt5hWgY0dcIvO-60" value="" style="rounded=1;whiteSpace=wrap;html=1;fontSize=8;strokeColor=none;fillColor=#ff71ce;" vertex="1" parent="1">
          <mxGeometry x="477.66" y="296" width="28" height="32.95" as="geometry" />
        </mxCell>
        <mxCell id="g83cpQadt5hWgY0dcIvO-37" value="" style="shape=image;html=1;verticalAlign=top;verticalLabelPosition=bottom;labelBackgroundColor=#ffffff;imageAspect=0;aspect=fixed;image=https://cdn3.iconfinder.com/data/icons/user-interface-169/32/dashboard-128.png;fontSize=8;strokeColor=#BABABA;fillColor=#E6E6E6;" vertex="1" parent="1">
          <mxGeometry x="483" y="258" width="18" height="18" as="geometry" />
        </mxCell>
        <mxCell id="g83cpQadt5hWgY0dcIvO-38" value="" style="shape=image;html=1;verticalAlign=top;verticalLabelPosition=bottom;labelBackgroundColor=#ffffff;imageAspect=0;aspect=fixed;image=https://cdn4.iconfinder.com/data/icons/multimedia-75/512/multimedia-31-128.png;fontSize=8;strokeColor=#BABABA;fillColor=#E6E6E6;" vertex="1" parent="1">
          <mxGeometry x="484" y="299.67" width="17.33" height="17.33" as="geometry" />
        </mxCell>
        <mxCell id="g83cpQadt5hWgY0dcIvO-42" value="Text" style="text;html=1;strokeColor=none;fillColor=none;align=center;verticalAlign=middle;whiteSpace=wrap;rounded=0;fontSize=8;" vertex="1" parent="1">
          <mxGeometry x="328" y="210" width="40" height="20" as="geometry" />
        </mxCell>
        <mxCell id="g83cpQadt5hWgY0dcIvO-43" value="Text" style="text;html=1;strokeColor=none;fillColor=none;align=center;verticalAlign=middle;whiteSpace=wrap;rounded=0;fontSize=8;" vertex="1" parent="1">
          <mxGeometry x="328" y="252" width="40" height="20" as="geometry" />
        </mxCell>
        <mxCell id="g83cpQadt5hWgY0dcIvO-44" value="Text" style="text;html=1;strokeColor=none;fillColor=none;align=center;verticalAlign=middle;whiteSpace=wrap;rounded=0;fontSize=8;" vertex="1" parent="1">
          <mxGeometry x="328" y="292" width="40" height="20" as="geometry" />
        </mxCell>
        <mxCell id="g83cpQadt5hWgY0dcIvO-45" value="&lt;div style=&quot;font-size: 5px&quot; align=&quot;left&quot;&gt;&lt;font style=&quot;font-size: 5px&quot;&gt;At vero eos et accusamus et iusto odio dignissimos ducimus qui blanditiis praesentium voluptatum deleniti atque corrupti quos dolores et quas molestias excepturi sint occaecati cupiditate non provident, similique sunt in culpa qui officia deserunt mollitia animi, id est&amp;nbsp; laborum et dolorum fuga.&lt;/font&gt;&lt;font style=&quot;font-size: 5px&quot;&gt; &lt;br&gt;&lt;/font&gt;&lt;/div&gt;" style="text;html=1;strokeColor=none;fillColor=none;align=left;verticalAlign=middle;whiteSpace=wrap;rounded=0;fontSize=8;" vertex="1" parent="1">
          <mxGeometry x="337.78" y="348" width="166.22" height="48" as="geometry" />
        </mxCell>
        <mxCell id="g83cpQadt5hWgY0dcIvO-46" value="Concepto" style="text;html=1;strokeColor=none;fillColor=none;align=center;verticalAlign=middle;whiteSpace=wrap;rounded=0;fontSize=8;" vertex="1" parent="1">
          <mxGeometry x="310.73" y="353.29" width="90.89" height="7" as="geometry" />
        </mxCell>
        <mxCell id="g83cpQadt5hWgY0dcIvO-47" value="Text" style="text;html=1;strokeColor=none;fillColor=none;align=center;verticalAlign=middle;whiteSpace=wrap;rounded=0;fontSize=8;" vertex="1" parent="1">
          <mxGeometry x="471" y="233" width="40" height="20" as="geometry" />
        </mxCell>
        <mxCell id="g83cpQadt5hWgY0dcIvO-48" value="Text" style="text;html=1;strokeColor=none;fillColor=none;align=center;verticalAlign=middle;whiteSpace=wrap;rounded=0;fontSize=8;" vertex="1" parent="1">
          <mxGeometry x="471" y="274" width="40" height="20" as="geometry" />
        </mxCell>
        <mxCell id="g83cpQadt5hWgY0dcIvO-49" value="Text" style="text;html=1;strokeColor=none;fillColor=none;align=center;verticalAlign=middle;whiteSpace=wrap;rounded=0;fontSize=8;" vertex="1" parent="1">
          <mxGeometry x="471" y="314" width="40" height="20" as="geometry" />
        </mxCell>
        <mxCell id="g83cpQadt5hWgY0dcIvO-56" value="" style="verticalLabelPosition=bottom;verticalAlign=top;html=1;shadow=0;dashed=0;strokeWidth=1;shape=mxgraph.android.quickscroll3;dy=0.356;fillColor=#33b5e5;strokeColor=#66D5F5;fontSize=8;" vertex="1" parent="1">
          <mxGeometry x="505" y="171.57" width="6" height="166.43" as="geometry" />
        </mxCell>
        <mxCell id="g83cpQadt5hWgY0dcIvO-57" value="Text" style="text;html=1;strokeColor=none;fillColor=none;align=center;verticalAlign=middle;whiteSpace=wrap;rounded=0;fontSize=8;" vertex="1" parent="1">
          <mxGeometry x="328" y="332" width="40" height="20" as="geometry" />
        </mxCell>
        <mxCell id="g83cpQadt5hWgY0dcIvO-62" value="" style="rounded=1;whiteSpace=wrap;html=1;fontSize=8;strokeColor=none;fillColor=#ff71ce;" vertex="1" parent="1">
          <mxGeometry x="476.66" y="175" width="28" height="32.95" as="geometry" />
        </mxCell>
        <mxCell id="g83cpQadt5hWgY0dcIvO-63" value="" style="shape=image;html=1;verticalAlign=top;verticalLabelPosition=bottom;labelBackgroundColor=#ffffff;imageAspect=0;aspect=fixed;image=https://cdn3.iconfinder.com/data/icons/user-interface-169/32/dashboard-128.png;fontSize=8;strokeColor=#BABABA;fillColor=#E6E6E6;" vertex="1" parent="1">
          <mxGeometry x="483" y="178" width="18" height="18" as="geometry" />
        </mxCell>
        <mxCell id="g83cpQadt5hWgY0dcIvO-64" value="Text" style="text;html=1;strokeColor=none;fillColor=none;align=center;verticalAlign=middle;whiteSpace=wrap;rounded=0;fontSize=8;" vertex="1" parent="1">
          <mxGeometry x="471" y="193" width="40" height="20" as="geometry" />
        </mxCell>
        <mxCell id="g83cpQadt5hWgY0dcIvO-65" value="&lt;font color=&quot;#FFFFFF&quot;&gt;STATS&lt;/font&gt;" style="text;html=1;strokeColor=none;fillColor=none;align=center;verticalAlign=middle;whiteSpace=wrap;rounded=0;fontSize=8;" vertex="1" parent="1">
          <mxGeometry x="472.45" y="158.95000000000002" width="39.11" height="17.14" as="geometry" />
        </mxCell>
        <mxCell id="g83cpQadt5hWgY0dcIvO-69" value="" style="shape=image;verticalLabelPosition=bottom;labelBackgroundColor=#ffffff;verticalAlign=top;aspect=fixed;imageAspect=0;image=data:image/png,iVBORw0KGgoAAAANSUhEUgAAAK0AAADBCAYAAAC9mTBiAAAABHNCSVQICAgIfAhkiAAAIABJREFUeF7tXQl0HMWZ/ueQZF0+ZEuyLduyseQDGxNIuBdIFjb7wBgebMIC4UhISHZJQsiGsOElL5vk5RFCkl2HEHY5whIgB4SXBB+wySYYNhwGE8AYGx+yLR+SLcuWD1m2Jc2x31/VNdPT3XOqRzM9U+031nR1VU3VX19//ddff/3tI6IoPvrQEvCMBPyeaaluqJaAIQENWg0Fz0lAg9ZzQ6YbrEGrMeA5CWjQem7IdIM1aDUGPCcBDVrPDZlusAatxoDnJKBB67kh0w3WoNUY8JwENGg9N2S6wRq0GgOek4AGreeGTDdYg1ZjwHMS0KD13JDpBmvQagx4TgIatJ4bMt1gDVqNAc9JQIPWc0OmG6xBqzHgOQlo0HpuyHSDNWg1BjwnAQ1azw2ZbrAGrcaA5ySgQeu5IdMN1qDVGPCcBIKea7HHGnz3D6+lKy6tp5oqomAFkc+X2IGoce4zglOlO7d2P11+6/WRlrfWZz7n71H0Y+fuCD39dCfd9x9/sv6cK+catK6IMXkll1x8glob15E/OkR+XxiDGi2J4Gl+4+6LMEpjh3xw18yaTad8oCW5UEZ4RYN2hAJMV7zS10NVvu0U8A2SjwDaElHIfOgN02qsP6DZMNXSUHQqHTgUoFtu+nk60eR8vUREmHP/XS14yVXn2euLRKESBMQH3+zXPZbiA8PyJ0oRigqdhvvH/fLTcGQK7ThwJs2d91xee6VB65J4b71tFl16sf2RKAYYjJT4GHXpRwtUDfcnfvgoFKmlwehs6uqbSyfPeyLvrdKgdUHE194wnb5z10l07VVhW22xiYofjFQC0o4DltkVH3RqEAy7HQzbPm+5rf/5SCgBMeZDLJnXufiKRrrvB6dTXcUmCvq6bQV5kBXb2i56OMEHdSAcGUvHQu3UfXB0GFaJS4N2BMBZfOVkeuIhADbwJgXogN2ehboVYPlvJBIZwa8VS1GpGkTxCAlh0rWz7wyaM3d0GFZJQFsPcsTC5VdNpp/99Gyq9q+hMYE90owVceYABVy/3y/0W28fsBJE68Skq6vvpFHRYa3ycpayNZc+T5DA5Vc1038/sIjqgmsEwwrbK7MoLAVOhwKqlwDLhgGfQ384fTjUBCvBGdBhVzp1N+9pmmmzFPGV/9BMD/3kLKrz/5Uq/N3i8R/B4DKLOh/J0p1zF0Oq0MN5koU++fywfhhqDTNsKNxMvUfn0/z5vyhYU70n0YKJiujyK5vo0ftPpbHBv1LQ30fMOjzApfHYl4IVzwo200mqjQEWCVAJmqm7/xxqbRtdHdY65JpprRJJcs5WgkcfOIdqMOmqBMOaj9hj3+f9iVZ84sg9ZE6LGjpsM+3vP5lmt+XfDptkCGLJmmnTSQjXGbCPP3ga1bOVwAcrAT8yeRWTzZRiYEvoiEbQPV4MgdojFkWgw4Jh9xw5l2bMXlYUHdVMm2YYeNL16H+eQ/X+N6ESSIZVOqyYgLE1gMFrOJCkqc4Dl3kFT/aHV7qGotBhj8wHwz5eNG0vMZpwV65nn1dPjz1wGtXCrCUYFodNhwUreckGK1RVobiqI+EkngxNJwSG3QuGnVVgHdbcWv6umdYqEeP81NOqafkzf0fVAcMOyzNqg02tpisx2/Ys05qceIw1Z/bWYpWgBwzbVkQMq4ZKM60DaOctqKJVz18IO+zrWJrdL9hVTVAcsnsqSeniQiHHwaYtxbzqxmPAdh05p+gYVglaM60FcgzYl/68mGqCb1AFdRnmLKkWeAqdKRorwSlmkXJBRDwloliWHSNUgv3986m9CKwEybqgmdYkGQbsq3++iMYBsEEf7LCGW6H4K4aVLQaYfCUqhclka0tPoj3a8o1GQjgaFtYBQbiGqS4cbaLegbNhJSisHTZd/zVoDQmd/qFaevlPl0OHXQeG3Q1D1vGYn4BSD3LTW+EsnW4UCnDd3Bde6RoMt9KBYwtoxqxfFqA12f2kBi3k1Ta3kv53+QVUG1wtdFi1JCv+Gkqg0ABZt8U5fzI9IiYmy7xUprVnny/29EBR1Z7h8CQw7LnU0roi+woLUKLsdVoG7OoXrwDDvkZV/i4xBMpOabbBWi0GBRgrV37SbOkIR2toKNxEB4+f7AmGVQIoa6ZlleD1Fy+C88trcC/sEzJR2qsErLEfCqtEhkZrA07c7umsBGDDApi5uMTMfeMuMWD3HfMOwyrhly3TnnpaDf1h2SVw4H4dvgRdcb2TsWd6jkcFYOXBk2xm4eyO4gIsqwehSDUsBZPpIHTYmTOfzK47RZC7uCQ6igJ54bmPwJeAddg+ZbKEtcCYTat2CIQKpVR82Fs/+ZHqWvJS2V8RNoyUxRiYvPuXO6YsH7ECSBsGw/YMnEctM4vDlyBlZxwuliXT7uu6Ggz7mmRYA2tyNp0aDA7yyyAJ1gOewMHJJg3WMqgrfRY10SJEIZBPjPjNFOG4BKGJdOg4M+zj6Ssr0hxlx7S93ZdSfeVr8CXoTRgSuX+LxaGYNbMRM4wLMnMS3VUYIYxVtcxqTZXLuX0x3VosFKAXhlM690ukCIadRAeHzqepM71hJUgmhbJi2r3MsFiarfLvlkuXgv2YCdlJPz/7t8ybGUfDAqF2GUSweMBo9fsD2B5ThdAazXR4aCG1TPeeDmsFb9kwbW/3ZTQODBv075cy4Gk9hlIcBhOahWP1hsrk3CpcPheRZVLqwk6lkqfZNVqZolbqpD4LtKJrftZreesaALv/+Lk0eVpxr3Ql73XilbJg2p8/eT0GsBeDV4/AEnWGBKQvLOOJWZYXDMxMKDCNQywO4MjkfDAyAzlfkQWM/5PvHUvINoITbmBcF1d9YPAqhj00uJCmzSjcnq4RdM6xaMmD9qQ502HeqaK3N02FpaABup4EK3vmy8mXZFu2pYoBV+i0iMvAbizVacq2ZVuNTciRSEhYJcRvORWylUidEGsH320xHwhr6xjH2HkgGPZsAPZXqSv12NXE29RjjfdCc9evPZfmtKwF08uoia61OQG0ibWylYAnXYeHTikZlcDcw7LRaV0DS5YVSasBdEscktmzrMCSXdXBxM1xCZSpLqbLIv9weCIdOHFeSQKWxVHy6sHIIDLy0gwmBq6fN0Nmv5xma4CqA0oO+QKs0sCkxZoH6maGDUXAsIMLSkqHtQqhZEFbXeOjiRPBOsNEFQgbPzBAVFmJ9fYhKQL+zof5XH3ndHNedW7NL2uI/9+z10FpjbGhNXeO58ZNIHRzEQFGbkQUbQs10OHhc2jK9NLSYa2SKknQvvjSp+nk9j5EgDkMaxZPSMKxx6gLZJcgQ54LKfVyz6E5iLzyUOJ1YfJCJn6csy14hEHo2O4bsykbc7EIwZcg0kQD4YU0ZVppA5aFW5Kgndd+BL6xWwBarHoBMGb+c0OvNKNSzWT51mhqcLAeGL8u1IQRApZ/NxDATSBWuaTFgOtlHfbQ4FkA7FNWUirJ85IEbaW/XzhzB6iH/ELvc3hsuz6cUfzeQVutKsSXnJC5oNeiL0pPZoZlwB4dPrVsAMsCLknrgQKpeozGZ9wO9kwDZpmseMXMoihj/i6rQKwZh3sjGuaJkgSrWzePrIc3Ik4Cw55NjVO97Utgu9PTJHgatI8+9gl64JGbbF2MqQA8rVagNIATO2c10wFktspGmJDJDZPtTzDDDkamUz98CaZM+022xT2f37PqQc+uJbAKHKAtu3jpNPEQj2IGJFhOfsEJ1mOF/mngWP1VJUd6zvWoJV9za7hebo8wUVna6XQqWsn5VTuRSZWT1zjySxMWDs6myS2/dqqi5NM8CdrdO6+lsVWvwSYwhioCTUU+SFk+zJLo33wTRqgKEQwbwbDzyxawPNhZSrTw+Ni7ewk1VL0CsHLkF36bTHw7jLl1guEyobbCdymhBWZvLb4Q6wJmdLxwcHDwTGpseb7IWj26zfEU03btuo7GV72KHQe7xCM3Xz6wozsEzr+WOGmDDjvcQMdhh73w78tr0uUkHc8w7Z5dl9HEMa8Kf1ie3DBghVe+abJl7qDVGuDU+WJKi08K2fssPiwM3iFYCfrDZ9OHF79IG9efKKZmF6QtnmDaXbuvownQYSv9O4SQWO1TwHXTwbogI+Dwo2oiGfVhpcvXSAOhBXTx4pW09u3jDrnLL6noQdvddYUAbBBO3Mre6bbdsxiGPWYtEIsHaBHYVvgSRM6gCy9eDoYdLIZmFkUbihq023dcj2Bwr1ClbwcmJGzDktOSBH0PK16ldPAKWgRxCYYx6RqIQIfVgLUNb9GCtqvzcppQjUlXgP0H2N4qV5V4FwAfSi1InLDE+yeYy9i2LaxIRWJJELEVhHojl5fN/ZFPEHhrQYc9GjqLzvnIMurYZLil2YaufBOKkqY6O6+nhpr3EF8LDBs9GgsIZ590FWXzU6JJABZPB7VL12yWDUWqANgWAHaBBmwKKRbdqO/uXExNtS/DStADhYDftMJeTXLiJVmVmwyWStGpYr7EDBsJSfdCbqdkXH4MsC9BA/UPn0nnX7xKM2yKQSwq9aCz8zpqqH0VweB2yqVMY1IiZtPF8nxPIcxMLom+mBxo+DszbJQm0LHwArr6hlV60pVGkEXDtF07LqPmWg4Gh5Uuw1+UHbiZbYXZkncA8LnxPE2lohZNpxyFz88ICVy5OBKBzwIz7Fn0qVvfpVV/srs3OlZTxolFwbRSh0V8WN92gNJ4dJpeJuyD4zNeymoYaPmPUg6cl3CLeTzVWgj3IYx3HEiGPYVu/sJqWvbbvcXc9KJpW8FByww7vvovcKCGHRYUyW9AFKAElYrHKFg3GgpltWTrBGUF81QMPRqjEl8MYR12PA1Ah9WAzU7yBQUtMyybtaqD0peA34TIQDXrfMq/IJlpK7vuFiJ34i3EfWOGDUfGQYfVDJvLiBQMtJ3bllBTDdthZWwtszkrAaBCl4VK4ECRdhOYFIF5dUkVVPbQXISUSRk2HzvtXBAvl8Uh2mrQ/XCEJ11n0I2fe4VWPpsYvTGT3yr3PAWZs2zpuIGa6t4XdliKHBFjoGbVpTYg5huLdxwMhabQcax0acDmPtKjzrSdWy+n5rGrsVN2n7AMyI1/7K2VeP/E39XlQLHp+mveR2P+nq5cHq7zC5kYuLyYMBwdh23eH6KbP79aM+wIZD2qoN267UaaVA87rB9WAjZl8YQLWJXGADVVGkFvClzUabsNNykcrYSWwDrsXPrinW/BStBT4JZ6++dHDbRCh617WdhhOeCveGyq/dVK2TPJMtN3dTlC3UkBzvM4JftJ7udwBA7ckfn07XvW06+e2JXnlpR+9aMC2s1brgdgeaVru5CoiLQCelUfJWbP70RwCF8/GJ4MwDbSt7+/ie5f2lH6iBqFHuYdtDu2X06NtauFlYBByuQqJ13Ky0nqrIJZ2TqUpQqbZXbXRapUZmnjsFe/4g94LXT3FnrwJxvtF3VKThLIK2hZh22EL0FVYBuQqmJQxaP8qRabzUE59aKIC33zrvIIVTSaQ5A30O6ElWASVILKwD7hQSAcXthmyatc+KN0UWZKtQKWquMxRsuAWtkQYTahOe0ls9aX+7nsCd94yezGqfqlr2UvgbyAdvPGG6ix7nVYCbYBnI5TpexbmkWJrv2tNLUB21WGD8RKMaASFi2yqC/TrAPhecj6cqbZdb4cJeA6aLdsXEItDa/j9fPdJv0UwI1HYhNNldtn5LdM2p5sdu5U9qwzH6OJk6po3PgKCgYRLwD+q0FjW04o7N5NpOoWzw08Pvb3bnJqjk5zWQKugvaNv36Wpkx4BStd7K1lvDEQgylWMKUx1uXmO1d3/OgQ7eaP82Wd6nEJuLaM++RvbqGTpvaA0Q4bgJUmLeWZb9f3WDnNQEG1CJh1zwIvcnl8yL3ffNdAe/3HH6bu3igM6RMo7BuLZUuQuKFHKsDaget9AeoejL4EXFUPFi1aRuvWLaFZzSGsfHXD6+kIcMs6JLNuElZV6QZ98p+YlxZzseV6smqSie6hJ26hKRM7qcLXL16LFI/9pe5X5TqY7tz6C+b7nevwI2xRO12x+GlrRn3usgRcBS237ZRTlgvgzmwOYuWrEy9ORhif6LAwBznqtXl+1t/9rcdp9f9dSzWBjVBdDkIhwZtDfGHcUBxwXkbgi6ANfG49rNc5X8AUs8/an/7QDGsV+jwPEnAdtGbgMuNWRbsBlv6Y3dQ60ArMCrtm7AgYWUFtYd50MuncOkiXXrmS/vjs2bBodGGXL15zQydEtYGAjN7Nji7sCxtvmwRwAmgBdxu4LTgP+A6na46+7oIEXNNprW1hxt22dzadiM7AbtNaXIankyVgnAQsr5C5Z4aytoPP33qjl/7p9r8IL6tQpB4AjVDAP4y/AC9UBn+UY2Qdh1XuBHgU5wxqPCH4KSH+Is38l787fpjFLce1n/mENUmfj1ACeQMtt2vRohXUua8VodZbsBhWHdvnxWCNT844cAUy88vh7E9oW/dU/FbbBVPCP992se3yM08doms/vQHOK/PgKjge7amwMCurL7IN3A6+j8z3kvVc2GYzWDj52GWV9OAjZ9jaoxNyl0BeQcvNOmXhCuo6NI9OhFsAFrwB3BeMgUU9jq0v9Mi9O7LkV//lJFr18mds1fxxZTd99rY1dDRyGg1FmnHjVMcCgZhvJFvBTBN8alIXL3D6wj66+rJ6+s73z8+0Fp0vjQTyDlr+/blzfk97DrXTcWw1CUfGCJbFbn+hSDJw+aN0W8GkqtEO1MtknI6Q62v66LT29cTxwKwHM+41N6+j49E5eJ0R3vvlQ6AMow3mvPzT5p+3nstWpGsJ9GaoHWP8W+lLNwVp6U8WWJujz3OQwKiAltvVPvf3tPfQfDBcq9BxfZgW8SKZUhMUcHPog62IL9IPa8EOEQ+Md/xaD8W4A9HTobpMQjuq0J54fC1r/pGdD4lA0DWBtfSpqyeCcc8bWXW6tMl+MwrCYOB29WFyBsdoZlw//pnBKr6D0mL8leMETU3wKn091Iwdv8kZdz103JPxwpFxQsdVN1BKUdgpN2V2rtOPXwj4mXG30G03+WnpfexYo49cJTBqTKsaOGfes7T3cJxxlY6bEWAy7SVcIDmkkp+BEuykCWDc7dtvsJUWjPtF6LjhDyBaYSOuj0nUCWwlckhgxwveD0dD2MzZR/UV79Enr26k7957bg6V6SIsgVEHLf9o+5xltPvASVjynSKsCuZZuPS9jQft4GvKJGYGNpNwqsaLSZ6hq7JP7yQ4o2/fvsQ26s883Ucfv+ldwbhsDovidcFOJrjYb9vNCLY6zQnxkJ7cHiyy0DE4FHXQ528K0NL756csqy86SyDVuDuXcCl17vxl1H1QWhUiVAfwGk0xLEnKssA/pxzEzGmiGQ57suzNA+v6jlFdxQ4AdwNt2XqjLcuf/2cPfRrbugdCi4SOG44gdpgxC3NV5wbgfb5hhOI/QLWBd+mTH5tEd//wb2zt0QmpJVAw0HKz2uYuEzqusuNyWpSXew07rpjV89PVaKWZaTk92ZZtWQ+X4ztALh9HInhVHqKKTxn7KnHsBevxu2cO0823dUDfbsNvjhOMy4diSmZ8Do430oPrwPtqhFWhJriVbr3eR3ff0zbSasuqfEFBy5KeO28FVIV2AHcaNL96YAMsh0Oxqp8XHQwbmI1pkw2VYDSjnNAppYEq6DtKtYi50Fi3njq22nXc3/2mk+758XbBuKzjsqcaT6NE+fTWrWStsaWzP7pgXNpPdcH1dOsnW+iWz2tVwSaoJAkFBy23i4G7p6+NBkPNAGi1XI0yUCJ8ydmiYLBvkn44JnMVgqhNiGPgVwV7aWr9a8SxGKzHvffsoq9+pweM2y5uoohxEzHdW6PgWMtmdi5X3mR/4Ljj74eOu5l+8M3J9OU7p2VWRZnnKgrQ8hi0z1sudFzBuNEarFTFmyZZM7bkYBqyJI9r86oAciuG5r8M4gDe48C7K5rrN4Jx7Truwz99n77779sQwmgRvAmaUL5C6LgZM30KUJnbIqLswBzGVgXWcb/xlTa65QsLU5TWl1gCRQNabgwDd9/RdjyamXFh8DfhlL9GlJ6QwdgJfdgAmmJpAX5ecROrbtg35ttLU+peoy0bF9tq/NG9O+nO7/TGGDeMm0jq1MZM0VYifYIwPMTUFVUfPw0Qf5ewIOLfRPd+YxLd+bXW9JWVcY6iAi2Pw8zZy6infyGAOwMgha8CHs+KIc2P+XRjpsDB+SSAE5eL+XoQVoUa2HGnTtxGGzbYV84efmA9fW/pVoSWXwC/iSa5GyMji4WpdRZ/BHUDiTbhQSH+MuP6hvC+NGlVuOv2WXTLrXrJN9kYFx1oFXB7+8G4cGoJIzxmDIAiVq3xUTqvA/uKRSuHdCEEpRujLgYLb8Ac499LMya9SZs2XmqTE+u4d33vAB2LtAuHH5+/0qbbmm8QWwXiN6Uao9ol2maz9/JKYAjukEdh5dhCP/i3JvrSHS2O1ZV7YlGClgdlBjPu0ZPBuNNg9GdvLKOpxtNZsC8AyB5i2RwcDl8cDF7GDor7ooeF+amloYPef9/u//rgfeuh43ZIHTc8KcGqwFUlvUGMhiXRvO3NRoP8fmxVwitVa/xr6Vt3tNPnbvMm4zY0Tbf3z6WU7EbcpR/NtBpWFfYdbsO7CSbDJoslVuFzKz9cB9tQwwqEGVaqWNHgWVmK0Qs7bnWwh6ZPXOPIuD+6dzd9/e5eALdNWBWiUFvMOmrqn7eLme89dXA98YMnZ3HG/d5dTfTlO7xnVejbl7/okHZpppb+qF+d1bYcvgrMuHIHBO/SMj+Os2ZaQ20w65biu2DcI2KJVTKu3Y77gMG4R0MLESB5ItQLeKrFiDtJWKQMdOBEYwcmaGgLM26V4avwzTvm0CVLtKqgwFf0oOWGMnB7j8yFr0Kz8FVQqoHoRDLdNcntJSKMG368KotY9Yq9Agp2XPgqTGt4gzZvvMJWCzPu1+7ej523zLgwzQFh8ffbJlCmraw5wbZWIRReGMCErm2oHFHe+tMPc1gH/fKh+XT1NeNS1lkuFz0BWh6MmbN/T/v6pY4bhh2XfRV8/ArSLEGrBlaVU4yr0sViBB2h2optiAe2mda+66zjPvZ0L6wKC6FvQ8eNYjdGxoprIrQMFT2WGFNfWGcXjDuE9vRQbfAdemjpmfTRxVPKBZtJ++kZ0HIPWMftPdJuMK7ccZBu5m4DBScAYKxWcFkFXvWIFiBmroOOWxXYQ21T3qb16+xWhdtv20g/fSIiYh2www9hURaKS1JBJ7vAJeQHv4mnABtFuE3mV1EFAmGxi7gK2+CfemQBfewfy5txPQVaBdx9RxeA4WbgUQpVAVBJdShQqDwMCj4YGGa25TQziBlAQTyaq2F+am3e7si437jzVfrZU5icDZ8idNwwr5w5HI6vanLIJ5JA2T6L+iLiomGHcBV2QDDjPrz0jLJmXM+Blsd15knQcfvZqtBEwyE7UBJm44auGJ94WWEcN1lZQSzMA+wd5t9D7c1v0YZ37Yz7lS9tpPsfD9MJYcfFnjPLIX5N3Snma0a7VFJ8MoYSydzXoOMKO25wEz31s/lly7ieBC0P9IzZy+m9jum06qV+K04SzuXjPpFZUxVIUBmUXgkdtzrYgag52+mdtdfZijPjPvLrfbR201TbtQT2tl3NMkGoD4OCcdmO+/CPP1iWjOtZ0PJwX3j+I/T1O35lH3nYc2PsJqwFku0EgJCbP2kPlZdnWKiDH9GV0HHbp75D69Y6M+6Tv0MIKMuRoDObGZfblfBIsJZMcQ7GZR2XV86kjjs+RebSu+Rp0CYbDqWvKpYz66/Jyqj0WFkksK+DxJkxkwfjjvFvRkjTTnrjjWtsVT3641/Y0qJm34McLR3mSsXNCLCzVYFXzljH/a+lH4RDPW9bKo+jJEErSIyZkh/vgs3kkq845+/8SUJ0kpgBDEQMVyzJUBBlIS3sH0YExj20YOZ79Naaj2aMEt5oGWP/VKWUrmvReVURuXtCPit4s2QQ/ri1wc30xksX0qmn5yU0W6rWFuRaSYKWHbf5jeYSbDnKlU1iog42jck6BAuzSyMdFozbPn03rV5j13HNv8hA5Y9YwMhIL0nf3piWgTuMddwxAfYOe4dWPXdxWTBuSYLW54cNFwsPfMjdBop1leUgxrcAEtLiU/f4qdBlJdhUbF3FlNJ5G8usQTBu61p6883UjMtgF3bXTFCrHgFJHgVi+w+sC/IpYlgaWMf1HaJq//u0+qUL6PQz7BaV9LeCd3KUJGj3HmyUCxBiu4zsou3RbAaFUCHkYc2nmFKpG5xLLEygWmbcGgTgmNfanZRxzSqGa7AwVJ9YfbjBONojLz/XB96mPy7/25Jm3JIE7cL5D2HP2TQaCsNxW8RViJu8WMc1f+QqlHz+m4EZI2B8Uc7aXI85jygLj6wqRD1fOGMtrVlj91WIsbMLkzDRD+MfqwhiZy/aID98cRBbd6Dj+jeWtI5bkqDlweW4Cj1HFmC7zFRh9Je+CvxY5cGWH84nYGA4DmTCiuY8ApAATSB6iGort1DbdHtQZaxNCKBbGVz+tsv/ixsSqgLtgY77Fq16/iKa1lrp8o8UvrqSBS2Ldlbbs7S/f47wx40i5JGcSEl9Vr11R6izhhQcgaXUCKvuy5Mygz1ZVYhEQlAZ7F4zZh8Cx/pzxoDSzxMr4BswyL4KPiyI+DbS2tc/XHJWhZIGrQSu9McdjEyX8XENXwUFuGzjKvAb1BX4lKog62IQ2yOBS8XDolbkDNQMC+LmEXZcfw/VwarwwsqLMizojWwlD1oF3Lh3GPacITGma2YaVyHGuIaNlP/go5zQxUKEw5hLQMvokA6XR5BkNMDwEYtXFNfBZdA7Dnu6kXq7LhnBbxVX0bIALYucHcl7jswXIZiUjquGQjFmJkMjVAxWC+RMKKYicFmnx79TWia/k2se81NALhPDOwzhoMZVraV9JQIBhDw8AAAHVElEQVTcsgGtAi7ruHIHRJUNF+ZJlu2ikRBTCQTNMrvin5jYxXVcc1lZJ28Rjwe1S1Z3dunJdFqejOGacJmQ3B+FW6PffxCO7RtKArhlBVoGhdgsyf642OXLjMv+uAqsmbJiNvvSpDIhQZ0dKHPPHQuax+DFgXsLt9ZxOPz00Fgwbm+33eEn918b/ZJlB1oWMfvj9g3g9UzUCEdyZ5MQA9j84XI8CTMzqvjO/5yUWdtYSm8xW3KWCUqTTVVMPA3Yfst0i4Pbyazr52iNvj4EvdtA+z0M3LIELQ9ky8xltH9gEYKBsFWhBkwUf+tOTAUwTFqKiWMxE1IhxuFaMp9uh6xpk5yVgrTFRAY29gXxDrRKBCepr3jbs8AtW9DyIE5vXSYYdziMrTJhvHPB0E/jO3PZ/sr6qKTSTNWHzCBUmFzsR8GreOyrUAvG9eLkrKxBy7Bhxj00eCoenBwQo1bouOaD9VfrmyazgpspJFJW5ZJkVpa3JJczSuZFEB98FYKw47KO6zXglj1oeZSnzlhOB4/PgTkMjIsAHBwXwawiCIZlN0U1q8oIGuZMhm6ZdTl7AcvCnD2DJcWuA7OVQ/os+BHYOUAHqb5yM/XsvixtXcWSQYPWGImW1hV04NjJ4uUlHDuMfRWysRIUy4CmbwdPMNklnXVcBHWGVaECGzfHV671DHA1aE2j3NL6HB0emg9zGAfgsPikchyxnKlWijkjI0N61FlymOifPdJwNdkDQagWhn4uLArKQiJ2QOwH426gPbvtsXqzblKeC2jQWgQ8ZdpK6LiIAC4YF87kFl+FXMeDAVOow3yzCDdLfPxg22hITjIF4/oHYcfdS+Mq3y564GrQOiCJgZvIuJJj2U7LR6IVIRW3qcrt3l8OP5tjkgmS7JrI7TPVlABYcZHpVtqXYbSNLawI5sXKWUWgD0u+64taVdCgTQIVCdxTBeOGhSM5Vs5g/uLBjb+miQEsKygFc5iy41bAjjsejFuskzMN2iSg5eTJLSvoyDC/OxevIDXencvglNttpOhkeNw4YzlX5x0xsx2XV86CCDM6tup92ttVfFYF70jTGQ15T2Xgso47xK9EZR0XEcnF8q0RzNkfMN4JoSjX2qIM4tNaixT6nH0VWMcN+rqh464tOh1XgzYDhDBwDw/CqhBpgD7A71yQfglclMGrbLoZVFXwLGpxItkihYwTIdWgAAI7B337aXzVZuraXjxWBQ3aDGE0efpK6g+fjojkU4VVgd+6o/RYNUFzrMrydhvHPEWWyC4Xok9RDqN/QjDupNr3qLuzOFQFDdosADNpynI6OjwXOu4EEUg5drC6YDjXZFFdQbKqFTXrypqygQjfBJjDImEOLyotJX5slqzwH6DxNWDcTvt7hUe7Ixq0WUq8cepz1D/0AcSjxctLTDpuKVgPFEjNf6UpjPckDQC4XdRQt4527SgscDVoswQtZ5fAnYeVM0QrhI4bOxwmXWYwFzOwlX1XTDKTPDWYcYO0jxpqNtHuzsLpuBq0OYBWALfleZjDTjNe0IdXomI4nY6oyZk2GRicyhVjGq+cBf3wVaBd1AAdd9fOwui4GrQjQAcz7kCYt+6MFzquE5N6hWkzFQPfeAFsT6+AVWHCGOi4O0YfuBq0mY5WknyTpqykY2xViDRh64498JvZF9frTMsiEOY+g3ErfbtpQs3o67gatEnAmE3yWResooEQ9pxFx9qKxdwbhcdMAb1mYi0ztYFNCJYjfSulDZdvwGBgGEpRL02o3kg7OkaPcTVoraOWw3nHpuN00WUv0HMv8KuZEo8oWEnGubVe8eY5z9H8cLQRB+y4FYETiI/bTU3j3qfObUtGpVP868Vw+49KZwvxIzs7LqCWCa+Kt+TwYBdaRVAukg4kaxGPgkUiG6vVP/VXYBfORJFolXgV7P7Ds6m1bUVeRe085c3rT5ZZ5T7eMFmJLd0hDGw+XRTTy5UBG2Mo/m7XDtJWIlbLoNdG8EVNMoW5LIpdvrSXGseGqXPrVYgv8du0deWaQYM2V8llWI6tCqHIGDhdsy4oV5kyLJr/bDk9Y9mLnJsGzdKhfADRGifW76COjmuore3XeemDBm1exBqvdGv3dOofOA4m4v1YMNwb7GZ9THvqHI31GfZna39wayK6fh0NhgP0/aU30r/e/rjrEtY6resi1RXmWwLaepBvCev6XZeABq3rItUV5lsCGrT5lrCu33UJaNC6LlJdYb4loEGbbwnr+l2XgAat6yLVFeZbAhq0+Zawrt91CWjQui5SXWG+JaBBm28J6/pdl4AGresi1RXmWwIatPmWsK7fdQlo0LouUl1hviWgQZtvCev6XZeABq3rItUV5lsCGrT5lrCu33UJaNC6LlJdYb4loEGbbwnr+l2XgAat6yLVFeZbAhq0+Zawrt91CWjQui5SXWG+JaBBm28J6/pdl4AGresi1RXmWwIatPmWsK7fdQlo0LouUl1hviWgQZtvCev6XZeABq3rItUV5lsC/w80G2NVkAXxrwAAAABJRU5ErkJggg==;" vertex="1" parent="1">
          <mxGeometry x="338" y="100.95" width="36.78" height="41" as="geometry" />
        </mxCell>
      </root>
    </mxGraphModel>
  </diagram>
</mxfile>
